<svg width="24" height="26" viewBox="0 0 24 26" fill="none" xmlns="http://www.w3.org/2000/svg">
<path d="M11.9794 0C15.9688 0 19.1787 3.13922 19.1787 7.01481V9.00815C21.4178 9.70705 23.0492 11.734 23.0492 14.1549V20.5729C23.0492 23.57 20.5645 26 17.5011 26H6.49866C3.43398 26 0.949219 23.57 0.949219 20.5729V14.1549C0.949219 11.734 2.58195 9.70705 4.81969 9.00815V7.01481C4.8329 3.13922 8.04288 0 11.9794 0ZM11.9926 14.7996C11.3585 14.7996 10.8434 15.3034 10.8434 15.9235V18.7914C10.8434 19.4244 11.3585 19.9283 11.9926 19.9283C12.6399 19.9283 13.1551 19.4244 13.1551 18.7914V15.9235C13.1551 15.3034 12.6399 14.7996 11.9926 14.7996ZM12.0058 2.26076C9.32423 2.26076 7.14462 4.37941 7.13141 6.98897V8.72781H16.867V7.01481C16.867 4.39233 14.6874 2.26076 12.0058 2.26076Z" fill="#1A1A1A"/>
</svg>
