<svg width="28" height="28" viewBox="0 0 28 28" fill="none" xmlns="http://www.w3.org/2000/svg">
<path d="M16.713 24.4188L16.7107 16.4275L24.6908 16.4365C25.4294 16.438 26.1383 16.146 26.6616 15.6248C27.1849 15.1036 27.4797 14.3959 27.4812 13.6574C27.4827 12.9188 27.1907 12.2099 26.6695 11.6866C26.1483 11.1633 25.4406 10.8685 24.7021 10.867L16.7107 10.8648L16.713 2.86897C16.713 2.13131 16.42 1.42386 15.8984 0.902259C15.3767 0.380655 14.6693 0.0876202 13.9316 0.0876202C13.194 0.0876202 12.4865 0.380655 11.9649 0.902259C11.4433 1.42386 11.1503 2.13131 11.1503 2.86897L11.1503 10.867L3.17244 10.8648C2.43418 10.8654 1.7264 11.1592 1.2048 11.6817C0.683193 12.2041 0.390493 12.9124 0.391089 13.6506C0.391685 14.3889 0.685527 15.0967 1.20797 15.6183C1.73042 16.1399 2.43868 16.4326 3.17693 16.432L11.1503 16.4252L11.1525 24.4211C11.1528 25.1584 11.446 25.8655 11.9676 26.3867C12.4892 26.9078 13.1965 27.2005 13.9339 27.2002C14.6713 27.1999 15.3783 26.9067 15.8995 26.3851C16.4207 25.8635 16.7133 25.1562 16.713 24.4188Z" fill="#1A1A1A"/>
</svg>
