<svg width="28" height="30" viewBox="0 0 28 30" fill="none" xmlns="http://www.w3.org/2000/svg">
<path d="M15.057 0.257812C16.1714 0.257812 17.1805 0.87676 17.7377 1.79044C18.0088 2.23255 18.1895 2.77781 18.1444 3.35255C18.1142 3.79465 18.2498 4.23676 18.4907 4.64939C19.2588 5.90202 20.9607 6.3736 22.286 5.66623C23.777 4.8115 25.6595 5.32729 26.5179 6.78623L27.527 8.52518C28.4005 9.98413 27.9186 11.8557 26.4125 12.6957C25.1324 13.4473 24.6806 15.1125 25.4487 16.3799C25.6896 16.7778 25.9607 17.1168 26.3824 17.3231C26.9095 17.6031 27.3162 18.0452 27.6023 18.4873C28.1595 19.401 28.1144 20.521 27.5722 21.5083L26.5179 23.2768C25.9607 24.2199 24.9215 24.8094 23.8523 24.8094C23.3251 24.8094 22.7378 24.662 22.2558 24.3673C21.8643 24.1168 21.4125 24.0283 20.9305 24.0283C19.4395 24.0283 18.1895 25.2515 18.1444 26.7104C18.1444 28.4052 16.7588 29.7315 15.0268 29.7315H12.9786C11.2316 29.7315 9.84606 28.4052 9.84606 26.7104C9.81594 25.2515 8.56592 24.0283 7.07494 24.0283C6.57795 24.0283 6.12613 24.1168 5.74962 24.3673C5.26769 24.662 4.66527 24.8094 4.15322 24.8094C3.06887 24.8094 2.0297 24.2199 1.47246 23.2768L0.433292 21.5083C-0.123943 20.5504 -0.154064 19.401 0.403172 18.4873C0.644138 18.0452 1.09595 17.6031 1.60801 17.3231C2.0297 17.1168 2.30079 16.7778 2.55681 16.3799C3.30983 15.1125 2.85802 13.4473 1.57788 12.6957C0.0869026 11.8557 -0.395031 9.98413 0.463413 8.52518L1.47246 6.78623C2.34597 5.32729 4.21346 4.8115 5.7195 5.66623C7.02976 6.3736 8.73159 5.90202 9.49967 4.64939C9.74063 4.23676 9.87618 3.79465 9.84606 3.35255C9.81594 2.77781 9.9816 2.23255 10.2677 1.79044C10.825 0.87676 11.834 0.287286 12.9334 0.257812H15.057ZM14.0178 10.8389C11.6533 10.8389 9.74063 12.6957 9.74063 15.0094C9.74063 17.3231 11.6533 19.1652 14.0178 19.1652C16.3823 19.1652 18.2498 17.3231 18.2498 15.0094C18.2498 12.6957 16.3823 10.8389 14.0178 10.8389Z" fill="#1A1A1A"/>
</svg>
