<svg width="34" height="26" viewBox="0 0 34 26" fill="none" xmlns="http://www.w3.org/2000/svg">
<path d="M17 0C20.361 0 23.5476 1.16606 26.322 3.32485C29.0963 5.46788 31.4585 8.60364 33.1549 12.5273C33.2817 12.8267 33.2817 13.1733 33.1549 13.457C29.7622 21.3042 23.722 26 17 26H16.9841C10.278 26 4.2378 21.3042 0.845122 13.457C0.718293 13.1733 0.718293 12.8267 0.845122 12.5273C4.2378 4.68 10.278 0 16.9841 0H17ZM17 6.69697C13.4963 6.69697 10.6585 9.51758 10.6585 13C10.6585 16.4667 13.4963 19.2873 17 19.2873C20.4878 19.2873 23.3256 16.4667 23.3256 13C23.3256 9.51758 20.4878 6.69697 17 6.69697ZM17.0019 9.05714C19.1739 9.05714 20.9495 10.822 20.9495 12.9965C20.9495 15.1553 19.1739 16.9202 17.0019 16.9202C14.8141 16.9202 13.0385 15.1553 13.0385 12.9965C13.0385 12.7287 13.0702 12.4765 13.1178 12.2244H13.197C14.9568 12.2244 16.3836 10.8377 16.447 9.10441C16.6214 9.0729 16.8117 9.05714 17.0019 9.05714Z" fill="#1A1A1A"/>
</svg>
