<svg width="15" height="16" viewBox="0 0 15 16" fill="none" xmlns="http://www.w3.org/2000/svg">
<path d="M4.65 13.5C4.65 13.6933 4.8067 13.85 5 13.85C5.1933 13.85 5.35 13.6933 5.35 13.5H4.65ZM5.24749 3.35302C5.1108 3.21633 4.8892 3.21633 4.75251 3.35302L2.52513 5.5804C2.38844 5.71709 2.38844 5.93869 2.52513 6.07538C2.66181 6.21206 2.88342 6.21206 3.0201 6.07538L5 4.09548L6.9799 6.07538C7.11658 6.21206 7.33819 6.21206 7.47487 6.07538C7.61156 5.93869 7.61156 5.71709 7.47487 5.5804L5.24749 3.35302ZM5.35 13.5V3.6005H4.65V13.5H5.35Z" fill="#1F1D3A"/>
<path d="M9.65 3.60059C9.65 3.40729 9.8067 3.25059 10 3.25059C10.1933 3.25059 10.35 3.40729 10.35 3.60059H9.65ZM10.2475 13.7476C10.1108 13.8843 9.8892 13.8843 9.75251 13.7476L7.52513 11.5202C7.38844 11.3835 7.38844 11.1619 7.52513 11.0252C7.66181 10.8885 7.88342 10.8885 8.0201 11.0252L10 13.0051L11.9799 11.0252C12.1166 10.8885 12.3382 10.8885 12.4749 11.0252C12.6116 11.1619 12.6116 11.3835 12.4749 11.5202L10.2475 13.7476ZM10.35 3.60059L10.35 13.5001H9.65L9.65 3.60059H10.35Z" fill="#1F1D3A"/>
</svg>
