<svg width="15" height="15" viewBox="0 0 15 15" fill="none" xmlns="http://www.w3.org/2000/svg">
<path d="M10.4511 7.3567V10.192C10.4511 12.5548 9.50596 13.4999 7.1432 13.4999H4.30787C1.94511 13.4999 1 12.5548 1 10.192V7.3567C1 4.99393 1.94511 4.04883 4.30787 4.04883H7.1432C9.50596 4.04883 10.4511 4.99393 10.4511 7.3567Z" fill="#1F1D3A"/>
<path d="M7.35583 1.35H10.1912C11.338 1.35 12.0498 1.58152 12.4836 2.01539C12.9175 2.44926 13.149 3.16101 13.149 4.30787V7.1432C13.149 8.27311 12.9226 8.97914 12.5005 9.41294C12.08 9.84512 11.3931 10.081 10.2903 10.0943H6.25024C5.7269 10.0943 5.37905 10.022 5.14105 9.8996C4.91656 9.78411 4.76345 9.61054 4.65326 9.3401C4.53771 9.0565 4.47187 8.67138 4.43827 8.14854C4.40484 7.62834 4.40469 7.00377 4.40469 6.25V4.20871C4.41802 3.10592 4.65389 2.419 5.08607 1.9985C5.51987 1.57643 6.22591 1.35 7.35583 1.35Z" stroke="#1F1D3A" stroke-width="0.7"/>
</svg>
