<svg width="14" height="15" viewBox="0 0 14 15" fill="none" xmlns="http://www.w3.org/2000/svg">
<path d="M1.77539 13.1562H11.4176" stroke="white" stroke-width="0.924" stroke-linecap="round"/>
<path d="M7.05844 4.4209C7.05844 4.16574 6.85159 3.9589 6.59644 3.9589C6.34128 3.9589 6.13444 4.16574 6.13444 4.4209L7.05844 4.4209ZM6.26975 10.9076C6.45017 11.088 6.7427 11.088 6.92312 10.9076L9.86327 7.96743C10.0437 7.78701 10.0437 7.49449 9.86327 7.31407C9.68285 7.13364 9.39032 7.13364 9.2099 7.31407L6.59644 9.92753L3.98297 7.31407C3.80255 7.13364 3.51002 7.13364 3.3296 7.31407C3.14918 7.49449 3.14918 7.78701 3.3296 7.96743L6.26975 10.9076ZM6.13444 4.4209L6.13444 10.5809L7.05844 10.5809L7.05844 4.4209L6.13444 4.4209Z" fill="white"/>
</svg>
