<svg width="11" height="12" viewBox="0 0 11 12" fill="none" xmlns="http://www.w3.org/2000/svg">
<path d="M5.29308 0.542969C8.12144 0.542969 10.4221 2.84358 10.4221 5.67195C10.4221 7.00636 9.90996 8.22341 9.07195 9.13682L10.7209 10.7823C10.8752 10.9367 10.8758 11.1863 10.7214 11.3406C10.6445 11.4186 10.5429 11.457 10.4418 11.457C10.3412 11.457 10.24 11.4186 10.1626 11.3417L8.49374 9.67748C7.61585 10.3805 6.50273 10.8014 5.29308 10.8014C2.46471 10.8014 0.163574 8.50031 0.163574 5.67195C0.163574 2.84358 2.46471 0.542969 5.29308 0.542969ZM5.29308 1.33301C2.90029 1.33301 0.95362 3.27916 0.95362 5.67195C0.95362 8.06473 2.90029 10.0114 5.29308 10.0114C7.68534 10.0114 9.63201 8.06473 9.63201 5.67195C9.63201 3.27916 7.68534 1.33301 5.29308 1.33301Z" fill="#989898"/>
<path d="M5.29308 0.542969C8.12144 0.542969 10.4221 2.84358 10.4221 5.67195C10.4221 7.00636 9.90996 8.22341 9.07195 9.13682L10.7209 10.7823C10.8752 10.9367 10.8758 11.1863 10.7214 11.3406C10.6445 11.4186 10.5429 11.457 10.4418 11.457C10.3412 11.457 10.24 11.4186 10.1626 11.3417L8.49374 9.67748C7.61585 10.3805 6.50273 10.8014 5.29308 10.8014C2.46471 10.8014 0.163574 8.50031 0.163574 5.67195C0.163574 2.84358 2.46471 0.542969 5.29308 0.542969ZM5.29308 1.33301C2.90029 1.33301 0.95362 3.27916 0.95362 5.67195C0.95362 8.06473 2.90029 10.0114 5.29308 10.0114C7.68534 10.0114 9.63201 8.06473 9.63201 5.67195C9.63201 3.27916 7.68534 1.33301 5.29308 1.33301Z" stroke="#989898"/>
</svg>
