<svg width="20" height="21" viewBox="0 0 20 21" fill="none" xmlns="http://www.w3.org/2000/svg">
<path d="M10.7617 3.63305L11.7788 6.76332C11.9513 7.29417 12.446 7.65358 13.0041 7.65358H16.2955C17.0713 7.65358 17.3939 8.64638 16.7662 9.10241L14.1035 11.037C13.6519 11.3651 13.4629 11.9466 13.6354 12.4775L14.6525 15.6078C14.8923 16.3456 14.0477 16.9592 13.4201 16.5032L10.7573 14.5686C10.3057 14.2405 9.69427 14.2405 9.2427 14.5686L6.57993 16.5032C5.95226 16.9592 5.10773 16.3456 5.34748 15.6078L6.36457 12.4775C6.53705 11.9466 6.3481 11.3651 5.89653 11.037L3.23376 9.10241C2.60609 8.64638 2.92867 7.65358 3.70451 7.65358H6.99588C7.55405 7.65358 8.04873 7.29417 8.22122 6.76332L9.23831 3.63304C9.47806 2.89517 10.5219 2.89517 10.7617 3.63305Z" stroke="#989898" stroke-opacity="0.5" stroke-width="0.4875"/>
</svg>
