<svg width="40" height="40" viewBox="0 0 40 40" fill="none" xmlns="http://www.w3.org/2000/svg">
<g clip-path="url(#clip0_4293_42846)">
<rect width="40" height="40" rx="20" fill="white"/>
<g clip-path="url(#clip1_4293_42846)">
<path d="M20 41C31.598 41 41 31.598 41 20C41 8.40202 31.598 -1 20 -1C8.40202 -1 -1 8.40202 -1 20C-1 31.598 8.40202 41 20 41Z" fill="#F3BA2F"/>
<path d="M15.61 18.1947L20.0027 13.802L24.3955 18.1988L26.9508 15.6436L20.0027 8.69141L13.0547 15.6395L15.61 18.1947Z" fill="white"/>
<path d="M8.69531 19.9961L11.2504 17.441L13.8055 19.9961L11.2504 22.5512L8.69531 19.9961Z" fill="white"/>
<path d="M15.6102 21.8049L20.0029 26.1977L24.3957 21.8008L26.9551 24.3561H26.951L20.0029 31.3082L13.0549 24.3602L13.0508 24.3561L15.6102 21.8049Z" fill="white"/>
<path d="M26.1992 20L28.7543 17.4449L31.3094 20L28.7543 22.5551L26.1992 20Z" fill="white"/>
<path d="M22.5947 19.9986L20.0025 17.4023L18.0871 19.3219L17.8656 19.5393L17.4104 19.9945L17.4062 19.9986L17.4104 20.0027L20.0025 22.5949L22.5947 19.9986Z" fill="white"/>
</g>
</g>
<defs>
<clipPath id="clip0_4293_42846">
<rect width="40" height="40" rx="20" fill="white"/>
</clipPath>
<clipPath id="clip1_4293_42846">
<rect width="42" height="42" fill="white" transform="translate(-1 -1)"/>
</clipPath>
</defs>
</svg>