<svg width="40" height="40" viewBox="0 0 40 40" fill="none" xmlns="http://www.w3.org/2000/svg">
<g clip-path="url(#clip0_4293_42854)">
<rect width="40" height="40" rx="20" fill="white"/>
<g clip-path="url(#clip1_4293_42854)">
<path d="M20 41C31.598 41 41 31.598 41 20C41 8.40202 31.598 -1 20 -1C8.40202 -1 -1 8.40202 -1 20C-1 31.598 8.40202 41 20 41Z" fill="#1652F0"/>
<path d="M21.9365 26.5625C23.0111 26.5625 24.0857 26.3246 25.0373 25.9678L27.0635 29.0686C25.2752 30.0242 23.3639 30.5 21.3377 30.5C15.2551 30.5 10.7188 26.4436 10.7188 20C10.8377 13.5564 15.493 9.5 21.4566 9.5C23.6059 9.5 25.1562 9.97578 26.8256 10.8125L24.9184 14.0322C23.9627 13.6754 22.8922 13.4375 21.8176 13.4375C18.2369 13.4375 15.374 15.7057 15.374 20C15.374 24.0564 18.118 26.5625 21.9365 26.5625Z" fill="white"/>
</g>
</g>
<defs>
<clipPath id="clip0_4293_42854">
<rect width="40" height="40" rx="20" fill="white"/>
</clipPath>
<clipPath id="clip1_4293_42854">
<rect width="42" height="42" fill="white" transform="translate(-1 -1)"/>
</clipPath>
</defs>
</svg>
