<svg width="40" height="40" viewBox="0 0 40 40" fill="none" xmlns="http://www.w3.org/2000/svg">
<rect width="40" height="40" rx="20" fill="black"/>
<path d="M14.7826 10.0013C20.5203 9.99956 26.2584 9.99956 31.9969 10.0013C31.9987 11.856 31.9987 13.7103 31.9969 15.5643C26.259 15.5661 20.5209 15.5661 14.7826 15.5643C14.7808 13.7097 14.7808 11.8553 14.7826 10.0013Z" fill="#02A6C2"/>
<path d="M8.0072 17.6556C9.85833 17.646 11.7098 17.646 13.5616 17.6556C13.5712 19.5068 13.5712 21.3582 13.5616 23.21C11.7099 23.2195 9.85842 23.2197 8.0072 23.2105C7.9976 21.359 7.9976 19.5074 8.0072 17.6556Z" fill="#5FCADE"/>
<path d="M14.7877 17.655C18.9291 17.6462 23.0702 17.6462 27.2111 17.655C27.2198 19.5062 27.2198 21.3576 27.2111 23.2094C23.0697 23.218 18.9286 23.218 14.7877 23.2094C14.7791 21.3582 14.7791 19.5067 14.7877 17.655Z" fill="#5FCADE"/>
<path d="M14.7949 25.3158C16.6429 25.2958 18.4906 25.2958 20.338 25.3158C20.3572 27.1626 20.3575 29.0103 20.3389 30.8589C18.4908 30.8771 16.6432 30.8768 14.7959 30.8579C14.7767 29.0112 14.7764 27.1639 14.7949 25.3158Z" fill="#ABEBF4"/>
</svg>