<svg width="40" height="40" viewBox="0 0 40 40" fill="none" xmlns="http://www.w3.org/2000/svg">
<g clip-path="url(#clip0_4293_42862)">
<rect width="40" height="40" rx="20" fill="white"/>
<g clip-path="url(#clip1_4293_42862)">
<path d="M20 41C31.598 41 41 31.598 41 20C41 8.40202 31.598 -1 20 -1C8.40202 -1 -1 8.40202 -1 20C-1 31.598 8.40202 41 20 41Z" fill="#0066ED"/>
<path d="M16.4896 27.9645C16.5568 21.3117 23.6296 19.9173 22.84 12.6429C22.6048 10.5597 21.5968 8.07328 19.5472 6.09088C19.4464 5.99008 19.2616 6.07408 19.2784 6.22528C19.9 12.8949 15.196 16.0533 13.0792 18.8421C8.39199 25.0077 11.836 32.9205 18.7912 33.9621C18.9424 33.9789 19.0432 33.7941 18.9256 33.6933C17.4976 32.2821 16.4896 30.4845 16.4896 27.9645Z" fill="white"/>
<path d="M25.5755 17.3112C25.4747 17.2272 25.3403 17.2776 25.3067 17.3952C25.1387 18.252 24.6011 19.68 22.8875 22.1664C18.4355 28.6176 20.5859 31.4904 22.5347 33.6576C22.9715 34.1616 22.7531 33.54 23.6603 32.9184C24.8867 32.0616 25.4075 31.9608 26.5667 30.936C27.8939 29.6088 28.9691 27.5256 29.0699 25.4088C29.2883 20.8056 26.5835 18.1848 25.5755 17.3112Z" fill="white"/>
</g>
</g>
<defs>
<clipPath id="clip0_4293_42862">
<rect width="40" height="40" rx="20" fill="white"/>
</clipPath>
<clipPath id="clip1_4293_42862">
<rect width="42" height="42" fill="white" transform="translate(-1 -1)"/>
</clipPath>
</defs>
</svg>
