<svg width="40" height="40" viewBox="0 0 40 40" fill="none" xmlns="http://www.w3.org/2000/svg">
<g clip-path="url(#clip0_4293_42850)">
<rect width="40" height="40" rx="20" fill="white"/>
<g clip-path="url(#clip1_4293_42850)">
<path d="M19.5 41C30.8218 41 40 31.8218 40 20.5C40 9.17816 30.8218 0 19.5 0C8.17816 0 -1 9.17816 -1 20.5C-1 31.8218 8.17816 41 19.5 41Z" fill="#5848D5"/>
<path d="M9.25291 24.081C9.25291 23.6926 9.26092 23.3002 9.24891 22.9118C9.23289 22.1551 9.28494 21.4103 9.41307 20.6616C9.62928 19.4164 10.0217 18.2393 10.6623 17.1502C11.7393 15.3204 13.2568 13.9791 15.1707 13.0742C16.0195 12.6738 16.9084 12.3895 17.8413 12.2494C18.3258 12.1773 18.8102 12.1173 19.3027 12.1213C21.3968 12.1373 23.3467 12.6538 25.1084 13.8109C26.8341 14.944 28.1313 16.4415 28.9081 18.3674C29.2724 19.2723 29.5007 20.2172 29.6168 21.1861C29.7489 22.2552 29.7569 23.3282 29.7369 24.4013C29.7249 24.9818 29.7289 25.5624 29.7209 26.139C29.7169 26.3912 29.7089 26.6434 29.6408 26.8917C29.3805 27.8526 28.2835 28.2891 27.4787 27.7565C27.1183 27.5203 26.9422 27.172 26.8781 26.7556C26.8341 26.4753 26.81 26.195 26.81 25.9107C26.81 24.7456 26.81 23.5765 26.81 22.4113C26.81 21.9549 26.6659 21.5465 26.3536 21.2102C25.8091 20.6256 24.9682 20.6016 24.3556 21.1421C24.0113 21.4464 23.8552 21.8348 23.8231 22.2832C23.8111 22.4514 23.8071 22.6195 23.8071 22.7837C23.8031 24.0689 23.8111 25.3542 23.7991 26.6435C23.7911 27.3722 23.2386 27.9287 22.4938 27.9808C21.7811 28.0288 21.1525 27.5403 21.0324 26.8356C21.0004 26.6435 20.9884 26.4473 20.9884 26.2471C20.9884 24.9538 20.9924 23.6605 20.9884 22.3673C20.9844 21.9309 20.8402 21.5465 20.5359 21.2262C19.9233 20.5815 18.9984 20.6016 18.4058 21.2622C18.1136 21.5865 17.9854 21.9629 17.9854 22.3913C17.9854 23.6685 17.9814 24.9498 17.9854 26.227C17.9854 26.5554 17.9454 26.8797 17.8093 27.184C17.573 27.7085 17.0765 28.0168 16.504 27.9968C15.9595 27.9808 15.495 27.6364 15.2868 27.0879C15.2027 26.8717 15.1667 26.6434 15.1667 26.4112C15.1707 25.174 15.1707 23.9368 15.1627 22.6996C15.1627 22.4233 15.1507 22.1471 15.0706 21.8828C14.8824 21.2742 14.478 20.8858 13.8494 20.7817C13.2128 20.6776 12.7403 20.9779 12.384 21.4904C12.2158 21.7347 12.1597 22.0109 12.1597 22.3032C12.1597 23.4804 12.1638 24.6535 12.1638 25.8267C12.1638 26.171 12.1718 26.5193 12.0917 26.8597C11.9636 27.4242 11.419 28.0448 10.5942 27.9848C10.0297 27.9407 9.48514 27.4723 9.32498 26.8757C9.26893 26.6635 9.25291 26.4433 9.25291 26.223C9.25692 25.5103 9.25692 24.7936 9.25291 24.081Z" fill="white"/>
</g>
</g>
<defs>
<clipPath id="clip0_4293_42850">
<rect width="40" height="40" rx="20" fill="white"/>
</clipPath>
<clipPath id="clip1_4293_42850">
<rect width="41" height="41" fill="white" transform="translate(-1)"/>
</clipPath>
</defs>
</svg>