<svg width="40" height="40" viewBox="0 0 40 40" fill="none" xmlns="http://www.w3.org/2000/svg">
<g clip-path="url(#clip0_4293_42874)">
<rect width="40" height="40" rx="20" fill="white"/>
<g clip-path="url(#clip1_4293_42874)">
<path d="M20 41C31.598 41 41 31.598 41 20C41 8.40202 31.598 -1 20 -1C8.40202 -1 -1 8.40202 -1 20C-1 31.598 8.40202 41 20 41Z" fill="#00BC8D"/>
<path fill-rule="evenodd" clip-rule="evenodd" d="M16.7712 19.9988L23.5621 26.9945L27.8474 22.5805C28.0246 22.3957 28.2373 22.2486 28.4728 22.1481C28.7083 22.0476 28.9617 21.9958 29.2177 21.9958C29.4737 21.9958 29.7271 22.0476 29.9626 22.1481C30.1981 22.2486 30.4108 22.3957 30.5879 22.5805C30.9524 22.9603 31.156 23.4664 31.156 23.9928C31.156 24.5192 30.9524 25.0252 30.5879 25.405L24.9324 31.2325C24.7543 31.4157 24.5413 31.5614 24.3059 31.6608C24.0705 31.7602 23.8176 31.8115 23.5621 31.8115C23.3066 31.8115 23.0537 31.7602 22.8184 31.6608C22.583 31.5614 22.37 31.4157 22.1919 31.2325L14.0334 22.8246V27.8226C14.0334 28.9199 13.1593 29.8203 12.0948 29.8203C11.0238 29.8203 10.1562 28.9251 10.1562 27.8226V12.1763C10.1562 11.0738 11.0238 10.1787 12.0948 10.1787C13.1645 10.1787 14.0334 11.0738 14.0334 12.1763V17.1743L22.1919 8.76646C22.37 8.58325 22.583 8.43762 22.8184 8.33818C23.0537 8.23874 23.3066 8.1875 23.5621 8.1875C23.8176 8.1875 24.0705 8.23874 24.3059 8.33818C24.5413 8.43762 24.7543 8.58325 24.9324 8.76646L30.5893 14.594C30.9537 14.9738 31.1573 15.4798 31.1573 16.0062C31.1573 16.5326 30.9537 17.0386 30.5893 17.4185C30.4121 17.6037 30.1992 17.7512 29.9635 17.8519C29.7277 17.9526 29.474 18.0046 29.2177 18.0046C28.9613 18.0046 28.7076 17.9526 28.4719 17.8519C28.2362 17.7512 28.0233 17.6037 27.8461 17.4185L23.5621 13.0032L16.7712 19.9988ZM23.5647 17.9999C24.6357 17.9999 25.5046 18.895 25.5046 19.9988C25.5046 21.1026 24.6357 21.9978 23.5647 21.9978C22.4937 21.9978 21.6249 21.1026 21.6249 19.9988C21.6249 18.895 22.4937 17.9999 23.5647 17.9999Z" fill="white"/>
</g>
</g>
<defs>
<clipPath id="clip0_4293_42874">
<rect width="40" height="40" rx="20" fill="white"/>
</clipPath>
<clipPath id="clip1_4293_42874">
<rect width="42" height="42" fill="white" transform="translate(-1 -1)"/>
</clipPath>
</defs>
</svg>
