<svg width="40" height="40" viewBox="0 0 40 40" fill="none" xmlns="http://www.w3.org/2000/svg">
<rect width="40" height="40" rx="20" fill="black"/>
<g clip-path="url(#clip0_4293_42866)">
<path d="M14.6252 16.0039H7.17341C7.12717 16.0039 7.08307 16.0209 7.05054 16.0515C7.0347 16.0661 7.02204 16.0838 7.01335 16.1035C7.00465 16.1232 7.00011 16.1445 7 16.1661V23.139C7 23.1819 7.01817 23.2232 7.0507 23.2536C7.08324 23.284 7.12734 23.3012 7.17325 23.3012H14.6252C14.6713 23.3012 14.7153 23.284 14.748 23.2536C14.7638 23.239 14.7765 23.2213 14.7852 23.2016C14.7939 23.1818 14.7985 23.1605 14.7987 23.139V16.1661C14.7987 16.1232 14.7805 16.0819 14.748 16.0515C14.7145 16.0207 14.6707 16.0037 14.6252 16.0039ZM12.1991 20.7066C12.1991 20.7495 12.1809 20.7908 12.1482 20.8212C12.1149 20.8519 12.0712 20.8689 12.0259 20.8687H9.7728C9.72689 20.8687 9.68279 20.8516 9.65026 20.8212C9.63439 20.8066 9.6217 20.7889 9.61298 20.7691C9.60425 20.7494 9.59969 20.7281 9.59955 20.7066V18.5985C9.59955 18.5556 9.61772 18.5143 9.65026 18.4839C9.68279 18.4533 9.72689 18.4363 9.7728 18.4363H12.0259C12.0718 18.4363 12.1159 18.4533 12.1482 18.4839C12.1641 18.4985 12.1769 18.5162 12.1856 18.5359C12.1944 18.5556 12.199 18.5769 12.1991 18.5985V20.7066ZM30.2259 18.4367H27.9728C27.877 18.4367 27.7994 18.5093 27.7994 18.5988V20.7069C27.7994 20.7964 27.877 20.8691 27.9728 20.8691H30.2257C30.3215 20.8691 30.3991 20.7964 30.3991 20.7069V18.5988C30.3991 18.5092 30.3215 18.4367 30.2257 18.4367H30.2259ZM27.6268 16.0039H25.3739C25.2781 16.0039 25.2005 16.0766 25.2005 16.1663V18.2743C25.2005 18.3638 25.2781 18.4365 25.3739 18.4365H27.6267C27.7224 18.4365 27.8001 18.3638 27.8001 18.2743V16.1663C27.8001 16.0766 27.7224 16.0041 27.6267 16.0041L27.6268 16.0039ZM32.8268 16.0039H30.5737C30.4781 16.0039 30.4004 16.0766 30.4004 16.1663V18.2743C30.4004 18.3638 30.4781 18.4365 30.5739 18.4365H32.8266C32.9224 18.4365 33 18.3638 33 18.2743V16.1663C33 16.0766 32.9224 16.0041 32.8266 16.0041L32.8268 16.0039ZM27.6268 20.8689H25.3739C25.2781 20.8689 25.2005 20.9416 25.2005 21.0311V23.1393C25.2005 23.2288 25.2781 23.3013 25.3739 23.3013H27.6267C27.7224 23.3013 27.8001 23.2287 27.8001 23.1393V21.0311C27.8001 20.9416 27.7226 20.8689 27.6268 20.8689ZM32.8268 20.8689H30.5737C30.4781 20.8689 30.4004 20.9416 30.4004 21.0311V23.1393C30.4004 23.2288 30.4781 23.3013 30.5739 23.3013H32.8266C32.9224 23.3013 33 23.2287 33 23.1393V21.0311C33 20.9416 32.9224 20.8689 32.8266 20.8689H32.8268ZM23.7243 16.0039H21.4716C21.3758 16.0039 21.2982 16.0766 21.2982 16.1663V18.2743C21.2982 18.3638 21.3758 18.4365 21.4716 18.4365H23.7243C23.8201 18.4365 23.8978 18.3638 23.8978 18.2743V16.1663C23.8978 16.0766 23.8201 16.0041 23.7243 16.0041V16.0039ZM23.7243 20.8689H21.4716C21.3758 20.8689 21.2982 20.9416 21.2982 21.0311V23.1393C21.2982 23.2288 21.3758 23.3013 21.4716 23.3013H23.7243C23.8201 23.3013 23.8978 23.2287 23.8978 23.1393V21.0311C23.8978 20.9416 23.8201 20.8689 23.7243 20.8689ZM21.2975 18.5967C21.2975 18.5538 21.2791 18.5125 21.2467 18.4819C21.2133 18.4512 21.1695 18.4343 21.1241 18.4345H18.6978V16.1661C18.6978 16.1232 18.6797 16.0819 18.6471 16.0515C18.6138 16.0207 18.57 16.0037 18.5246 16.0039H16.2717C16.2256 16.0039 16.1815 16.0209 16.149 16.0515C16.1331 16.0661 16.1204 16.0838 16.1117 16.1035C16.103 16.1232 16.0984 16.1445 16.0983 16.1661V23.1353C16.0983 23.1783 16.1164 23.2196 16.149 23.25C16.1815 23.2803 16.2256 23.2975 16.2717 23.2975H18.5244C18.5705 23.2975 18.6146 23.2803 18.6471 23.25C18.6797 23.2196 18.6978 23.1783 18.6978 23.1353V20.8669H21.124C21.17 20.8669 21.2141 20.8497 21.2467 20.8194C21.2625 20.8048 21.2752 20.787 21.2839 20.7673C21.2927 20.7476 21.2972 20.7263 21.2974 20.7047L21.2975 18.5967Z" fill="white"/>
</g>
<defs>
<clipPath id="clip0_4293_42866">
<rect width="26" height="7.3008" fill="white" transform="translate(7 16)"/>
</clipPath>
</defs>
</svg>