<svg width="71" height="65" viewBox="0 0 71 65" fill="none" xmlns="http://www.w3.org/2000/svg">
<path opacity="0.4" d="M10.1589 64.134C10.1136 64.134 10.0719 64.134 10.0231 64.1305C8.92608 64.0748 7.84995 63.8379 6.82607 63.4235C1.78674 61.3757 -0.644117 55.619 1.40017 50.5831L26.8963 5.91527C27.7739 4.3272 29.1043 2.99685 30.7272 2.09834C35.4809 -0.534512 41.4919 1.19634 44.1213 5.94661L69.4502 50.2732C70.0144 51.6001 70.2547 52.6797 70.3139 53.7802C70.4498 56.413 69.5512 58.9379 67.789 60.8917C66.0268 62.8454 63.6064 63.9981 60.9771 64.1305L10.4097 64.134H10.1589Z" fill="#FF9500"/>
<path d="M35.5004 44.027C37.179 44.027 38.5477 45.3852 38.5477 47.0534C38.5477 48.7703 37.179 50.1389 35.5004 50.1389C33.8218 50.1389 32.4531 48.7703 32.4531 47.0917C32.4531 45.4026 33.8218 44.027 35.5004 44.027ZM35.5004 22.2812C37.179 22.2812 38.5477 23.6499 38.5477 25.3285V35.1773C38.5477 36.8594 37.179 38.2246 35.5004 38.2246C33.8218 38.2246 32.4531 36.8594 32.4531 35.1773V25.3285C32.4531 23.6499 33.8218 22.2812 35.5004 22.2812Z" fill="#FF9500"/>
</svg>
