<svg width="15" height="16" viewBox="0 0 15 16" fill="none" xmlns="http://www.w3.org/2000/svg">
<path d="M7.50147 13.918C5.91943 13.918 4.43115 13.2969 3.31787 12.1836C2.20459 11.0703 1.5835 9.58203 1.5835 8C1.5835 6.41797 2.20459 4.92969 3.31787 3.81641C4.43115 2.70312 5.91943 2.08203 7.50147 2.08203C9.0835 2.08203 10.5718 2.70312 11.6851 3.81641C13.9937 6.125 13.9937 9.875 11.6851 12.1836C10.5718 13.2969 9.0835 13.918 7.50147 13.918ZM7.50147 2.78516C6.10693 2.78516 4.79443 3.32422 3.81006 4.30859C2.82568 5.29297 2.28662 6.60547 2.28662 8C2.28662 9.39453 2.82568 10.707 3.81006 11.6914C4.79443 12.6758 6.10693 13.2148 7.50147 13.2148C8.896 13.2148 10.2085 12.6758 11.1929 11.6914C13.2319 9.65234 13.2319 6.34766 11.1929 4.30859C10.2085 3.32422 8.896 2.78516 7.50147 2.78516Z" fill="#D52941"/>
<path d="M7.18494 9.22899V5.1875H7.82307V9.22899H7.18494ZM7.50007 10.8125C7.34776 10.8125 7.21908 10.7626 7.11404 10.6628C7.01425 10.563 6.96436 10.4343 6.96436 10.2768C6.96436 10.1192 7.01425 9.99055 7.11404 9.89076C7.21908 9.79097 7.34776 9.74107 7.50007 9.74107C7.65763 9.74107 7.78631 9.79097 7.8861 9.89076C7.98589 9.99055 8.03578 10.1192 8.03578 10.2768C8.03578 10.4343 7.98589 10.563 7.8861 10.6628C7.78631 10.7626 7.65763 10.8125 7.50007 10.8125Z" fill="#D52941"/>
</svg>
