<svg width="174" height="174" viewBox="0 0 174 174" fill="none" xmlns="http://www.w3.org/2000/svg">
<g filter="url(#filter0_d_1397_26071)">
<rect x="22" y="11" width="130" height="130" rx="29" fill="white"/>
<rect x="23" y="12" width="128" height="128" rx="28" stroke="#9A95CE" stroke-opacity="0.1" stroke-width="2"/>
</g>
<path d="M89.4038 42.8141H86.4125V53.4236H89.4038C94.6925 53.4236 99.8625 54.9919 104.26 57.9302C108.657 60.8685 112.085 65.0448 114.109 69.931C116.133 74.8172 116.662 80.1938 115.631 85.381C114.599 90.5681 112.052 95.3329 108.312 99.0726C104.573 102.812 99.8079 105.359 94.6207 106.391C89.4336 107.423 84.0569 106.893 79.1707 104.869C74.2845 102.845 70.1082 99.4181 67.1699 95.0206C64.2316 90.6232 62.6632 85.4532 62.6632 80.1644V34.0625H52.0535V80.1644C52.0535 100.76 68.8083 117.514 89.4038 117.514C109.999 117.514 126.754 100.759 126.754 80.1638C126.754 59.5683 109.999 42.8141 89.4038 42.8141Z" fill="#26282F"/>
<path d="M89.404 100.751C94.8648 100.751 100.102 98.5816 103.963 94.7202C107.825 90.8589 109.994 85.6217 109.994 80.161C109.994 74.7002 107.825 69.463 103.963 65.6017C100.102 61.7403 94.8648 59.571 89.404 59.571H86.4125V70.1801H89.4038C91.3776 70.1803 93.3071 70.7657 94.9482 71.8623C96.5893 72.959 97.8684 74.5176 98.6237 76.3412C99.3791 78.1648 99.5767 80.1714 99.1916 82.1073C98.8066 84.0432 97.8561 85.8214 96.4605 87.2172C95.0648 88.6129 93.2866 89.5635 91.3508 89.9487C89.4149 90.3338 87.4083 90.1363 85.5846 89.3811C83.761 88.6259 82.2023 87.3469 81.1055 85.7059C80.0087 84.0648 79.4232 82.1354 79.423 80.1616V42.6836H68.8135V80.1616C68.8199 85.6205 70.9913 90.8539 74.8515 94.7138C78.7116 98.5737 83.9451 100.745 89.404 100.751Z" fill="#26282F"/>
<defs>
<filter id="filter0_d_1397_26071" x="0" y="0" width="174" height="174" filterUnits="userSpaceOnUse" color-interpolation-filters="sRGB">
<feFlood flood-opacity="0" result="BackgroundImageFix"/>
<feColorMatrix in="SourceAlpha" type="matrix" values="0 0 0 0 0 0 0 0 0 0 0 0 0 0 0 0 0 0 127 0" result="hardAlpha"/>
<feMorphology radius="5" operator="dilate" in="SourceAlpha" result="effect1_dropShadow_1397_26071"/>
<feOffset dy="11"/>
<feGaussianBlur stdDeviation="8.5"/>
<feComposite in2="hardAlpha" operator="out"/>
<feColorMatrix type="matrix" values="0 0 0 0 0.475 0 0 0 0 0.475 0 0 0 0 0.475 0 0 0 0.05 0"/>
<feBlend mode="normal" in2="BackgroundImageFix" result="effect1_dropShadow_1397_26071"/>
<feBlend mode="normal" in="SourceGraphic" in2="effect1_dropShadow_1397_26071" result="shape"/>
</filter>
</defs>
</svg>
