<svg width="156" height="41" viewBox="0 0 156 41" fill="none" xmlns="http://www.w3.org/2000/svg">
<rect width="40.8886" height="40.8886" rx="8.80853" fill="#1A1A1A"/>
<path d="M27.3891 11.3162C20.6554 13.62 24.6722 23.2641 24.6722 23.2641L30.5966 20.71C31.4981 18.0908 33.1398 15.0559 32.2704 13.34C31.401 11.6241 29.3416 10.6483 27.3891 11.3162Z" fill="url(#paint0_linear_4732_23383)"/>
<path d="M13.4976 29.5717C20.2313 27.268 16.2146 17.6238 16.2146 17.6238L10.2902 20.178C9.38858 22.7971 7.74691 25.832 8.61633 27.5479C9.48575 29.2638 11.5451 30.2397 13.4976 29.5717Z" fill="url(#paint1_linear_4732_23383)"/>
<path d="M13.4996 18.9675C8.7612 21.4011 8.22624 25.753 8.65065 27.549C8.65065 27.549 5.42944 23.2856 5.84988 20.0081C6.27031 16.7305 6.66718 15.7832 8.22036 13.5538C10.953 9.63143 16.4081 8.0594 18.8502 8.16163C18.8502 8.16163 23.718 8.26732 23.9375 12.5358C24.0689 15.0918 21.0262 16.8162 20.1014 17.0897C17.531 17.8497 16.1078 17.6279 13.4996 18.9675Z" fill="#DEE2DA"/>
<path d="M27.3891 21.9204C32.1275 19.4867 32.6624 15.1348 32.238 13.3388C32.238 13.3388 35.4592 17.6022 35.0388 20.8798C34.6184 24.1573 34.2215 25.1046 32.6683 27.334C29.9357 31.2564 24.4806 32.8284 22.0385 32.7262C22.0385 32.7262 17.1707 32.6205 16.9512 28.352C16.8198 25.796 19.8624 24.0717 20.7873 23.7982C23.3577 23.0381 24.7809 23.2599 27.3891 21.9204Z" fill="#DEE2DA"/>
<path d="M54.5186 39.1849V10.754H58.9774L58.9333 15.257C60.5668 12.3433 64.0103 10.4449 67.8952 10.4449C74.2966 10.4449 79.0645 15.3453 79.0645 21.9233C79.0645 28.4571 74.2966 33.3575 67.8952 33.3575C63.9661 33.3575 60.5668 31.5474 58.9774 28.6337V39.1849H54.5186ZM66.615 29.5608C71.0739 29.5608 74.4732 26.2939 74.4732 22.0116C74.4732 17.641 71.0739 14.3299 66.615 14.3299C62.1561 14.3299 58.7567 17.6851 58.7567 22.0116C58.7567 26.2497 62.1561 29.5608 66.615 29.5608Z" fill="#1A1A1A"/>
<path d="M94.0671 33.3133C87.6657 33.3133 82.8978 28.4129 82.8978 21.835C82.8978 15.3012 87.6657 10.4008 94.0671 10.4008C97.9521 10.4008 101.396 12.255 103.029 15.1687L102.985 10.7098H107.444V33.0043H102.985L103.029 28.5012C101.396 31.4591 97.9521 33.3133 94.0671 33.3133ZM95.3474 29.4283C99.8063 29.4283 103.206 26.1173 103.206 21.7467C103.206 17.5085 99.7621 14.2416 95.3474 14.2416C90.8443 14.2416 87.4891 17.4644 87.4891 21.7467C87.4891 26.1173 90.8443 29.4283 95.3474 29.4283Z" fill="#1A1A1A"/>
<path d="M116.398 6.73655C114.765 6.73655 113.484 5.7653 113.484 4.22014C113.484 2.71913 114.765 1.70374 116.398 1.70374C118.032 1.70374 119.312 2.71913 119.312 4.22014C119.312 5.7653 118.032 6.73655 116.398 6.73655ZM114.191 33.0043V10.754H118.694V33.0043H114.191Z" fill="#1A1A1A"/>
<path d="M138.244 14.5506C132.284 14.065 129.812 17.8176 129.812 22.9828V33.0043H125.353V10.754H129.812L129.679 15.2129C130.827 12.4757 133.564 10.0476 138.244 10.4449V14.5506Z" fill="#1A1A1A"/>
<path d="M156 26.9119C156 30.6203 152.822 33.3133 148.363 33.3575C145.14 33.4016 142.094 32.2096 139.622 30.1788L142.182 27.3093C143.86 28.7661 146.111 29.7374 148.01 29.6932C149.996 29.6932 151.542 28.5454 151.497 26.9561C151.497 25.1019 150.57 24.3514 147.745 23.5567C142.756 22.2765 140.416 20.334 140.416 16.7139C140.416 13.0938 143.507 10.4891 147.833 10.4008C150.57 10.3566 153.44 11.4603 155.338 13.2704L152.866 15.7868C151.586 14.7272 149.776 14.0209 148.231 14.065C146.2 14.065 144.787 15.2129 144.787 16.7139C144.787 18.259 145.758 19.142 148.495 19.8042C153.528 20.9962 155.956 23.2477 156 26.9119Z" fill="#1A1A1A"/>
<defs>
<linearGradient id="paint0_linear_4732_23383" x1="26.7004" y1="11.4299" x2="29.6569" y2="26.1601" gradientUnits="userSpaceOnUse">
<stop stop-color="#DEE2DA"/>
<stop offset="0.39" stop-color="#DEE2DA"/>
<stop offset="0.565" stop-color="#D0D5CA"/>
<stop offset="1" stop-color="#1A1A1A"/>
</linearGradient>
<linearGradient id="paint1_linear_4732_23383" x1="14.1863" y1="29.4581" x2="11.2298" y2="14.7279" gradientUnits="userSpaceOnUse">
<stop stop-color="#DEE2DA"/>
<stop offset="0.39" stop-color="#DEE2DA"/>
<stop offset="0.565" stop-color="#D0D5CA"/>
<stop offset="1" stop-color="#1A1A1A"/>
</linearGradient>
</defs>
</svg>
