<svg width="172" height="32" viewBox="0 0 172 32" fill="none" xmlns="http://www.w3.org/2000/svg">
    <path d="M52.447 4.37981C52.447 3.48648 52.8503 3.03981 53.787 3.03981H58.1668V0H52.8038C50.3006 0 48.914 1.47338 48.914 3.84319V9.42962H42.2109V12.5129H48.914V31.2852H52.4439V12.5129H63.3035V31.2852H66.8334V9.42962H52.4408V4.37981H52.447Z" fill="#1F1D3A"/>
    <path d="M88.0698 12.8727H87.4433C86.3266 10.8627 84.0467 8.80615 79.487 8.80615C73.7672 8.80615 69.1641 13.096 69.1641 20.069V20.649C69.1641 27.6654 73.8106 31.9118 79.487 31.9118C84.0467 31.9118 86.3266 29.8553 87.5332 27.6654H88.1598V31.2852H91.5997V0H88.0698V12.8727ZM88.0698 20.559C88.0698 25.7422 84.8966 28.782 80.4269 28.782C75.9571 28.782 72.7405 25.7422 72.7405 20.559V20.1558C72.7405 14.9726 75.9137 11.9328 80.4269 11.9328C84.9401 11.9328 88.0698 14.9726 88.0698 20.1558V20.559Z" fill="#1F1D3A"/>
    <path d="M104.781 8.80779C98.3916 8.80779 93.9219 13.3675 93.9219 20.114V20.6506C93.9219 27.4003 98.3482 31.9135 105.005 31.9135C110.861 31.9135 113.451 28.6503 114.794 25.8804L111.754 24.4039C110.681 26.8171 108.848 28.7837 105.095 28.7837C100.758 28.7837 97.6317 25.9672 97.4983 21.2741H115.287V19.6643C115.287 13.0046 110.998 8.80469 104.785 8.80469L104.781 8.80779ZM97.5417 18.3708C98.0784 14.3043 100.805 11.9345 104.781 11.9345C108.758 11.9345 111.441 14.3043 111.708 18.3708H97.5386H97.5417Z" fill="#1F1D3A"/>
    <path d="M133.877 20.4257C133.877 25.8323 130.884 28.6053 126.727 28.6053C123.017 28.6053 120.694 26.7287 120.694 22.3923V9.42969H117.164V22.6591C117.164 28.5154 120.964 31.6885 125.79 31.6885C130.26 31.6885 132.36 29.6786 133.343 27.5755H133.97V31.2853H137.41V9.42969H133.88V20.4257H133.877Z" fill="#1F1D3A"/>
    <path d="M164.588 9.02654C160.878 9.02654 158.958 10.7232 157.975 12.8697H157.348C156.365 10.7232 154.308 9.02654 150.912 9.02654C147.515 9.02654 145.682 10.5899 144.832 12.1563H144.206V9.42978H140.766V31.2854H144.296V18.146C144.296 14.2128 146.575 12.0663 149.792 12.0663C152.832 12.0663 154.618 13.8995 154.618 16.8029V31.2823H158.148V18.1429C158.148 14.2097 160.428 12.0632 163.645 12.0632C166.685 12.0632 168.471 13.8964 168.471 16.7998V31.2792H172.001V16.4865C172.001 11.8399 168.918 9.02344 164.582 9.02344L164.588 9.02654Z" fill="#1F1D3A"/>
    <path d="M66.8376 0H63.2891V4.93504H66.8376V0Z" fill="#1F1D3A"/>
    <path d="M9.71189 21.5703H24.9699C24.9699 26.9303 20.618 31.2822 15.258 31.2822H0C0 25.9222 4.35189 21.5703 9.71189 21.5703Z" fill="#9C88FD"/>
    <path d="M9.71189 9.42969H35.1781C35.1781 14.7897 30.8262 19.1416 25.4662 19.1416H0C0 13.7816 4.35189 9.42969 9.71189 9.42969Z" fill="#9C88FD"/>
</svg>
