<svg width="444" height="122" viewBox="0 0 444 122" fill="none" xmlns="http://www.w3.org/2000/svg">
    <path d="M135.384 11.3059C135.384 8.99989 136.425 7.84688 138.843 7.84688H150.149V0H136.305C129.843 0 126.264 3.80333 126.264 9.9207V24.3413H108.961V32.3003H126.264V80.7588H135.376V32.3003H163.409V80.7588H172.521V24.3413H135.368V11.3059H135.384Z" fill="white"/>
    <path d="M227.342 33.2291H225.724C222.842 28.0406 216.957 22.7319 205.186 22.7319C190.421 22.7319 178.539 33.8056 178.539 51.8054V53.3027C178.539 71.4146 190.534 82.3762 205.186 82.3762C216.957 82.3762 222.842 77.0676 225.957 71.4146H227.574V80.7588H236.454V0H227.342V33.2291ZM227.342 53.0705C227.342 66.4502 219.151 74.2971 207.613 74.2971C196.074 74.2971 187.771 66.4502 187.771 53.0705V52.0296C187.771 38.6499 195.962 30.803 207.613 30.803C219.263 30.803 227.342 38.6499 227.342 52.0296V53.0705Z" fill="white"/>
    <path d="M270.478 22.7346C253.983 22.7346 242.445 34.5049 242.445 51.9202V53.3054C242.445 70.7286 253.871 82.3789 271.054 82.3789C286.172 82.3789 292.858 73.9555 296.325 66.8052L288.478 62.9939C285.707 69.2233 280.975 74.2998 271.287 74.2998C260.093 74.2998 252.022 67.0294 251.677 54.9148H297.598V50.7591C297.598 33.5681 286.524 22.7266 270.486 22.7266L270.478 22.7346ZM251.79 47.4202C253.175 36.923 260.213 30.8056 270.478 30.8056C280.743 30.8056 287.669 36.923 288.358 47.4202H251.781H251.79Z" fill="white"/>
    <path d="M345.587 52.7286C345.587 66.6849 337.86 73.8431 327.131 73.8431C317.555 73.8431 311.557 68.9989 311.557 57.8051V24.3438H302.445V58.4937C302.445 73.6109 312.254 81.8021 324.713 81.8021C336.251 81.8021 341.672 76.6136 344.21 71.1848H345.827V80.7612H354.707V24.3438H345.595V52.7286H345.587Z" fill="white"/>
    <path d="M424.861 23.2971C415.285 23.2971 410.328 27.6769 407.79 33.2178H406.173C403.634 27.6769 398.326 23.2971 389.558 23.2971C380.79 23.2971 376.058 27.3326 373.864 31.3762H372.247V24.338H363.367V80.7554H372.479V46.8377C372.479 36.6848 378.364 31.1439 386.668 31.1439C394.514 31.1439 399.127 35.8761 399.127 43.3707V80.7474H408.239V46.8297C408.239 36.6768 414.124 31.1359 422.427 31.1359C430.274 31.1359 434.886 35.8681 434.886 43.3627V80.7394H443.998V42.5539C443.998 30.5594 436.039 23.2891 424.845 23.2891L424.861 23.2971Z" fill="white"/>
    <path d="M172.535 0H163.375V12.7392H172.535V0Z" fill="white"/>
    <path d="M25.07 55.6719H64.4565C64.4565 69.508 53.2227 80.7419 39.3865 80.7419H0C0 66.9057 11.2338 55.6719 25.07 55.6719Z" fill="white"/>
    <path d="M25.07 24.3359H90.8076C90.8076 38.1721 79.5737 49.4059 65.7376 49.4059H0C0 35.5698 11.2338 24.3359 25.07 24.3359Z" fill="white"/>
    <g opacity="0.7">
        <path d="M435.533 113.703L435.431 111.41L440.568 106.314H443.413L435.533 113.703ZM433.609 117.059V101.914H435.717V117.059H433.609ZM440.854 117.059L436.802 112.331L438.296 110.96L443.556 117.059H440.854Z" fill="white"/>
        <path d="M421.438 117.056V106.311H423.546V108.521L423.177 108.767C423.314 108.289 423.58 107.853 423.975 107.457C424.371 107.048 424.842 106.72 425.387 106.475C425.933 106.216 426.493 106.086 427.066 106.086C427.884 106.086 428.567 106.25 429.112 106.577C429.658 106.891 430.067 107.375 430.34 108.03C430.613 108.685 430.75 109.511 430.75 110.507V117.056H428.642V110.65C428.642 110.036 428.56 109.531 428.396 109.135C428.232 108.726 427.98 108.433 427.639 108.255C427.298 108.064 426.875 107.982 426.37 108.01C425.961 108.01 425.585 108.078 425.244 108.214C424.903 108.337 424.603 108.515 424.344 108.747C424.098 108.978 423.9 109.251 423.75 109.565C423.614 109.865 423.546 110.193 423.546 110.548V117.056H422.502C422.324 117.056 422.147 117.056 421.97 117.056C421.792 117.056 421.615 117.056 421.438 117.056Z" fill="white"/>
        <path d="M412.611 117.26C411.724 117.26 410.913 117.015 410.176 116.524C409.453 116.032 408.873 115.364 408.436 114.518C408 113.672 407.781 112.717 407.781 111.653C407.781 110.575 408 109.62 408.436 108.787C408.886 107.942 409.487 107.28 410.237 106.802C411.001 106.325 411.854 106.086 412.795 106.086C413.355 106.086 413.867 106.168 414.33 106.332C414.794 106.495 415.197 106.727 415.538 107.027C415.893 107.314 416.179 107.648 416.398 108.03C416.629 108.412 416.773 108.822 416.827 109.258L416.357 109.094V106.311H418.485V117.056H416.357V114.498L416.848 114.354C416.766 114.723 416.595 115.084 416.336 115.439C416.091 115.78 415.77 116.087 415.374 116.36C414.992 116.633 414.562 116.851 414.085 117.015C413.621 117.179 413.13 117.26 412.611 117.26ZM413.164 115.316C413.805 115.316 414.371 115.159 414.863 114.845C415.354 114.532 415.736 114.102 416.009 113.556C416.295 112.997 416.438 112.362 416.438 111.653C416.438 110.957 416.295 110.336 416.009 109.79C415.736 109.245 415.354 108.815 414.863 108.501C414.371 108.187 413.805 108.03 413.164 108.03C412.536 108.03 411.977 108.187 411.486 108.501C411.008 108.815 410.626 109.245 410.34 109.79C410.067 110.336 409.93 110.957 409.93 111.653C409.93 112.362 410.067 112.997 410.34 113.556C410.626 114.102 411.008 114.532 411.486 114.845C411.977 115.159 412.536 115.316 413.164 115.316Z" fill="white"/>
        <path d="M401.242 117.264C400.779 117.264 400.315 117.189 399.851 117.039C399.4 116.888 398.984 116.691 398.602 116.445C398.234 116.186 397.92 115.906 397.661 115.606C397.415 115.292 397.252 114.978 397.17 114.664L397.702 114.378V116.998H395.594V101.914H397.702V108.77L397.374 108.586C397.443 108.272 397.593 107.972 397.825 107.686C398.057 107.385 398.35 107.119 398.705 106.887C399.073 106.642 399.469 106.451 399.892 106.314C400.315 106.164 400.744 106.089 401.181 106.089C402.15 106.089 403.009 106.328 403.76 106.805C404.51 107.283 405.104 107.945 405.54 108.791C405.977 109.623 406.195 110.578 406.195 111.656C406.195 112.734 405.977 113.696 405.54 114.542C405.117 115.388 404.531 116.056 403.78 116.547C403.03 117.025 402.184 117.264 401.242 117.264ZM400.894 115.34C401.522 115.34 402.082 115.183 402.573 114.869C403.064 114.542 403.453 114.105 403.739 113.559C404.026 113 404.169 112.365 404.169 111.656C404.169 110.96 404.026 110.339 403.739 109.794C403.466 109.234 403.084 108.798 402.593 108.484C402.102 108.17 401.536 108.013 400.894 108.013C400.253 108.013 399.687 108.17 399.196 108.484C398.705 108.798 398.316 109.234 398.029 109.794C397.743 110.339 397.599 110.96 397.599 111.656C397.599 112.365 397.743 113 398.029 113.559C398.316 114.105 398.705 114.542 399.196 114.869C399.687 115.183 400.253 115.34 400.894 115.34Z" fill="white"/>
        <path d="M385.986 113.703L385.884 111.41L391.021 106.314H393.866L385.986 113.703ZM384.062 117.059V101.914H386.171V117.059H384.062ZM391.308 117.059L387.255 112.331L388.749 110.96L394.009 117.059H391.308Z" fill="white"/>
        <path d="M377.664 117.26C376.668 117.26 375.774 117.015 374.983 116.524C374.205 116.032 373.585 115.364 373.121 114.518C372.67 113.672 372.445 112.724 372.445 111.673C372.445 110.623 372.67 109.674 373.121 108.828C373.585 107.982 374.205 107.314 374.983 106.823C375.774 106.332 376.668 106.086 377.664 106.086C378.619 106.086 379.486 106.284 380.263 106.679C381.055 107.061 381.655 107.587 382.064 108.255L380.898 109.688C380.68 109.374 380.4 109.088 380.059 108.828C379.718 108.569 379.356 108.365 378.974 108.214C378.592 108.064 378.224 107.989 377.869 107.989C377.214 107.989 376.627 108.153 376.109 108.48C375.604 108.794 375.201 109.231 374.901 109.79C374.601 110.35 374.451 110.977 374.451 111.673C374.451 112.369 374.608 112.997 374.922 113.556C375.236 114.102 375.652 114.538 376.17 114.866C376.689 115.193 377.262 115.357 377.889 115.357C378.258 115.357 378.612 115.296 378.954 115.173C379.308 115.05 379.649 114.866 379.977 114.62C380.304 114.375 380.611 114.075 380.898 113.72L382.064 115.152C381.628 115.766 381 116.271 380.182 116.667C379.377 117.063 378.537 117.26 377.664 117.26Z" fill="white"/>
        <path d="M365.344 117.26C364.294 117.26 363.352 117.022 362.52 116.544C361.701 116.053 361.053 115.391 360.576 114.559C360.098 113.713 359.859 112.751 359.859 111.673C359.859 110.595 360.098 109.64 360.576 108.808C361.053 107.962 361.701 107.3 362.52 106.823C363.352 106.332 364.294 106.086 365.344 106.086C366.381 106.086 367.309 106.332 368.128 106.823C368.96 107.3 369.615 107.962 370.092 108.808C370.57 109.64 370.809 110.595 370.809 111.673C370.809 112.751 370.57 113.713 370.092 114.559C369.615 115.391 368.96 116.053 368.128 116.544C367.309 117.022 366.381 117.26 365.344 117.26ZM365.344 115.337C365.986 115.337 366.559 115.18 367.063 114.866C367.568 114.538 367.964 114.102 368.251 113.556C368.537 112.997 368.673 112.369 368.66 111.673C368.673 110.964 368.537 110.336 368.251 109.79C367.964 109.231 367.568 108.794 367.063 108.48C366.559 108.167 365.986 108.01 365.344 108.01C364.703 108.01 364.123 108.173 363.605 108.501C363.1 108.815 362.704 109.251 362.418 109.811C362.131 110.357 361.995 110.977 362.008 111.673C361.995 112.369 362.131 112.997 362.418 113.556C362.704 114.102 363.1 114.538 363.605 114.866C364.123 115.18 364.703 115.337 365.344 115.337Z" fill="white"/>
        <path d="M355.625 117.059V101.914H357.733V117.059H355.625Z" fill="white"/>
        <path d="M348.336 117.264C347.872 117.264 347.408 117.189 346.944 117.039C346.494 116.888 346.078 116.691 345.696 116.445C345.328 116.186 345.014 115.906 344.755 115.606C344.509 115.292 344.345 114.978 344.263 114.664L344.796 114.378V116.998H342.688V101.914H344.796V108.77L344.468 108.586C344.536 108.272 344.686 107.972 344.918 107.686C345.15 107.385 345.444 107.119 345.798 106.887C346.167 106.642 346.562 106.451 346.985 106.314C347.408 106.164 347.838 106.089 348.275 106.089C349.244 106.089 350.103 106.328 350.854 106.805C351.604 107.283 352.197 107.945 352.634 108.791C353.071 109.623 353.289 110.578 353.289 111.656C353.289 112.734 353.071 113.696 352.634 114.542C352.211 115.388 351.624 116.056 350.874 116.547C350.124 117.025 349.278 117.264 348.336 117.264ZM347.988 115.34C348.616 115.34 349.175 115.183 349.666 114.869C350.158 114.542 350.547 114.105 350.833 113.559C351.12 113 351.263 112.365 351.263 111.656C351.263 110.96 351.12 110.339 350.833 109.794C350.56 109.234 350.178 108.798 349.687 108.484C349.196 108.17 348.63 108.013 347.988 108.013C347.347 108.013 346.781 108.17 346.29 108.484C345.798 108.798 345.41 109.234 345.123 109.794C344.836 110.339 344.693 110.96 344.693 111.656C344.693 112.365 344.836 113 345.123 113.559C345.41 114.105 345.798 114.542 346.29 114.869C346.781 115.183 347.347 115.34 347.988 115.34Z" fill="white"/>
        <path d="M326.868 121.772L329.037 116.758L329.057 118.436L323.695 106.32H326.151L329.508 114.22C329.576 114.357 329.658 114.568 329.753 114.855C329.849 115.128 329.931 115.4 329.999 115.673L329.467 115.796C329.576 115.51 329.678 115.223 329.774 114.937C329.883 114.65 329.985 114.364 330.081 114.077L332.885 106.32H335.382L330.961 117.065L329.139 121.772H326.868Z" fill="white"/>
        <path d="M320.266 117.059V101.914H322.374V117.059H320.266Z" fill="white"/>
        <path d="M314.01 117.26C313.109 117.26 312.298 117.104 311.574 116.79C310.851 116.476 310.251 116.012 309.773 115.398L311.206 114.17C311.615 114.648 312.059 114.996 312.536 115.214C313.028 115.419 313.58 115.521 314.194 115.521C314.44 115.521 314.665 115.494 314.87 115.439C315.088 115.371 315.272 115.275 315.422 115.152C315.586 115.03 315.709 114.886 315.79 114.723C315.872 114.545 315.913 114.354 315.913 114.15C315.913 113.795 315.784 113.508 315.524 113.29C315.388 113.195 315.17 113.092 314.87 112.983C314.583 112.86 314.208 112.737 313.744 112.615C312.953 112.41 312.304 112.178 311.8 111.919C311.295 111.66 310.906 111.366 310.633 111.039C310.428 110.78 310.278 110.5 310.183 110.2C310.087 109.886 310.039 109.545 310.039 109.176C310.039 108.726 310.135 108.317 310.326 107.948C310.531 107.566 310.804 107.239 311.145 106.966C311.499 106.679 311.909 106.461 312.373 106.311C312.85 106.161 313.355 106.086 313.887 106.086C314.392 106.086 314.89 106.154 315.381 106.291C315.886 106.427 316.35 106.625 316.773 106.884C317.196 107.143 317.551 107.45 317.837 107.805L316.63 109.135C316.37 108.876 316.084 108.651 315.77 108.46C315.47 108.255 315.163 108.098 314.849 107.989C314.535 107.88 314.249 107.826 313.989 107.826C313.703 107.826 313.444 107.853 313.212 107.907C312.98 107.962 312.782 108.044 312.618 108.153C312.468 108.262 312.352 108.399 312.27 108.562C312.188 108.726 312.148 108.91 312.148 109.115C312.161 109.292 312.202 109.463 312.27 109.627C312.352 109.777 312.461 109.906 312.598 110.015C312.748 110.125 312.973 110.241 313.273 110.363C313.573 110.486 313.955 110.602 314.419 110.711C315.101 110.889 315.661 111.087 316.097 111.305C316.548 111.509 316.902 111.748 317.162 112.021C317.435 112.28 317.626 112.581 317.735 112.922C317.844 113.263 317.899 113.645 317.899 114.068C317.899 114.682 317.721 115.234 317.366 115.726C317.025 116.203 316.561 116.578 315.975 116.851C315.388 117.124 314.733 117.26 314.01 117.26Z" fill="white"/>
        <path d="M301.805 117.27C301.041 117.27 300.372 117.092 299.799 116.738C299.24 116.383 298.803 115.885 298.489 115.244C298.189 114.602 298.039 113.838 298.039 112.951V106.32H300.147V112.378C300.147 113.006 300.243 113.552 300.434 114.016C300.638 114.466 300.925 114.814 301.293 115.059C301.675 115.305 302.132 115.428 302.664 115.428C303.06 115.428 303.422 115.366 303.749 115.244C304.077 115.107 304.356 114.923 304.588 114.691C304.834 114.459 305.025 114.179 305.161 113.852C305.298 113.524 305.366 113.17 305.366 112.788V106.32H307.474V117.065H305.366V114.814L305.734 114.568C305.571 115.073 305.291 115.53 304.895 115.939C304.513 116.349 304.056 116.676 303.524 116.922C302.992 117.154 302.419 117.27 301.805 117.27Z" fill="white"/>
        <path d="M290.274 117.26C289.223 117.26 288.282 117.022 287.45 116.544C286.631 116.053 285.983 115.391 285.505 114.559C285.028 113.713 284.789 112.751 284.789 111.673C284.789 110.595 285.028 109.64 285.505 108.808C285.983 107.962 286.631 107.3 287.45 106.823C288.282 106.332 289.223 106.086 290.274 106.086C291.311 106.086 292.239 106.332 293.057 106.823C293.89 107.3 294.545 107.962 295.022 108.808C295.5 109.64 295.738 110.595 295.738 111.673C295.738 112.751 295.5 113.713 295.022 114.559C294.545 115.391 293.89 116.053 293.057 116.544C292.239 117.022 291.311 117.26 290.274 117.26ZM290.274 115.337C290.915 115.337 291.488 115.18 291.993 114.866C292.498 114.538 292.894 114.102 293.18 113.556C293.467 112.997 293.603 112.369 293.59 111.673C293.603 110.964 293.467 110.336 293.18 109.79C292.894 109.231 292.498 108.794 291.993 108.48C291.488 108.167 290.915 108.01 290.274 108.01C289.633 108.01 289.053 108.173 288.534 108.501C288.03 108.815 287.634 109.251 287.347 109.811C287.061 110.357 286.924 110.977 286.938 111.673C286.924 112.369 287.061 112.997 287.347 113.556C287.634 114.102 288.03 114.538 288.534 114.866C289.053 115.18 289.633 115.337 290.274 115.337Z" fill="white"/>
        <path d="M280.1 117.061V106.316H282.208V117.061H280.1ZM281.123 103.942C280.673 103.942 280.325 103.826 280.079 103.594C279.834 103.362 279.711 103.035 279.711 102.612C279.711 102.216 279.834 101.895 280.079 101.65C280.339 101.404 280.686 101.281 281.123 101.281C281.573 101.281 281.921 101.397 282.167 101.629C282.412 101.861 282.535 102.189 282.535 102.612C282.535 103.007 282.406 103.328 282.146 103.573C281.901 103.819 281.56 103.942 281.123 103.942Z" fill="white"/>
        <path d="M271.536 117.065L266.992 106.32H269.264L272.539 114.364L272.15 114.548L275.649 106.32H277.819L273.05 117.065H271.536Z" fill="white"/>
        <path d="M261.239 117.265C260.134 117.265 259.152 117.033 258.292 116.569C257.446 116.092 256.778 115.444 256.287 114.625C255.809 113.807 255.57 112.865 255.57 111.801C255.57 110.955 255.707 110.184 255.98 109.488C256.253 108.792 256.628 108.192 257.105 107.687C257.596 107.169 258.176 106.773 258.845 106.5C259.527 106.214 260.264 106.07 261.055 106.07C261.751 106.07 262.399 106.207 263 106.48C263.6 106.739 264.118 107.1 264.555 107.564C265.005 108.028 265.346 108.581 265.578 109.222C265.824 109.85 265.94 110.539 265.926 111.289L265.906 112.19H257.126L256.655 110.511H264.084L263.777 110.859V110.368C263.736 109.918 263.586 109.515 263.327 109.161C263.068 108.806 262.74 108.526 262.345 108.322C261.949 108.117 261.519 108.015 261.055 108.015C260.318 108.015 259.698 108.158 259.193 108.444C258.688 108.717 258.306 109.127 258.047 109.672C257.787 110.204 257.658 110.866 257.658 111.658C257.658 112.408 257.815 113.063 258.129 113.622C258.442 114.168 258.886 114.591 259.459 114.891C260.032 115.191 260.694 115.341 261.444 115.341C261.976 115.341 262.467 115.253 262.918 115.075C263.382 114.898 263.88 114.577 264.412 114.114L265.476 115.608C265.148 115.935 264.746 116.222 264.268 116.467C263.805 116.713 263.307 116.911 262.774 117.061C262.256 117.197 261.744 117.265 261.239 117.265Z" fill="white"/>
        <path d="M248.438 117.056V106.311H250.566V109.688L250.361 108.869C250.511 108.351 250.764 107.88 251.119 107.457C251.487 107.034 251.903 106.7 252.367 106.454C252.845 106.209 253.336 106.086 253.841 106.086C254.073 106.086 254.291 106.106 254.495 106.147C254.714 106.188 254.884 106.236 255.007 106.291L254.455 108.583C254.291 108.515 254.107 108.46 253.902 108.419C253.711 108.365 253.52 108.337 253.329 108.337C252.961 108.337 252.606 108.412 252.265 108.562C251.937 108.699 251.644 108.897 251.385 109.156C251.139 109.401 250.941 109.695 250.791 110.036C250.641 110.363 250.566 110.725 250.566 111.121V117.056H248.438Z" fill="white"/>
        <path d="M235.992 117.053V102.727H241.825C242.603 102.727 243.305 102.924 243.933 103.32C244.574 103.702 245.086 104.227 245.468 104.896C245.85 105.565 246.041 106.308 246.041 107.127C246.041 107.945 245.85 108.689 245.468 109.358C245.086 110.026 244.574 110.565 243.933 110.974C243.305 111.37 242.603 111.568 241.825 111.568H238.203V117.053H235.992ZM238.203 109.439H241.784C242.153 109.439 242.487 109.337 242.787 109.132C243.087 108.914 243.326 108.634 243.503 108.293C243.694 107.939 243.79 107.55 243.79 107.127C243.79 106.704 243.694 106.322 243.503 105.981C243.326 105.64 243.087 105.367 242.787 105.162C242.487 104.957 242.153 104.855 241.784 104.855H238.203V109.439Z" fill="white"/>
    </g>
</svg>
