<svg width="15" height="15" viewBox="0 0 15 15" fill="none" xmlns="http://www.w3.org/2000/svg">
<g opacity="0.5">
<path d="M5.74998 9.93251L3.72582 7.90835C3.61675 7.79928 3.46882 7.738 3.31457 7.738C3.16032 7.738 3.01239 7.79928 2.90332 7.90835C2.79425 8.01742 2.73297 8.16535 2.73297 8.3196C2.73297 8.39597 2.74801 8.4716 2.77724 8.54216C2.80647 8.61273 2.84931 8.67684 2.90332 8.73085L5.34165 11.1692C5.56915 11.3967 5.93665 11.3967 6.16415 11.1692L12.3358 4.99751C12.4449 4.88844 12.5062 4.74051 12.5062 4.58626C12.5062 4.43202 12.4449 4.28408 12.3358 4.17501C12.2267 4.06594 12.0788 4.00467 11.9246 4.00467C11.7703 4.00467 11.6224 4.06594 11.5133 4.17501L5.74998 9.93251Z" fill="#2C2C2C"/>
</g>
</svg>
