<svg width="15" height="16" viewBox="0 0 15 16" fill="none" xmlns="http://www.w3.org/2000/svg">
<g clip-path="url(#clip0_64_7206)">
<path fill-rule="evenodd" clip-rule="evenodd" d="M4.31581 13.1785C4.32475 13.189 4.33421 13.1993 4.34417 13.2093C4.44795 13.3131 4.586 13.3617 4.72189 13.3552C4.84248 13.3499 4.96154 13.3013 5.05362 13.2092C5.06313 13.1997 5.07219 13.1899 5.08077 13.1798L14.868 3.39262C15.0632 3.19735 15.0632 2.88077 14.868 2.68551C14.6727 2.49025 14.3561 2.49025 14.1609 2.68551L4.69895 12.1474L0.781262 8.22972C0.586 8.03446 0.269418 8.03446 0.0741549 8.22972C-0.121107 8.42499 -0.121107 8.74157 0.0741549 8.93683L4.31581 13.1785Z" fill="white"/>
</g>
<defs>
<clipPath id="clip0_64_7206">
<rect width="15" height="15" fill="white" transform="translate(0 0.5)"/>
</clipPath>
</defs>
</svg>
