<svg width="136" height="42" viewBox="0 0 136 42" fill="none" xmlns="http://www.w3.org/2000/svg">
<g filter="url(#filter0_d_1103_27848)">
<rect x="1" width="134" height="40" rx="20" fill="#3D5CF5" fill-opacity="0.2" shape-rendering="crispEdges"/>
<path d="M28.1946 18H26.7855C26.7022 17.5947 26.5563 17.2386 26.348 16.9318C26.1435 16.625 25.8935 16.3674 25.598 16.1591C25.3063 15.947 24.9825 15.7879 24.6264 15.6818C24.2704 15.5758 23.8991 15.5227 23.5128 15.5227C22.8082 15.5227 22.17 15.7008 21.598 16.0568C21.0298 16.4129 20.5772 16.9375 20.2401 17.6307C19.9067 18.3239 19.7401 19.1742 19.7401 20.1818C19.7401 21.1894 19.9067 22.0398 20.2401 22.733C20.5772 23.4261 21.0298 23.9508 21.598 24.3068C22.17 24.6629 22.8082 24.8409 23.5128 24.8409C23.8991 24.8409 24.2704 24.7879 24.6264 24.6818C24.9825 24.5758 25.3063 24.4186 25.598 24.2102C25.8935 23.9981 26.1435 23.7386 26.348 23.4318C26.5563 23.1212 26.7022 22.7652 26.7855 22.3636H28.1946C28.0885 22.9583 27.8954 23.4905 27.6151 23.9602C27.3348 24.4299 26.9863 24.8295 26.5696 25.1591C26.1529 25.4848 25.6851 25.733 25.1662 25.9034C24.651 26.0739 24.0999 26.1591 23.5128 26.1591C22.5204 26.1591 21.6378 25.9167 20.8651 25.4318C20.0923 24.947 19.4844 24.2576 19.0412 23.3636C18.598 22.4697 18.3764 21.4091 18.3764 20.1818C18.3764 18.9545 18.598 17.8939 19.0412 17C19.4844 16.1061 20.0923 15.4167 20.8651 14.9318C21.6378 14.447 22.5204 14.2045 23.5128 14.2045C24.0999 14.2045 24.651 14.2898 25.1662 14.4602C25.6851 14.6307 26.1529 14.8807 26.5696 15.2102C26.9863 15.536 27.3348 15.9337 27.6151 16.4034C27.8954 16.8693 28.0885 17.4015 28.1946 18ZM33.8352 26.1818C33.0473 26.1818 32.3561 25.9943 31.7614 25.6193C31.1705 25.2443 30.7083 24.7197 30.375 24.0455C30.0455 23.3712 29.8807 22.5833 29.8807 21.6818C29.8807 20.7727 30.0455 19.9792 30.375 19.3011C30.7083 18.6231 31.1705 18.0966 31.7614 17.7216C32.3561 17.3466 33.0473 17.1591 33.8352 17.1591C34.6231 17.1591 35.3125 17.3466 35.9034 17.7216C36.4981 18.0966 36.9602 18.6231 37.2898 19.3011C37.6231 19.9792 37.7898 20.7727 37.7898 21.6818C37.7898 22.5833 37.6231 23.3712 37.2898 24.0455C36.9602 24.7197 36.4981 25.2443 35.9034 25.6193C35.3125 25.9943 34.6231 26.1818 33.8352 26.1818ZM33.8352 24.9773C34.4337 24.9773 34.9261 24.8239 35.3125 24.517C35.6989 24.2102 35.9848 23.8068 36.1705 23.3068C36.3561 22.8068 36.4489 22.2652 36.4489 21.6818C36.4489 21.0985 36.3561 20.5549 36.1705 20.0511C35.9848 19.5473 35.6989 19.1402 35.3125 18.8295C34.9261 18.5189 34.4337 18.3636 33.8352 18.3636C33.2367 18.3636 32.7443 18.5189 32.358 18.8295C31.9716 19.1402 31.6856 19.5473 31.5 20.0511C31.3144 20.5549 31.2216 21.0985 31.2216 21.6818C31.2216 22.2652 31.3144 22.8068 31.5 23.3068C31.6856 23.8068 31.9716 24.2102 32.358 24.517C32.7443 24.8239 33.2367 24.9773 33.8352 24.9773ZM39.8366 26V17.2727H41.1321V18.6364H41.2457C41.4276 18.1705 41.7211 17.8087 42.1264 17.5511C42.5317 17.2898 43.0185 17.1591 43.5866 17.1591C44.1624 17.1591 44.6416 17.2898 45.0241 17.5511C45.4105 17.8087 45.7116 18.1705 45.9276 18.6364H46.0185C46.242 18.1856 46.5772 17.8277 47.0241 17.5625C47.4711 17.2936 48.0071 17.1591 48.6321 17.1591C49.4124 17.1591 50.0507 17.4034 50.5469 17.892C51.0431 18.3769 51.2912 19.1326 51.2912 20.1591V26H49.9503V20.1591C49.9503 19.5152 49.7741 19.0549 49.4219 18.7784C49.0696 18.5019 48.6548 18.3636 48.1776 18.3636C47.5639 18.3636 47.0885 18.5492 46.7514 18.9205C46.4143 19.2879 46.2457 19.7538 46.2457 20.3182V26H44.8821V20.0227C44.8821 19.5265 44.7211 19.1269 44.3991 18.8239C44.0772 18.517 43.6624 18.3636 43.1548 18.3636C42.8063 18.3636 42.4806 18.4564 42.1776 18.642C41.8783 18.8277 41.6359 19.0852 41.4503 19.4148C41.2685 19.7405 41.1776 20.1174 41.1776 20.5455V26H39.8366ZM53.7429 26V17.2727H55.0838V26H53.7429ZM54.4247 15.8182C54.1634 15.8182 53.938 15.7292 53.7486 15.5511C53.563 15.3731 53.4702 15.1591 53.4702 14.9091C53.4702 14.6591 53.563 14.4451 53.7486 14.267C53.938 14.089 54.1634 14 54.4247 14C54.6861 14 54.9096 14.089 55.0952 14.267C55.2846 14.4451 55.3793 14.6591 55.3793 14.9091C55.3793 15.1591 55.2846 15.3731 55.0952 15.5511C54.9096 15.7292 54.6861 15.8182 54.4247 15.8182ZM58.8807 20.75V26H57.5398V17.2727H58.8352V18.6364H58.9489C59.1534 18.1932 59.464 17.8371 59.8807 17.5682C60.2973 17.2955 60.8352 17.1591 61.4943 17.1591C62.0852 17.1591 62.6023 17.2803 63.0455 17.5227C63.4886 17.7614 63.8333 18.125 64.0795 18.6136C64.3258 19.0985 64.4489 19.7121 64.4489 20.4545V26H63.108V20.5455C63.108 19.8598 62.9299 19.3258 62.5739 18.9432C62.2178 18.5568 61.7292 18.3636 61.108 18.3636C60.6799 18.3636 60.2973 18.4564 59.9602 18.642C59.6269 18.8277 59.3636 19.0985 59.1705 19.4545C58.9773 19.8106 58.8807 20.2424 58.8807 20.75ZM70.4219 29.4545C69.7741 29.4545 69.2173 29.3712 68.7514 29.2045C68.2855 29.0417 67.8973 28.8258 67.5866 28.5568C67.2798 28.2917 67.0355 28.0076 66.8537 27.7045L67.9219 26.9545C68.0431 27.1136 68.1965 27.2955 68.3821 27.5C68.5677 27.7083 68.8215 27.8883 69.1435 28.0398C69.4692 28.1951 69.8954 28.2727 70.4219 28.2727C71.1264 28.2727 71.7079 28.1023 72.1662 27.7614C72.6245 27.4205 72.8537 26.8864 72.8537 26.1591V24.3864H72.7401C72.6416 24.5455 72.5014 24.7424 72.3196 24.9773C72.1416 25.2083 71.884 25.4148 71.5469 25.5966C71.2135 25.7746 70.7628 25.8636 70.1946 25.8636C69.4901 25.8636 68.8575 25.697 68.2969 25.3636C67.7401 25.0303 67.2988 24.5455 66.973 23.9091C66.651 23.2727 66.4901 22.5 66.4901 21.5909C66.4901 20.697 66.6473 19.9186 66.9616 19.2557C67.276 18.589 67.7135 18.0739 68.2741 17.7102C68.8348 17.3428 69.4825 17.1591 70.2173 17.1591C70.7855 17.1591 71.2363 17.2538 71.5696 17.4432C71.9067 17.6288 72.1643 17.8409 72.3423 18.0795C72.5241 18.3144 72.6643 18.5076 72.7628 18.6591H72.8991V17.2727H74.1946V26.25C74.1946 27 74.0241 27.6098 73.6832 28.0795C73.3461 28.553 72.8916 28.8996 72.3196 29.1193C71.7514 29.3428 71.1188 29.4545 70.4219 29.4545ZM70.3764 24.6591C70.9143 24.6591 71.3688 24.536 71.7401 24.2898C72.1113 24.0436 72.3935 23.6894 72.5866 23.2273C72.7798 22.7652 72.8764 22.2121 72.8764 21.5682C72.8764 20.9394 72.7817 20.3845 72.5923 19.9034C72.4029 19.4223 72.1226 19.0455 71.7514 18.7727C71.3802 18.5 70.9219 18.3636 70.3764 18.3636C69.8082 18.3636 69.3348 18.5076 68.956 18.7955C68.581 19.0833 68.2988 19.4697 68.1094 19.9545C67.9238 20.4394 67.831 20.9773 67.831 21.5682C67.831 22.1742 67.9257 22.7102 68.1151 23.1761C68.3082 23.6383 68.5923 24.0019 68.9673 24.267C69.3461 24.5284 69.8158 24.6591 70.3764 24.6591ZM87.6946 17.2727C87.6264 16.697 87.3499 16.25 86.8651 15.9318C86.3802 15.6136 85.7855 15.4545 85.081 15.4545C84.5658 15.4545 84.1151 15.5379 83.7287 15.7045C83.3461 15.8712 83.0469 16.1004 82.831 16.392C82.6188 16.6837 82.5128 17.0152 82.5128 17.3864C82.5128 17.697 82.5866 17.964 82.7344 18.1875C82.8859 18.4072 83.0791 18.5909 83.3139 18.7386C83.5488 18.8826 83.795 19.0019 84.0526 19.0966C84.3101 19.1875 84.5469 19.2614 84.7628 19.3182L85.9446 19.6364C86.2476 19.7159 86.5848 19.8258 86.956 19.9659C87.331 20.1061 87.6889 20.2973 88.0298 20.5398C88.3745 20.7784 88.6586 21.0852 88.8821 21.4602C89.1056 21.8352 89.2173 22.2955 89.2173 22.8409C89.2173 23.4697 89.0526 24.0379 88.723 24.5455C88.3973 25.053 87.92 25.4564 87.2912 25.7557C86.6662 26.0549 85.9067 26.2045 85.0128 26.2045C84.1795 26.2045 83.4579 26.0701 82.848 25.8011C82.242 25.5322 81.7647 25.1572 81.4162 24.6761C81.0715 24.1951 80.8764 23.6364 80.831 23H82.2855C82.3234 23.4394 82.4711 23.803 82.7287 24.0909C82.9901 24.375 83.3196 24.5871 83.7173 24.7273C84.1188 24.8636 84.5507 24.9318 85.0128 24.9318C85.5507 24.9318 86.0336 24.8447 86.4616 24.6705C86.8897 24.4924 87.2287 24.2462 87.4787 23.9318C87.7287 23.6136 87.8537 23.2424 87.8537 22.8182C87.8537 22.4318 87.7457 22.1174 87.5298 21.875C87.3139 21.6326 87.0298 21.4356 86.6776 21.2841C86.3253 21.1326 85.9446 21 85.5355 20.8864L84.1037 20.4773C83.1946 20.2159 82.4749 19.8428 81.9446 19.358C81.4143 18.8731 81.1491 18.2386 81.1491 17.4545C81.1491 16.803 81.3253 16.2348 81.6776 15.75C82.0336 15.2614 82.5109 14.8826 83.1094 14.6136C83.7116 14.3409 84.384 14.2045 85.1264 14.2045C85.8764 14.2045 86.5431 14.339 87.1264 14.608C87.7098 14.8731 88.1719 15.2367 88.5128 15.6989C88.8575 16.161 89.0393 16.6856 89.0582 17.2727H87.6946ZM94.8977 26.1818C94.1098 26.1818 93.4186 25.9943 92.8239 25.6193C92.233 25.2443 91.7708 24.7197 91.4375 24.0455C91.108 23.3712 90.9432 22.5833 90.9432 21.6818C90.9432 20.7727 91.108 19.9792 91.4375 19.3011C91.7708 18.6231 92.233 18.0966 92.8239 17.7216C93.4186 17.3466 94.1098 17.1591 94.8977 17.1591C95.6856 17.1591 96.375 17.3466 96.9659 17.7216C97.5606 18.0966 98.0227 18.6231 98.3523 19.3011C98.6856 19.9792 98.8523 20.7727 98.8523 21.6818C98.8523 22.5833 98.6856 23.3712 98.3523 24.0455C98.0227 24.7197 97.5606 25.2443 96.9659 25.6193C96.375 25.9943 95.6856 26.1818 94.8977 26.1818ZM94.8977 24.9773C95.4962 24.9773 95.9886 24.8239 96.375 24.517C96.7614 24.2102 97.0473 23.8068 97.233 23.3068C97.4186 22.8068 97.5114 22.2652 97.5114 21.6818C97.5114 21.0985 97.4186 20.5549 97.233 20.0511C97.0473 19.5473 96.7614 19.1402 96.375 18.8295C95.9886 18.5189 95.4962 18.3636 94.8977 18.3636C94.2992 18.3636 93.8068 18.5189 93.4205 18.8295C93.0341 19.1402 92.7481 19.5473 92.5625 20.0511C92.3769 20.5549 92.2841 21.0985 92.2841 21.6818C92.2841 22.2652 92.3769 22.8068 92.5625 23.3068C92.7481 23.8068 93.0341 24.2102 93.4205 24.517C93.8068 24.8239 94.2992 24.9773 94.8977 24.9773ZM104.445 26.1818C103.657 26.1818 102.965 25.9943 102.371 25.6193C101.78 25.2443 101.318 24.7197 100.984 24.0455C100.655 23.3712 100.49 22.5833 100.49 21.6818C100.49 20.7727 100.655 19.9792 100.984 19.3011C101.318 18.6231 101.78 18.0966 102.371 17.7216C102.965 17.3466 103.657 17.1591 104.445 17.1591C105.232 17.1591 105.922 17.3466 106.513 17.7216C107.107 18.0966 107.57 18.6231 107.899 19.3011C108.232 19.9792 108.399 20.7727 108.399 21.6818C108.399 22.5833 108.232 23.3712 107.899 24.0455C107.57 24.7197 107.107 25.2443 106.513 25.6193C105.922 25.9943 105.232 26.1818 104.445 26.1818ZM104.445 24.9773C105.043 24.9773 105.536 24.8239 105.922 24.517C106.308 24.2102 106.594 23.8068 106.78 23.3068C106.965 22.8068 107.058 22.2652 107.058 21.6818C107.058 21.0985 106.965 20.5549 106.78 20.0511C106.594 19.5473 106.308 19.1402 105.922 18.8295C105.536 18.5189 105.043 18.3636 104.445 18.3636C103.846 18.3636 103.354 18.5189 102.967 18.8295C102.581 19.1402 102.295 19.5473 102.109 20.0511C101.924 20.5549 101.831 21.0985 101.831 21.6818C101.831 22.2652 101.924 22.8068 102.109 23.3068C102.295 23.8068 102.581 24.2102 102.967 24.517C103.354 24.8239 103.846 24.9773 104.445 24.9773ZM111.787 20.75V26H110.446V17.2727H111.741V18.6364H111.855C112.06 18.1932 112.37 17.8371 112.787 17.5682C113.204 17.2955 113.741 17.1591 114.401 17.1591C114.991 17.1591 115.509 17.2803 115.952 17.5227C116.395 17.7614 116.74 18.125 116.986 18.6136C117.232 19.0985 117.355 19.7121 117.355 20.4545V26H116.014V20.5455C116.014 19.8598 115.836 19.3258 115.48 18.9432C115.124 18.5568 114.635 18.3636 114.014 18.3636C113.586 18.3636 113.204 18.4564 112.866 18.642C112.533 18.8277 112.27 19.0985 112.077 19.4545C111.884 19.8106 111.787 20.2424 111.787 20.75Z" fill="#4F4B5C"/>
</g>
<defs>
<filter id="filter0_d_1103_27848" x="0" y="0" width="136" height="42" filterUnits="userSpaceOnUse" color-interpolation-filters="sRGB">
<feFlood flood-opacity="0" result="BackgroundImageFix"/>
<feColorMatrix in="SourceAlpha" type="matrix" values="0 0 0 0 0 0 0 0 0 0 0 0 0 0 0 0 0 0 127 0" result="hardAlpha"/>
<feMorphology radius="1" operator="erode" in="SourceAlpha" result="effect1_dropShadow_1103_27848"/>
<feOffset dy="1"/>
<feGaussianBlur stdDeviation="1"/>
<feComposite in2="hardAlpha" operator="out"/>
<feColorMatrix type="matrix" values="0 0 0 0 0.0666667 0 0 0 0 0.0470588 0 0 0 0 0.133333 0 0 0 0.08 0"/>
<feBlend mode="normal" in2="BackgroundImageFix" result="effect1_dropShadow_1103_27848"/>
<feBlend mode="normal" in="SourceGraphic" in2="effect1_dropShadow_1103_27848" result="shape"/>
</filter>
</defs>
</svg>
