<svg width="159" height="159" viewBox="0 0 159 159" fill="none" xmlns="http://www.w3.org/2000/svg">
<circle cx="79.5" cy="79.5" r="79.5" fill="#9A95CE" fill-opacity="0.2"/>
<path d="M78.989 9.0625C40.0312 9.0625 8.28516 40.8085 8.28516 79.7664C8.28516 118.724 40.0312 150.47 78.989 150.47C117.947 150.47 149.693 118.724 149.693 79.7664C149.693 40.8085 117.947 9.0625 78.989 9.0625ZM112.785 63.5045L72.6964 103.594C71.7065 104.583 70.3631 105.149 68.9491 105.149C67.535 105.149 66.1916 104.583 65.2018 103.594L45.1926 83.5844C43.1422 81.534 43.1422 78.1402 45.1926 76.0898C47.243 74.0393 50.6368 74.0393 52.6872 76.0898L68.9491 92.3516L105.291 56.0099C107.341 53.9595 110.735 53.9595 112.785 56.0099C114.836 58.0603 114.836 61.3834 112.785 63.5045Z" fill="#9A95CE"/>
</svg>
