<svg width="58" height="22" viewBox="0 0 58 22" fill="none" xmlns="http://www.w3.org/2000/svg">
<g filter="url(#filter0_d_3998_24403)">
<rect x="1" width="56.2602" height="19.9404" rx="9.97022" fill="#262832"/>
<path d="M15.8724 8.76341H15.2197C15.1811 8.57569 15.1136 8.41078 15.0171 8.26867C14.9224 8.12656 14.8066 8.00726 14.6697 7.91077C14.5346 7.81252 14.3846 7.73883 14.2197 7.68971C14.0548 7.64059 13.8829 7.61602 13.7039 7.61602C13.3776 7.61602 13.082 7.69848 12.8171 7.8634C12.5539 8.02831 12.3442 8.2713 12.1881 8.59236C12.0337 8.91342 11.9565 9.30728 11.9565 9.77396C11.9565 10.2406 12.0337 10.6345 12.1881 10.9556C12.3442 11.2766 12.5539 11.5196 12.8171 11.6845C13.082 11.8494 13.3776 11.9319 13.7039 11.9319C13.8829 11.9319 14.0548 11.9073 14.2197 11.8582C14.3846 11.8091 14.5346 11.7363 14.6697 11.6398C14.8066 11.5415 14.9224 11.4214 15.0171 11.2793C15.1136 11.1354 15.1811 10.9705 15.2197 10.7845H15.8724C15.8233 11.06 15.7338 11.3064 15.604 11.524C15.4741 11.7415 15.3127 11.9266 15.1197 12.0793C14.9268 12.2301 14.7101 12.3451 14.4697 12.424C14.2311 12.503 13.9759 12.5424 13.7039 12.5424C13.2443 12.5424 12.8355 12.4302 12.4776 12.2056C12.1197 11.981 11.8381 11.6617 11.6328 11.2477C11.4276 10.8336 11.3249 10.3424 11.3249 9.77396C11.3249 9.20553 11.4276 8.71429 11.6328 8.30025C11.8381 7.8862 12.1197 7.5669 12.4776 7.34233C12.8355 7.11777 13.2443 7.00549 13.7039 7.00549C13.9759 7.00549 14.2311 7.04496 14.4697 7.12391C14.7101 7.20286 14.9268 7.31865 15.1197 7.47128C15.3127 7.62216 15.4741 7.80638 15.604 8.02393C15.7338 8.23972 15.8233 8.48622 15.8724 8.76341ZM18.4849 12.553C18.12 12.553 17.7998 12.4661 17.5244 12.2924C17.2507 12.1187 17.0367 11.8758 16.8823 11.5635C16.7296 11.2512 16.6533 10.8863 16.6533 10.4687C16.6533 10.0477 16.7296 9.6801 16.8823 9.36606C17.0367 9.05202 17.2507 8.80815 17.5244 8.63446C17.7998 8.46078 18.12 8.37393 18.4849 8.37393C18.8499 8.37393 19.1692 8.46078 19.4428 8.63446C19.7183 8.80815 19.9323 9.05202 20.085 9.36606C20.2394 9.6801 20.3165 10.0477 20.3165 10.4687C20.3165 10.8863 20.2394 11.2512 20.085 11.5635C19.9323 11.8758 19.7183 12.1187 19.4428 12.2924C19.1692 12.4661 18.8499 12.553 18.4849 12.553ZM18.4849 11.9951C18.7621 11.9951 18.9902 11.924 19.1692 11.7819C19.3481 11.6398 19.4806 11.4529 19.5665 11.2214C19.6525 10.9898 19.6955 10.7389 19.6955 10.4687C19.6955 10.1985 19.6525 9.94677 19.5665 9.71343C19.4806 9.4801 19.3481 9.2915 19.1692 9.14763C18.9902 9.00377 18.7621 8.93184 18.4849 8.93184C18.2077 8.93184 17.9797 9.00377 17.8007 9.14763C17.6218 9.2915 17.4893 9.4801 17.4033 9.71343C17.3174 9.94677 17.2744 10.1985 17.2744 10.4687C17.2744 10.7389 17.3174 10.9898 17.4033 11.2214C17.4893 11.4529 17.6218 11.6398 17.8007 11.7819C17.9797 11.924 18.2077 11.9951 18.4849 11.9951ZM21.2646 13.9846V8.42657H21.8646V9.06868H21.9383C21.9839 8.99851 22.0471 8.90903 22.1278 8.80026C22.2102 8.68973 22.3278 8.59148 22.4804 8.50551C22.6348 8.41779 22.8436 8.37393 23.1067 8.37393C23.4471 8.37393 23.7471 8.45902 24.0068 8.6292C24.2664 8.79938 24.469 9.04061 24.6147 9.3529C24.7603 9.66519 24.8331 10.0336 24.8331 10.4582C24.8331 10.8863 24.7603 11.2573 24.6147 11.5714C24.469 11.8837 24.2673 12.1258 24.0094 12.2977C23.7515 12.4679 23.4541 12.553 23.1173 12.553C22.8576 12.553 22.6497 12.51 22.4936 12.424C22.3374 12.3363 22.2172 12.2372 22.133 12.1266C22.0488 12.0144 21.9839 11.9214 21.9383 11.8477H21.8857V13.9846H21.2646ZM21.8751 10.4477C21.8751 10.7529 21.9199 11.0222 22.0093 11.2556C22.0988 11.4872 22.2295 11.6687 22.4015 11.8003C22.5734 11.9301 22.7839 11.9951 23.033 11.9951C23.2927 11.9951 23.5094 11.9266 23.6831 11.7898C23.8585 11.6512 23.9901 11.4652 24.0778 11.2319C24.1673 10.9968 24.212 10.7354 24.212 10.4477C24.212 10.1634 24.1682 9.9073 24.0804 9.67922C23.9945 9.44939 23.8638 9.26781 23.6883 9.13447C23.5146 8.99938 23.2962 8.93184 23.033 8.93184C22.7804 8.93184 22.5681 8.99588 22.3962 9.12395C22.2243 9.25027 22.0944 9.42746 22.0067 9.65554C21.919 9.88186 21.8751 10.1459 21.8751 10.4477ZM25.7805 12.4688V8.42657H26.4015V12.4688H25.7805ZM26.0963 7.75287C25.9752 7.75287 25.8708 7.71164 25.7831 7.62918C25.6971 7.54672 25.6542 7.4476 25.6542 7.33181C25.6542 7.21602 25.6971 7.11689 25.7831 7.03443C25.8708 6.95198 25.9752 6.91075 26.0963 6.91075C26.2173 6.91075 26.3208 6.95198 26.4068 7.03443C26.4945 7.11689 26.5384 7.21602 26.5384 7.33181C26.5384 7.4476 26.4945 7.54672 26.4068 7.62918C26.3208 7.71164 26.2173 7.75287 26.0963 7.75287ZM29.2338 12.553C28.8443 12.553 28.5084 12.467 28.2259 12.2951C27.9452 12.1214 27.7285 11.8793 27.5759 11.5687C27.425 11.2564 27.3496 10.8933 27.3496 10.4792C27.3496 10.0652 27.425 9.70027 27.5759 9.38448C27.7285 9.06693 27.9408 8.81956 28.2128 8.64236C28.4864 8.46341 28.8058 8.37393 29.1707 8.37393C29.3812 8.37393 29.5891 8.40902 29.7944 8.4792C29.9996 8.54938 30.1865 8.66341 30.3549 8.82131C30.5233 8.97745 30.6575 9.18448 30.7575 9.44238C30.8575 9.70027 30.9075 10.0178 30.9075 10.395V10.6582H27.7917V10.1213H30.276C30.276 9.89326 30.2303 9.68975 30.1391 9.5108C30.0496 9.33185 29.9216 9.19062 29.7549 9.08711C29.59 8.98359 29.3952 8.93184 29.1707 8.93184C28.9233 8.93184 28.7093 8.99324 28.5286 9.11605C28.3496 9.23711 28.2119 9.39501 28.1154 9.58975C28.0189 9.78449 27.9706 9.99326 27.9706 10.2161V10.574C27.9706 10.8792 28.0233 11.138 28.1285 11.3503C28.2356 11.5608 28.3838 11.7214 28.5733 11.8319C28.7628 11.9407 28.9829 11.9951 29.2338 11.9951C29.397 11.9951 29.5444 11.9722 29.6759 11.9266C29.8093 11.8793 29.9242 11.8091 30.0207 11.7161C30.1172 11.6214 30.1917 11.5038 30.2444 11.3635L30.8444 11.5319C30.7812 11.7354 30.6751 11.9144 30.526 12.0687C30.3768 12.2214 30.1926 12.3407 29.9733 12.4266C29.754 12.5109 29.5075 12.553 29.2338 12.553ZM33.3786 12.553C33.0418 12.553 32.7444 12.4679 32.4865 12.2977C32.2286 12.1258 32.0269 11.8837 31.8812 11.5714C31.7356 11.2573 31.6628 10.8863 31.6628 10.4582C31.6628 10.0336 31.7356 9.66519 31.8812 9.3529C32.0269 9.04061 32.2295 8.79938 32.4892 8.6292C32.7488 8.45902 33.0488 8.37393 33.3892 8.37393C33.6523 8.37393 33.8602 8.41779 34.0129 8.50551C34.1673 8.59148 34.2848 8.68973 34.3655 8.80026C34.448 8.90903 34.512 8.99851 34.5576 9.06868H34.6102V7.07917H35.2313V12.4688H34.6313V11.8477H34.5576C34.512 11.9214 34.4471 12.0144 34.3629 12.1266C34.2787 12.2372 34.1585 12.3363 34.0023 12.424C33.8462 12.51 33.6383 12.553 33.3786 12.553ZM33.4629 11.9951C33.712 11.9951 33.9225 11.9301 34.0944 11.8003C34.2664 11.6687 34.3971 11.4872 34.4866 11.2556C34.576 11.0222 34.6208 10.7529 34.6208 10.4477C34.6208 10.1459 34.5769 9.88186 34.4892 9.65554C34.4015 9.42746 34.2716 9.25027 34.0997 9.12395C33.9278 8.99588 33.7155 8.93184 33.4629 8.93184C33.1997 8.93184 32.9804 8.99938 32.805 9.13447C32.6313 9.26781 32.5006 9.44939 32.4128 9.67922C32.3269 9.9073 32.2839 10.1634 32.2839 10.4477C32.2839 10.7354 32.3277 10.9968 32.4155 11.2319C32.5049 11.4652 32.6365 11.6512 32.8102 11.7898C32.9857 11.9266 33.2032 11.9951 33.4629 11.9951Z" fill="white"/>
<path d="M47.0175 7.64044C47.224 7.87402 47.224 8.22488 47.0175 8.45848L43.4141 12.535C43.1683 12.813 42.7346 12.813 42.4887 12.535L40.9476 10.7917C40.741 10.5582 40.741 10.2073 40.9476 9.97367L41.1547 9.73941C41.4005 9.46138 41.8342 9.46138 42.08 9.73941L42.9515 10.7251L45.885 7.40625C46.1308 7.12818 46.5646 7.12816 46.8104 7.4062L47.0175 7.64044Z" fill="white"/>
</g>
<defs>
<filter id="filter0_d_3998_24403" x="0.382444" y="0" width="57.4968" height="21.1726" filterUnits="userSpaceOnUse" color-interpolation-filters="sRGB">
<feFlood flood-opacity="0" result="BackgroundImageFix"/>
<feColorMatrix in="SourceAlpha" type="matrix" values="0 0 0 0 0 0 0 0 0 0 0 0 0 0 0 0 0 0 127 0" result="hardAlpha"/>
<feMorphology radius="0.617556" operator="erode" in="SourceAlpha" result="effect1_dropShadow_3998_24403"/>
<feOffset dy="0.617556"/>
<feGaussianBlur stdDeviation="0.617556"/>
<feComposite in2="hardAlpha" operator="out"/>
<feColorMatrix type="matrix" values="0 0 0 0 0.0666667 0 0 0 0 0.0470588 0 0 0 0 0.133333 0 0 0 0.08 0"/>
<feBlend mode="normal" in2="BackgroundImageFix" result="effect1_dropShadow_3998_24403"/>
<feBlend mode="normal" in="SourceGraphic" in2="effect1_dropShadow_3998_24403" result="shape"/>
</filter>
</defs>
</svg>
