<svg width="24" height="22" viewBox="0 0 24 22" fill="none" xmlns="http://www.w3.org/2000/svg">
<path opacity="0.4" d="M3.26763 21.8C3.25203 21.8 3.23763 21.8 3.22083 21.7988C2.84282 21.7796 2.47202 21.698 2.11922 21.5552C0.382806 20.8496 -0.4548 18.866 0.249605 17.1307L9.03487 1.73943C9.33727 1.19223 9.79567 0.733822 10.3549 0.42422C11.9929 -0.482987 14.0641 0.113418 14.9701 1.75023L23.6978 17.0239C23.8922 17.4811 23.975 17.8531 23.9954 18.2323C24.0422 19.1396 23.7326 20.0096 23.1254 20.6828C22.5182 21.356 21.6842 21.7532 20.7782 21.7988L3.35403 21.8H3.26763Z" fill="#FF9500"/>
<path d="M12.0031 14.8719C12.5815 14.8719 13.0531 15.3399 13.0531 15.9147C13.0531 16.5063 12.5815 16.9779 12.0031 16.9779C11.4247 16.9779 10.9531 16.5063 10.9531 15.9279C10.9531 15.3459 11.4247 14.8719 12.0031 14.8719ZM12.0031 7.37891C12.5815 7.37891 13.0531 7.85051 13.0531 8.42891V11.8225C13.0531 12.4021 12.5815 12.8725 12.0031 12.8725C11.4247 12.8725 10.9531 12.4021 10.9531 11.8225V8.42891C10.9531 7.85051 11.4247 7.37891 12.0031 7.37891Z" fill="#FF9500"/>
</svg>
