<svg width="14" height="14" viewBox="0 0 14 14" fill="none" xmlns="http://www.w3.org/2000/svg">
<path d="M2 13.2734H12.5201" stroke="#1A1A1A" stroke-width="1.31501" stroke-linecap="round"/>
<path d="M7.92313 1C7.92313 0.63687 7.62876 0.342494 7.26562 0.342494C6.90249 0.342494 6.60812 0.63687 6.60812 1L7.92313 1ZM6.8007 10.2317C7.05747 10.4884 7.47378 10.4884 7.73055 10.2317L11.9149 6.04733C12.1717 5.79056 12.1717 5.37425 11.9149 5.11747C11.6581 4.8607 11.2418 4.8607 10.985 5.11747L7.26563 8.83689L3.54621 5.11747C3.28944 4.8607 2.87313 4.8607 2.61636 5.11747C2.35959 5.37425 2.35959 5.79056 2.61636 6.04733L6.8007 10.2317ZM6.60812 1L6.60812 9.76674L7.92313 9.76674L7.92313 1L6.60812 1Z" fill="#1A1A1A"/>
</svg>
