<svg width="510" height="161" viewBox="0 0 510 161" fill="none" xmlns="http://www.w3.org/2000/svg">
<path d="M126.874 32.5221C91.4799 44.6312 112.593 95.3236 112.593 95.3236L143.734 81.8982C148.473 68.1312 157.102 52.179 152.532 43.1597C147.962 34.1404 137.137 29.0109 126.874 32.5221Z" fill="url(#paint0_linear_4701_61471)"/>
<path d="M53.8509 128.478C89.2454 116.369 68.132 65.6764 68.132 65.6764L36.9916 79.1018C32.2527 92.8688 23.6235 108.821 28.1935 117.84C32.7634 126.86 43.588 131.989 53.8509 128.478Z" fill="url(#paint1_linear_4701_61471)"/>
<path d="M53.857 72.7391C28.9504 85.531 26.1385 108.406 28.3694 117.846C28.3694 117.846 11.4377 95.4364 13.6477 78.2088C15.8576 60.9812 17.9437 56.0019 26.1076 44.2833C40.471 23.6662 69.1448 15.4031 81.981 15.9405C81.981 15.9405 107.568 16.496 108.721 38.9323C109.412 52.3677 93.4191 61.4312 88.5576 62.8688C75.047 66.8641 67.5661 65.6982 53.857 72.7391Z" fill="#DEE2DA"/>
<path d="M126.868 88.2609C151.775 75.469 154.587 52.5941 152.356 43.1537C152.356 43.1537 169.288 65.5636 167.078 82.7912C164.868 100.019 162.782 104.998 154.618 116.717C140.254 137.334 111.581 145.597 98.7443 145.06C98.7443 145.06 73.1575 144.504 72.004 122.068C71.3132 108.632 87.3063 99.5688 92.1677 98.1312C105.678 94.1359 113.159 95.3018 126.868 88.2609Z" fill="#DEE2DA"/>
<path d="M186.151 140.305V49.5761H200.38L200.239 63.9462C205.452 54.6479 216.44 48.5899 228.838 48.5899C249.266 48.5899 264.482 64.228 264.482 85.2196C264.482 106.07 249.266 121.708 228.838 121.708C216.3 121.708 205.452 115.932 200.38 106.634V140.305H186.151ZM224.753 109.592C238.982 109.592 249.83 99.1671 249.83 85.5014C249.83 71.5539 238.982 60.9876 224.753 60.9876C210.523 60.9876 199.675 71.6948 199.675 85.5014C199.675 99.0262 210.523 109.592 224.753 109.592Z" fill="#DEE2DA"/>
<path d="M312.358 121.568C291.93 121.568 276.714 105.93 276.714 84.9379C276.714 64.0871 291.93 48.449 312.358 48.449C324.756 48.449 335.745 54.3661 340.957 63.6644L340.816 49.4352H355.046V120.581H340.816L340.957 106.211C335.745 115.65 324.756 121.568 312.358 121.568ZM316.444 109.17C330.673 109.17 341.521 98.6036 341.521 84.6561C341.521 71.1313 330.532 60.7059 316.444 60.7059C302.073 60.7059 291.366 70.9904 291.366 84.6561C291.366 98.6036 302.073 109.17 316.444 109.17Z" fill="#DEE2DA"/>
<path d="M383.621 36.7557C378.408 36.7557 374.323 33.6562 374.323 28.7253C374.323 23.9353 378.408 20.6949 383.621 20.6949C388.834 20.6949 392.919 23.9353 392.919 28.7253C392.919 33.6562 388.834 36.7557 383.621 36.7557ZM376.577 120.581V49.5761H390.947V120.581H376.577Z" fill="#DEE2DA"/>
<path d="M453.335 61.6921C434.316 60.1423 426.426 72.1175 426.426 88.6008V120.581H412.197V49.5761H426.426L426.004 63.8053C429.667 55.0705 438.401 47.3219 453.335 48.5899V61.6921Z" fill="#DEE2DA"/>
<path d="M510 101.139C510 112.974 499.856 121.568 485.627 121.708C475.343 121.849 465.622 118.045 457.732 111.565L465.903 102.407C471.257 107.057 478.442 110.156 484.5 110.015C490.84 110.015 495.771 106.352 495.63 101.28C495.63 95.3632 492.671 92.9682 483.655 90.4323C467.735 86.3467 460.268 80.1478 460.268 68.5954C460.268 57.0429 470.13 48.7308 483.937 48.449C492.671 48.3081 501.829 51.8302 507.887 57.6064L499.997 65.6368C495.912 62.2556 490.135 60.0015 485.204 60.1423C478.724 60.1423 474.216 63.8053 474.216 68.5954C474.216 73.5263 477.315 76.344 486.05 78.4572C502.111 82.2611 509.859 89.4461 510 101.139Z" fill="#DEE2DA"/>
<defs>
<linearGradient id="paint0_linear_4701_61471" x1="123.254" y1="33.1192" x2="138.795" y2="110.546" gradientUnits="userSpaceOnUse">
<stop stop-color="#DEE2DA"/>
<stop offset="0.39" stop-color="#DEE2DA"/>
<stop offset="0.565" stop-color="#D0D5CA"/>
<stop offset="1" stop-color="#1A1A1A"/>
</linearGradient>
<linearGradient id="paint1_linear_4701_61471" x1="57.471" y1="127.881" x2="41.9305" y2="50.4544" gradientUnits="userSpaceOnUse">
<stop stop-color="#DEE2DA"/>
<stop offset="0.39" stop-color="#DEE2DA"/>
<stop offset="0.565" stop-color="#D0D5CA"/>
<stop offset="1" stop-color="#1A1A1A"/>
</linearGradient>
</defs>
</svg>
