<svg width="162" height="31" viewBox="0 0 162 31" fill="none" xmlns="http://www.w3.org/2000/svg">
<path d="M49.4001 4.12512C49.4001 3.28374 49.7799 2.86304 50.6622 2.86304H54.7873V0H49.7361C47.3785 0 46.0726 1.3877 46.0726 3.61971V8.88128H39.7593V11.7852H46.0726V29.466H49.3972V11.7852H59.6253V29.466H62.9499V8.88128H49.3943V4.12512H49.4001Z" fill="white"/>
<path d="M82.9509 12.1241H82.3608C81.309 10.231 79.1618 8.29406 74.8672 8.29406C69.48 8.29406 65.1445 12.3345 65.1445 18.9019V19.4483C65.1445 26.0566 69.5209 30.0561 74.8672 30.0561C79.1618 30.0561 81.309 28.1192 82.4455 26.0566H83.0356V29.466H86.2755V0H82.9509V12.1241ZM82.9509 19.3635C82.9509 24.2453 79.9622 27.1084 75.7524 27.1084C71.5426 27.1084 68.513 24.2453 68.513 19.3635V18.9837C68.513 14.102 71.5017 11.2389 75.7524 11.2389C80.0031 11.2389 82.9509 14.102 82.9509 18.9837V19.3635Z" fill="white"/>
<path d="M98.692 8.29589C92.6737 8.29589 88.4639 12.5905 88.4639 18.9447V19.4501C88.4639 25.8072 92.6328 30.0579 98.9023 30.0579C104.418 30.0579 106.857 26.9846 108.122 24.3757L105.259 22.9851C104.249 25.258 102.522 27.1102 98.987 27.1102C94.9028 27.1102 91.9579 24.4575 91.8323 20.0373H108.587V18.521C108.587 12.2486 104.547 8.29297 98.6949 8.29297L98.692 8.29589ZM91.8732 17.3028C92.3786 13.4727 94.9466 11.2407 98.692 11.2407C102.437 11.2407 104.964 13.4727 105.216 17.3028H91.8703H91.8732Z" fill="white"/>
<path d="M126.098 19.235C126.098 24.3272 123.279 26.939 119.364 26.939C115.87 26.939 113.682 25.1715 113.682 21.0873V8.87842H110.357V21.3385C110.357 26.8542 113.936 29.8429 118.482 29.8429C122.692 29.8429 124.67 27.9498 125.596 25.969H126.186V29.4631H129.426V8.87842H126.101V19.235H126.098Z" fill="white"/>
<path d="M155.017 8.50194C151.523 8.50194 149.715 10.1 148.789 12.1217H148.199C147.273 10.1 145.336 8.50194 142.137 8.50194C138.938 8.50194 137.211 9.97437 136.411 11.4497H135.82V8.88174H132.581V29.4664H135.905V17.0911C135.905 13.3866 138.052 11.365 141.082 11.365C143.945 11.365 145.628 13.0916 145.628 15.8261V29.4635H148.953V17.0882C148.953 13.3837 151.1 11.3621 154.129 11.3621C156.992 11.3621 158.675 13.0887 158.675 15.8232V29.4606H162V15.5281C162 11.1517 159.096 8.49902 155.012 8.49902L155.017 8.50194Z" fill="white"/>
<path d="M62.9545 0H59.6123V4.64807H62.9545V0Z" fill="white"/>
<path d="M9.14713 20.3188H23.5179C23.5179 25.3672 19.419 29.466 14.3707 29.466H0C0 24.4177 4.09883 20.3188 9.14713 20.3188Z" fill="white"/>
<path d="M9.14713 8.88086H33.1324C33.1324 13.9292 29.0336 18.028 23.9853 18.028H0C0 12.9797 4.09883 8.88086 9.14713 8.88086Z" fill="white"/>
</svg>
