<svg width="391" height="73" viewBox="0 0 391 73" fill="none" xmlns="http://www.w3.org/2000/svg">
<path d="M119.23 9.95645C119.23 7.92567 120.147 6.91028 122.276 6.91028H132.233V0H120.041C114.351 0 111.199 3.34937 111.199 8.73657V21.436H95.9609V28.445H111.199V71.1195H119.223V28.445H143.91V71.1195H151.934V21.436H119.216V9.95645H119.23Z" fill="white"/>
<path d="M200.204 29.2629H198.78C196.241 24.6937 191.059 20.0187 180.693 20.0187C167.691 20.0187 157.227 29.7706 157.227 45.622V46.9406C157.227 62.8906 167.789 72.5438 180.693 72.5438C191.059 72.5438 196.241 67.8688 198.984 62.8906H200.409V71.1195H208.229V0H200.204V29.2629ZM200.204 46.7361C200.204 58.5188 192.991 65.4291 182.83 65.4291C172.669 65.4291 165.357 58.5188 165.357 46.7361V45.8194C165.357 34.0367 172.57 27.1264 182.83 27.1264C193.09 27.1264 200.204 34.0367 200.204 45.8194V46.7361Z" fill="white"/>
<path d="M238.202 20.0305C223.677 20.0305 213.516 30.3959 213.516 45.7325V46.9524C213.516 62.296 223.578 72.5557 238.71 72.5557C252.023 72.5557 257.911 65.1377 260.964 58.8409L254.054 55.4845C251.614 60.9704 247.447 65.4409 238.914 65.4409C229.057 65.4409 221.949 59.0383 221.646 48.3697H262.085V44.7101C262.085 29.5709 252.333 20.0234 238.209 20.0234L238.202 20.0305ZM221.745 41.7697C222.964 32.5254 229.162 27.1382 238.202 27.1382C247.242 27.1382 253.341 32.5254 253.948 41.7697H221.737H221.745Z" fill="white"/>
<path d="M304.36 46.4344C304.36 58.7248 297.555 65.0287 288.106 65.0287C279.673 65.0287 274.392 60.7626 274.392 50.9049V21.4375H266.367V51.5113C266.367 64.8242 275.005 72.0377 285.977 72.0377C296.138 72.0377 300.912 67.4684 303.147 62.6876H304.571V71.121H312.391V21.4375H304.367V46.4344H304.36Z" fill="white"/>
<path d="M374.138 20.5149C365.705 20.5149 361.34 24.3719 359.105 29.2514H357.681C355.445 24.3719 350.77 20.5149 343.049 20.5149C335.328 20.5149 331.161 24.0687 329.229 27.6296H327.804V21.4315H319.984V71.1151H328.009V41.2457C328.009 32.3046 333.191 27.4251 340.504 27.4251C347.414 27.4251 351.476 31.5925 351.476 38.1925V71.108H359.5V41.2387C359.5 32.2976 364.683 27.4181 371.995 27.4181C378.905 27.4181 382.967 31.5854 382.967 38.1854V71.1009H390.991V37.4733C390.991 26.9104 383.982 20.5078 374.124 20.5078L374.138 20.5149Z" fill="white"/>
<path d="M151.95 0H143.883V11.2186H151.95V0Z" fill="white"/>
<path d="M22.0776 49.0234H56.763C56.763 61.2081 46.87 71.1011 34.6854 71.1011H0C0 58.9164 9.89298 49.0234 22.0776 49.0234Z" fill="white"/>
<path d="M22.0776 21.4375H79.9689C79.9689 33.6222 70.0759 43.5151 57.8912 43.5151H0C0 31.3305 9.89298 21.4375 22.0776 21.4375Z" fill="white"/>
</svg>
