<svg width="157" height="30" viewBox="0 0 157 30" fill="none" xmlns="http://www.w3.org/2000/svg">
<path d="M47.8746 4.64626C47.8746 3.83084 48.2427 3.42313 49.0977 3.42313H53.0956V0.648438H48.2002C45.9153 0.648438 44.6497 1.99331 44.6497 4.15644V9.25565H38.5312V12.07H44.6497V29.2051H47.8718V12.07H57.7842V29.2051H61.0063V9.25565H47.8689V4.64626H47.8746Z" fill="#1F1D3A"/>
<path d="M80.3897 12.3984H79.8178C78.7985 10.5637 76.7175 8.68655 72.5554 8.68655C67.3345 8.68655 63.1328 12.6023 63.1328 18.9671V19.4965C63.1328 25.901 67.3741 29.7771 72.5554 29.7771C76.7175 29.7771 78.7985 27.8999 79.8999 25.901H80.4718V29.2051H83.6117V0.648438H80.3897V12.3984ZM80.3897 19.4144C80.3897 24.1456 77.4933 26.9203 73.4133 26.9203C69.3334 26.9203 66.3973 24.1456 66.3973 19.4144V19.0464C66.3973 14.3152 69.2938 11.5405 73.4133 11.5405C77.5329 11.5405 80.3897 14.3152 80.3897 19.0464V19.4144Z" fill="#1F1D3A"/>
<path d="M95.6468 8.69033C89.8143 8.69033 85.7344 12.8524 85.7344 19.0105V19.5003C85.7344 25.6613 89.7747 29.7808 95.8507 29.7808C101.196 29.7808 103.56 26.8023 104.786 24.2739L102.012 22.9262C101.032 25.129 99.3587 26.924 95.9328 26.924C91.9746 26.924 89.1206 24.3532 88.9989 20.0694H105.237V18.6C105.237 12.5211 101.321 8.6875 95.6497 8.6875L95.6468 8.69033ZM89.0385 17.4193C89.5283 13.7074 92.0171 11.5443 95.6468 11.5443C99.2766 11.5443 101.726 13.7074 101.969 17.4193H89.0357H89.0385Z" fill="#1F1D3A"/>
<path d="M122.208 19.2948C122.208 24.2298 119.476 26.761 115.682 26.761C112.296 26.761 110.175 25.0481 110.175 21.0899V9.25781H106.953V21.3334C106.953 26.6789 110.421 29.5754 114.827 29.5754C118.907 29.5754 120.824 27.7407 121.721 25.821H122.293V29.2073H125.433V9.25781H122.211V19.2948H122.208Z" fill="#1F1D3A"/>
<path d="M150.229 8.88564C146.843 8.88564 145.09 10.4344 144.193 12.3936H143.621C142.723 10.4344 140.846 8.88564 137.746 8.88564C134.645 8.88564 132.972 10.3126 132.196 11.7424H131.624V9.25372H128.484V29.2032H131.706V17.2097C131.706 13.6196 133.787 11.6603 136.724 11.6603C139.498 11.6603 141.129 13.3336 141.129 15.9838V29.2004H144.351V17.2069C144.351 13.6168 146.432 11.6575 149.368 11.6575C152.143 11.6575 153.774 13.3308 153.774 15.9809V29.1975H156.996V15.695C156.996 11.4537 154.181 8.88281 150.223 8.88281L150.229 8.88564Z" fill="#1F1D3A"/>
<path d="M61.0125 0.648438H57.7734V5.15307H61.0125V0.648438Z" fill="#1F1D3A"/>
<path d="M8.86486 20.3359H22.7921C22.7921 25.2285 18.8198 29.2008 13.9273 29.2008H0C0 24.3083 3.97234 20.3359 8.86486 20.3359Z" fill="#1F1D3A"/>
<path d="M8.86486 9.25781H32.11C32.11 14.1503 28.1377 18.1227 23.2451 18.1227H0C0 13.2302 3.97234 9.25781 8.86486 9.25781Z" fill="#1F1D3A"/>
</svg>
