<svg width="24" height="24" viewBox="0 0 24 24" fill="none" xmlns="http://www.w3.org/2000/svg">
<path d="M10.9341 17V10.2213H12.3504L12.3503 17H10.9341ZM11.6491 9.3C11.3741 9.3 11.1404 9.2129 10.9479 9.0387C10.7645 8.8554 10.6729 8.6217 10.6729 8.3375C10.6729 8.0533 10.7645 7.8242 10.9479 7.65C11.1404 7.4667 11.3741 7.375 11.6491 7.375C11.9333 7.375 12.167 7.4667 12.3504 7.65C12.5337 7.8242 12.6254 8.0533 12.6254 8.3375C12.6254 8.6217 12.5337 8.8554 12.3504 9.0388C12.167 9.2129 11.9333 9.3 11.6491 9.3Z" fill="#1A1A1A"/>
<path d="M11.6875 1.375C5.64688 1.375 0.75 6.27188 0.75 12.3125C0.75 18.3531 5.64688 23.25 11.6875 23.25C17.7281 23.25 22.625 18.3531 22.625 12.3125C22.625 6.27188 17.7281 1.375 11.6875 1.375Z" stroke="#1A1A1A" stroke-width="1.25"/>
</svg>
