<svg width="14" height="14" viewBox="0 0 14 14" fill="none" xmlns="http://www.w3.org/2000/svg">
<g clip-path="url(#clip0_9713_1695)">
<path d="M7.33437 13.2787C10.5694 13.2787 13.1844 10.6573 13.1844 7.42869C13.1844 4.1989 10.5694 1.57869 7.33437 1.57869C4.10518 1.57869 1.48438 4.1989 1.48438 7.42869C1.48438 10.6573 4.10518 13.2787 7.33437 13.2787ZM7.33437 5.71405C7.05358 5.71405 6.82542 5.4859 6.82542 5.2051C6.82542 4.9243 7.05358 4.6903 7.34022 4.6903C7.62103 4.6903 7.84917 4.9243 7.84917 5.2051C7.84917 5.4859 7.62102 5.71405 7.33437 5.71405ZM7.33437 10.1606C7.05358 10.1606 6.81957 9.92605 6.81957 9.64584V7.06014C6.81957 6.77875 7.05358 6.55119 7.33437 6.55119C7.61517 6.55119 7.84332 6.77875 7.84332 7.06014V9.64584C7.84332 9.92605 7.61517 10.1606 7.33437 10.1606Z" fill="#1A1A1A"/>
</g>
<defs>
<clipPath id="clip0_9713_1695">
<rect width="13" height="13" fill="white" transform="translate(0.833984 0.928589)"/>
</clipPath>
</defs>
</svg>
