<svg width="95" height="24" viewBox="0 0 95 24" fill="none" xmlns="http://www.w3.org/2000/svg">
<path d="M19.7488 5.90998C18.8682 5.32288 17.7555 5.19386 16.766 5.56434L11.0193 7.71271C10.8607 7.77189 10.7151 7.60026 10.7979 7.4523L12.7676 4.04215C13.4245 2.90819 13.0871 1.46175 11.9982 0.736156L10.9956 0.0673828L6.32958 8.29034L1.34988 3.31656L1.18535 5.82002C1.11669 6.87585 1.5582 7.9021 2.37967 8.57797L7.11198 12.4805C7.24337 12.5882 7.16525 12.8001 6.99598 12.8001H3.05673C1.74641 12.8001 0.664531 13.8122 0.578123 15.1189L0.5 16.3215L9.95397 16.2529L8.13349 23.0531L10.3836 21.944C11.3341 21.4752 12.0005 20.578 12.1757 19.5328L13.1901 13.4819C13.2162 13.3138 13.4411 13.2736 13.5239 13.4227L15.49 16.8329C16.1434 17.9668 17.5662 18.3989 18.7392 17.8201L19.8187 17.2862L15.0331 9.13193L21.8333 7.30908L19.7477 5.9159V5.91234L19.7488 5.90998ZM12.854 12.7989H8.01986C7.88018 12.7989 7.79259 12.6439 7.8648 12.5243L10.2842 8.34124C10.3529 8.22169 10.5292 8.22169 10.5967 8.34124L13.0114 12.5279C13.08 12.6474 12.9948 12.7989 12.854 12.7989Z" fill="#FAFAFA"/>
<path d="M46.0996 8.45115C46.4618 8.45115 46.7708 8.33159 47.0241 8.09486C47.2809 7.85576 47.4088 7.57049 47.4088 7.2367C47.4088 6.9029 47.2809 6.61764 47.0241 6.37972C46.7708 6.14181 46.4618 6.02344 46.0996 6.02344C45.7374 6.02344 45.432 6.14299 45.1752 6.37972C44.9183 6.61764 44.7893 6.90409 44.7893 7.2367C44.7893 7.56931 44.9183 7.85576 45.1752 8.09486C45.432 8.33278 45.7398 8.45115 46.0996 8.45115Z" fill="#FAFAFA"/>
<path d="M35.2467 6.75488H32.1266L29.1603 10.7427H29.0254V6.75488H26.3479V16.6184H29.0254V14.0771L29.9119 12.9206L32.1266 16.6184H35.3237L31.9147 11.1487L35.2479 6.75606L35.2467 6.75488Z" fill="#FAFAFA"/>
<path d="M47.4291 9.2207H44.7717V16.6186H47.4291V9.2207Z" fill="#FAFAFA"/>
<path d="M72.048 9.48699C71.6633 9.24553 71.2076 9.12598 70.6833 9.12598C70.1589 9.12598 69.6677 9.25973 69.2581 9.52606C68.8533 9.79238 68.5728 10.1605 68.413 10.6281H68.3325V9.22185H65.8113V16.6198H68.4674V12.4592C68.4722 12.2142 68.5172 12.007 68.6024 11.833C68.6923 11.6567 68.8119 11.5217 68.9729 11.427C69.1374 11.33 69.3327 11.2826 69.5481 11.2826C69.8831 11.2826 70.1435 11.388 70.3282 11.5963C70.5187 11.8046 70.6134 12.0923 70.6087 12.458V16.6186H73.2684V11.8993C73.2684 11.3631 73.1631 10.8873 72.9488 10.4694C72.7393 10.0528 72.4387 9.72491 72.0492 9.48699H72.048Z" fill="#FAFAFA"/>
<path d="M52.6952 14.5567L55.6426 10.84V9.2207H49.3821V11.2436H52.5035V11.2827L49.2661 15.1544V16.6175H55.7585V14.5946H52.6952V14.5555V14.5567Z" fill="#FAFAFA"/>
<path d="M42.183 9.82761C41.8883 9.60508 41.5296 9.43464 41.1106 9.31272C40.6892 9.18725 40.2134 9.12451 39.6843 9.12451C38.9492 9.12451 38.3373 9.24051 37.8449 9.47133C37.3536 9.69977 36.9796 10.004 36.7228 10.3863C36.4706 10.7639 36.3274 11.1794 36.2943 11.628H38.7409C38.774 11.3995 38.8676 11.2326 39.025 11.1225C39.186 11.0101 39.3931 10.9545 39.6452 10.9545C39.8772 10.9545 40.0666 11.0065 40.2134 11.1072C40.3614 11.2113 40.4347 11.3581 40.4347 11.5499V11.5688C40.4347 11.7097 40.3791 11.8233 40.2667 11.9109C40.1542 11.9937 39.9707 12.06 39.7186 12.1074C39.4677 12.1523 39.1351 12.1914 38.7208 12.2234C38.3396 12.2518 37.9834 12.3133 37.6531 12.4104C37.3264 12.5074 37.0388 12.6471 36.7914 12.8294C36.544 13.0129 36.3511 13.2484 36.2138 13.5384C36.0765 13.8237 36.0078 14.1693 36.0078 14.5741C36.0078 15.0654 36.1108 15.4702 36.3168 15.7874C36.5203 16.1058 36.8044 16.3425 37.1643 16.5011C37.5265 16.655 37.9443 16.732 38.4154 16.732C38.7374 16.732 39.0309 16.6929 39.2972 16.616C39.5659 16.539 39.8062 16.4159 40.0157 16.2455C40.2276 16.075 40.4075 15.8525 40.5555 15.5767H40.6135V16.6171H43.0992V11.5499C43.0992 11.2066 43.0199 10.8882 42.8624 10.5958C42.7074 10.2999 42.4837 10.043 42.1878 9.82406H42.1854L42.183 9.82761ZM40.4549 13.9989C40.4549 14.2238 40.398 14.4155 40.2856 14.5718C40.1732 14.7292 40.0276 14.8499 39.8476 14.9328C39.6713 15.0156 39.4819 15.0583 39.2795 15.0583C39.0546 15.0583 38.8699 15.0038 38.7255 14.8937C38.5823 14.7848 38.5089 14.6274 38.5089 14.4214C38.5089 14.2936 38.5385 14.1776 38.5989 14.0758C38.664 13.9693 38.7598 13.8817 38.8889 13.8107C39.0203 13.7373 39.1883 13.6852 39.3943 13.6521C39.5008 13.6367 39.6003 13.6177 39.6973 13.5988C39.7967 13.5798 39.8891 13.5585 39.9767 13.5361C40.0666 13.5147 40.1507 13.4899 40.2276 13.4638C40.3081 13.439 40.3838 13.4106 40.4549 13.3834V13.9989Z" fill="#FAFAFA"/>
<path d="M63.4523 10.1416C63.1315 9.81014 62.7444 9.5592 62.2923 9.3852C61.8389 9.2112 61.3323 9.12598 60.7748 9.12598C60.0101 9.12598 59.3473 9.28458 58.7862 9.60299C58.224 9.92022 57.7896 10.3641 57.4818 10.937C57.1741 11.5075 57.0178 12.1763 57.0178 12.9409C57.0178 13.7056 57.1693 14.4205 57.4759 14.9911C57.7837 15.5592 58.2228 15.996 58.7898 16.3014C59.3627 16.6032 60.0421 16.7535 60.8328 16.7535C61.5158 16.7535 62.1135 16.6506 62.6249 16.4446C63.1374 16.2375 63.5505 15.9451 63.8618 15.5687C64.1731 15.1911 64.3708 14.7449 64.4548 14.23H62.0271C61.975 14.3673 61.8957 14.4868 61.7868 14.5862C61.6767 14.6833 61.5454 14.7567 61.3927 14.8076C61.2412 14.8597 61.0743 14.8845 60.892 14.8845C60.6292 14.8845 60.4043 14.8313 60.2185 14.7247C60.0326 14.6182 59.8894 14.4738 59.79 14.2868C59.6894 14.1009 59.6408 13.8891 59.6408 13.6523V13.5363H64.456V12.9196C64.456 12.3325 64.3696 11.8046 64.1956 11.3359C64.0216 10.866 63.7754 10.4683 63.4546 10.1427L63.4523 10.1416ZM59.6385 12.0721C59.6444 11.8567 59.7012 11.6685 59.8065 11.5087C59.9166 11.3477 60.061 11.2223 60.2398 11.1323C60.4197 11.0388 60.6174 10.9938 60.8328 10.9938C61.0482 10.9938 61.2518 11.04 61.4258 11.1323C61.6034 11.2223 61.7418 11.3501 61.8448 11.5123C61.9502 11.6732 62.0046 11.8603 62.0094 12.0709H59.6385V12.0721Z" fill="#FAFAFA"/>
<path d="M93.6644 7.04856L91.0887 11.4128L90.9585 11.6305L91.0934 11.846L93.7638 16.2043H91.6782L90.1228 13.4487L90.0033 13.2392H89.4481L89.3333 13.4487L87.7732 16.2043H85.703L88.3426 11.8436L88.4728 11.6294L88.3473 11.4128L85.787 7.04856H87.8277L89.3274 9.74378L89.447 9.95684H90.0021L90.1216 9.74733L91.6415 7.04975H93.662M94.3876 6.63428H91.4024L89.7618 9.54138H89.6872L88.0668 6.63428H85.0615L87.991 11.6282L84.9656 16.6221H88.0112L89.6861 13.657H89.7606L91.4403 16.6221H94.5L91.4403 11.6282L94.3852 6.63428H94.3876Z" fill="#FAFAFA"/>
<path d="M79.5277 6.91141C80.103 6.91141 80.6428 6.9919 81.1174 7.15052C81.5921 7.30558 82.0075 7.53402 82.3626 7.83231C82.713 8.12231 82.9983 8.4857 83.2125 8.913C83.3676 9.22549 83.4776 9.57704 83.5475 9.96173H81.6477C81.6181 9.83035 81.5731 9.70724 81.5175 9.58769C81.4169 9.35214 81.2725 9.14618 81.0878 8.97455C80.9079 8.80055 80.683 8.66561 80.4273 8.57447C80.1823 8.48451 79.9077 8.43835 79.6023 8.43835C79.0673 8.43835 78.6021 8.57566 78.2221 8.84553C77.8517 9.11304 77.5676 9.49655 77.3723 9.98659C77.1971 10.4458 77.1119 10.9951 77.1119 11.6236C77.1119 12.2841 77.2018 12.8523 77.3817 13.3163C77.577 13.8027 77.867 14.1791 78.247 14.4348C78.6222 14.6846 79.072 14.81 79.5822 14.81C79.8722 14.81 80.1373 14.7722 80.367 14.6988H80.3717L80.3764 14.6964C80.6167 14.6147 80.8369 14.4964 81.0215 14.3449C81.2062 14.191 81.3565 14.0028 81.4713 13.7897C81.5317 13.6761 81.5814 13.5554 81.6217 13.4287L83.5368 13.4417C83.4824 13.6725 83.4019 13.9081 83.2918 14.1448C83.1119 14.5342 82.8468 14.9 82.5118 15.2338C82.1863 15.5617 81.7672 15.8304 81.2772 16.0328C80.7824 16.2364 80.1918 16.3393 79.5266 16.3393C78.6968 16.3393 77.9416 16.1571 77.2859 15.7996C76.6408 15.4469 76.1259 14.9178 75.7506 14.2289C75.3707 13.5305 75.1801 12.6546 75.1801 11.6248C75.1801 10.595 75.3754 9.71316 75.7601 9.01953C76.1448 8.32945 76.6656 7.80153 77.3155 7.44998C77.97 7.09252 78.711 6.91023 79.5254 6.91023M79.5254 6.49476C78.64 6.49476 77.8351 6.69125 77.1201 7.08423C76.4005 7.47484 75.8252 8.05129 75.405 8.81476C74.9801 9.57586 74.7646 10.5133 74.7646 11.6236C74.7646 12.7339 74.9742 13.6643 75.3896 14.4277C75.8051 15.1912 76.3744 15.7712 77.0894 16.1642C77.809 16.5571 78.6199 16.7536 79.5242 16.7536C80.2498 16.7536 80.8795 16.6412 81.4287 16.4175C81.9732 16.1926 82.4289 15.8978 82.7982 15.5297C83.1734 15.1592 83.4587 14.7556 83.6635 14.32C83.8635 13.8809 83.9831 13.45 84.0138 13.0274L81.2985 13.0085C81.263 13.2227 81.2038 13.4157 81.1079 13.5885C81.018 13.7566 80.9032 13.9022 80.7576 14.0217C80.612 14.1425 80.4427 14.2348 80.2474 14.2999C80.0474 14.3614 79.8272 14.3922 79.5822 14.3922C79.1466 14.3922 78.7773 14.2904 78.4672 14.0856C78.1618 13.8773 77.9227 13.5684 77.7617 13.1588C77.6019 12.7457 77.5214 12.2332 77.5214 11.6224C77.5214 11.0436 77.596 10.5476 77.757 10.1345C77.9168 9.72144 78.1523 9.40422 78.4624 9.18406C78.7726 8.9639 79.1525 8.85263 79.6023 8.85263C79.8568 8.85263 80.0876 8.89051 80.2877 8.96508C80.4924 9.0361 80.6629 9.14026 80.8073 9.27757C80.9529 9.41014 81.0618 9.56994 81.1423 9.75459C81.2275 9.93924 81.2772 10.1464 81.2973 10.3736H84.0127C83.963 9.75222 83.8174 9.20063 83.5723 8.72006C83.3321 8.23831 83.0172 7.83349 82.6219 7.50562C82.2265 7.17419 81.7672 6.92207 81.2417 6.74925C80.7161 6.57643 80.1468 6.49121 79.5218 6.49121V6.49358L79.5254 6.49476Z" fill="#FAFAFA"/>
</svg>