<svg width="198" height="49" viewBox="0 0 198 49" fill="none" xmlns="http://www.w3.org/2000/svg">
<path d="M40.5429 12.306C38.688 11.0694 36.3445 10.7976 34.2603 11.578L22.1562 16.103C21.8222 16.2276 21.5155 15.8661 21.69 15.5545L25.8385 8.37185C27.2222 5.98345 26.5117 2.93688 24.218 1.4086L22.1064 0L12.2785 17.3196L1.79005 6.84357L1.44351 12.1165C1.29891 14.3403 2.22884 16.5019 3.95905 17.9254L13.9265 26.1452C14.2032 26.3721 14.0387 26.8183 13.6822 26.8183H5.38511C2.62524 26.8183 0.346543 28.9499 0.164546 31.7023L0 34.2353L19.9124 34.0907L16.078 48.4136L20.8174 46.0776C22.8194 45.0903 24.223 43.2005 24.592 40.9991L26.7286 28.2544C26.7834 27.9003 27.2571 27.8156 27.4316 28.1297L31.5727 35.3123C32.9489 37.7007 35.9456 38.6107 38.4163 37.3916L40.69 36.2672L30.6104 19.0922L44.9332 15.2528L40.5404 12.3184V12.3109L40.5429 12.306ZM26.0205 26.8158H15.8387C15.5445 26.8158 15.36 26.4892 15.5121 26.2374L20.608 17.4268C20.7526 17.175 21.1241 17.175 21.2662 17.4268L26.3521 26.2449C26.4967 26.4967 26.3172 26.8158 26.0205 26.8158Z" fill="#0033FF"/>
<path d="M14.495 37.434H12.3559L11.1817 39.4908H11.1244L9.96506 37.434H7.81102L9.91021 40.9717L7.74121 44.5069H9.92517L11.1268 42.4077H11.1842L12.3859 44.5069H14.5848L12.3859 40.9717L14.5 37.434H14.495Z" fill="#060609"/>
<path d="M3.07429 39.2415C3.29867 39.0844 3.57042 39.0046 3.89203 39.0046C4.07652 39.0046 4.24107 39.032 4.38567 39.0844C4.53027 39.1343 4.65492 39.2066 4.75714 39.3063C4.85936 39.401 4.93914 39.5132 4.99897 39.6428C5.05881 39.775 5.0962 39.9196 5.10867 40.0816H7.05578C7.01839 39.6428 6.91368 39.2514 6.74165 38.9124C6.56714 38.5733 6.34026 38.2841 6.05854 38.0522C5.77433 37.8154 5.44524 37.6384 5.06878 37.5187C4.69481 37.3966 4.28345 37.3342 3.83469 37.3342C3.19895 37.3342 2.62304 37.4738 2.10697 37.7531C1.5909 38.0298 1.18203 38.4387 0.87787 38.9797C0.573711 39.5182 0.421631 40.1814 0.421631 40.9692C0.421631 41.757 0.571216 42.4152 0.867895 42.9562C1.16707 43.4972 1.57345 43.9061 2.08952 44.1853C2.60559 44.4645 3.18898 44.6016 3.83718 44.6016C4.35326 44.6016 4.8095 44.5219 5.20091 44.3648C5.59233 44.2077 5.92142 43.9983 6.18569 43.739C6.45245 43.4772 6.65938 43.1905 6.80398 42.8814C6.94858 42.5698 7.03335 42.2631 7.05828 41.9664L5.11116 41.9515C5.08623 42.1035 5.04385 42.2432 4.97654 42.3628C4.91171 42.4825 4.82695 42.5847 4.72473 42.6695C4.62002 42.7567 4.50035 42.8191 4.35824 42.8664C4.21614 42.9088 4.05907 42.9313 3.88206 42.9313C3.57042 42.9313 3.30366 42.8565 3.08427 42.7144C2.86238 42.5673 2.69534 42.3479 2.57567 42.0587C2.46099 41.767 2.40116 41.403 2.40116 40.9717C2.40116 40.5628 2.4585 40.2113 2.57069 39.9171C2.68537 39.6254 2.8549 39.401 3.07429 39.244V39.2415Z" fill="#060609"/>
<path d="M96.0445 17.387C96.8099 17.387 97.4581 17.1352 97.9941 16.6366C98.5351 16.133 98.8019 15.5322 98.8019 14.8291C98.8019 14.1261 98.5326 13.5252 97.9941 13.0241C97.4581 12.523 96.8099 12.2737 96.0445 12.2737C95.2791 12.2737 94.6384 12.5255 94.0974 13.0241C93.5564 13.5252 93.2871 14.1286 93.2871 14.8291C93.2871 15.5297 93.5589 16.133 94.0974 16.6366C94.6384 17.1377 95.2866 17.387 96.0445 17.387Z" fill="#060609"/>
<path d="M73.1851 13.8143H66.6107L60.3655 22.2136H60.0813V13.8143H54.4419V34.5894H60.0813V29.2367L61.9486 26.7984L66.6132 34.5894H73.3471L66.167 23.0662L73.1876 13.8143H73.1851Z" fill="#060609"/>
<path d="M98.8417 19.0076H93.2446V34.5895H98.8417V19.0076Z" fill="#060609"/>
<path d="M150.696 19.5684C149.885 19.0598 148.926 18.808 147.824 18.808C146.722 18.808 145.68 19.0897 144.822 19.6507C143.969 20.2116 143.376 20.987 143.037 21.9717H142.875V19.0099H137.56V34.5918H143.157V25.8286C143.164 25.3125 143.259 24.8762 143.441 24.5122C143.623 24.1382 143.885 23.8565 144.221 23.6571C144.568 23.4526 144.969 23.3529 145.428 23.3529C146.128 23.3529 146.679 23.5748 147.071 24.0136C147.472 24.4524 147.669 25.0582 147.662 25.8286V34.5918H153.259V24.6518C153.266 23.5224 153.042 22.5202 152.59 21.6401C152.144 20.7626 151.513 20.072 150.693 19.5709L150.696 19.5684Z" fill="#060609"/>
<path d="M109.936 30.2465L116.144 22.4182V19.0076H102.958V23.2683H109.532V23.3506L102.713 31.5055V34.5895H116.388V30.3288H109.936V30.2465Z" fill="#060609"/>
<path d="M87.7949 20.2864C87.1741 19.8177 86.4187 19.4587 85.5361 19.202C84.6486 18.9377 83.6488 18.8055 82.5344 18.8055C80.9862 18.8055 79.6948 19.0499 78.6576 19.536C77.623 20.0172 76.8352 20.6604 76.2942 21.4632C75.7631 22.2585 75.4615 23.1336 75.3917 24.0785H80.5449C80.6122 23.5973 80.8092 23.2458 81.1433 23.0139C81.4798 22.7771 81.9161 22.6599 82.4496 22.6599C82.9383 22.6599 83.3372 22.7696 83.6463 22.9815C83.958 23.2009 84.115 23.51 84.115 23.9139V23.9538C84.115 24.2505 83.9979 24.4898 83.761 24.6743C83.5242 24.8488 83.1377 24.9884 82.6067 25.0882C82.0782 25.1829 81.3776 25.2652 80.505 25.3325C79.7022 25.3923 78.9493 25.522 78.2537 25.7264C77.5656 25.9333 76.9598 26.225 76.4388 26.609C75.9177 26.9954 75.5138 27.4915 75.2221 28.1023C74.9329 28.7032 74.7883 29.4312 74.7883 30.2838C74.7883 31.3184 75.0052 32.1711 75.439 32.8392C75.8703 33.5099 76.4662 34.0085 77.2241 34.3426C77.987 34.6667 78.867 34.8287 79.8593 34.8287C80.5374 34.8287 81.1557 34.7465 81.7167 34.5844C82.2826 34.4224 82.7887 34.1631 83.23 33.8041C83.6763 33.4451 84.0552 32.9764 84.3668 32.3955H84.489V34.5844H89.7245V23.9114C89.7245 23.1884 89.5575 22.5178 89.2259 21.902C88.8993 21.2787 88.4281 20.7377 87.8048 20.2765H87.7998L87.7949 20.2864ZM84.1549 29.0722C84.1549 29.5459 84.0353 29.9472 83.7984 30.2763C83.5616 30.6079 83.2549 30.8622 82.876 31.0367C82.5045 31.2137 82.1056 31.301 81.6793 31.301C81.2056 31.301 80.8167 31.1863 80.5125 30.9545C80.2083 30.7251 80.0563 30.3935 80.0563 29.9597C80.0563 29.6905 80.1186 29.4461 80.2457 29.2317C80.3829 29.0073 80.5848 28.8228 80.8565 28.6733C81.1333 28.5162 81.4873 28.4065 81.9211 28.3367C82.1455 28.3043 82.3549 28.2644 82.5593 28.2245C82.7688 28.1846 82.9657 28.1397 83.1477 28.0924C83.3372 28.0475 83.5142 27.9951 83.6762 27.9403C83.8458 27.8879 84.0053 27.8281 84.1549 27.7708V29.0697V29.0722Z" fill="#060609"/>
<path d="M132.593 20.9471C131.918 20.2491 131.102 19.7205 130.15 19.354C129.195 18.9875 128.128 18.8055 126.954 18.8055C125.343 18.8055 123.947 19.1396 122.765 19.8103C121.581 20.4784 120.666 21.4133 120.018 22.62C119.367 23.8217 119.041 25.2303 119.041 26.8408C119.041 28.4514 119.36 29.9572 120.003 31.1589C120.654 32.3556 121.576 33.2755 122.77 33.9187C123.977 34.5545 125.408 34.8711 127.074 34.8711C128.512 34.8711 129.771 34.6542 130.848 34.2204C131.928 33.7841 132.798 33.1683 133.453 32.3755C134.109 31.5802 134.525 30.6403 134.702 29.5558H129.589C129.479 29.845 129.312 30.0968 129.083 30.3062C128.851 30.5107 128.574 30.6652 128.253 30.7749C127.934 30.8821 127.582 30.937 127.198 30.937C126.645 30.937 126.171 30.8248 125.78 30.6004C125.388 30.376 125.087 30.0719 124.877 29.678C124.665 29.2866 124.563 28.8403 124.563 28.3417V28.0974H134.705V26.7984C134.705 25.5619 134.523 24.4499 134.156 23.4627C133.79 22.4729 133.271 21.6352 132.596 20.9496L132.593 20.9471ZM124.56 25.0134C124.573 24.5596 124.693 24.1632 124.915 23.8267C125.146 23.4876 125.451 23.2233 125.827 23.0339C126.206 22.8369 126.622 22.7422 127.076 22.7422C127.53 22.7422 127.959 22.8394 128.325 23.0339C128.699 23.2233 128.991 23.4926 129.208 23.8341C129.43 24.1732 129.544 24.5646 129.554 25.0109H124.56V25.0134Z" fill="#060609"/>
<path d="M191.543 24.2031L197.751 13.8168H191.463L188.015 19.8626H187.853L184.445 13.8168H178.118L184.283 24.2031L177.913 34.5893H184.325L187.856 28.4239H188.018L191.548 34.5893H198L191.548 24.2031H191.543Z" fill="#0033FF"/>
<path d="M164.213 19.1322C164.869 18.6734 165.669 18.4416 166.617 18.4416C167.158 18.4416 167.639 18.5189 168.065 18.6734C168.492 18.823 168.853 19.0399 169.152 19.3241C169.456 19.6009 169.693 19.9324 169.863 20.3164C170.04 20.7028 170.147 21.1316 170.189 21.6028H175.911C175.801 20.3114 175.495 19.1646 174.986 18.1648C174.48 17.1626 173.809 16.3199 172.979 15.6393C172.149 14.9487 171.182 14.4252 170.077 14.0662C168.973 13.7072 167.769 13.5302 166.455 13.5302C164.59 13.5302 162.897 13.939 161.384 14.7568C159.868 15.567 158.666 16.7687 157.771 18.3568C156.879 19.9399 156.432 21.887 156.432 24.2006C156.432 26.5142 156.869 28.4439 157.741 30.032C158.619 31.6201 159.813 32.8243 161.321 33.6445C162.835 34.4623 164.547 34.8711 166.455 34.8711C167.975 34.8711 169.312 34.6368 170.461 34.1731C171.61 33.7044 172.575 33.0911 173.353 32.3282C174.136 31.5578 174.742 30.7176 175.168 29.8101C175.594 28.8977 175.841 28.0026 175.909 27.1226L170.187 27.0827C170.12 27.5289 169.987 27.9303 169.793 28.2918C169.603 28.6434 169.354 28.945 169.052 29.1943C168.748 29.4461 168.389 29.6381 167.978 29.7702C167.564 29.8974 167.1 29.9622 166.577 29.9622C165.664 29.9622 164.884 29.7503 164.233 29.324C163.585 28.8902 163.086 28.2494 162.742 27.3968C162.403 26.5392 162.236 25.4746 162.236 24.2006C162.236 22.9965 162.401 21.9643 162.735 21.1067C163.072 20.2466 163.568 19.5859 164.216 19.1297V19.1346L164.213 19.1322Z" fill="#0033FF"/>
</svg>
