<svg width="377" height="92" viewBox="0 0 377 92" fill="none" xmlns="http://www.w3.org/2000/svg">
<path d="M77.0118 23.3754C73.4884 21.0265 69.0369 20.5103 65.0778 21.9925L42.0861 30.5878C41.4515 30.8246 40.869 30.1379 41.2005 29.546L49.0807 15.9024C51.709 11.3656 50.3593 5.57864 46.0025 2.67566L41.9914 0L23.3233 32.8988L3.40023 12.9995L2.74197 23.0154C2.4673 27.2397 4.23371 31.3455 7.52028 34.0496L26.4536 49.6632C26.9792 50.0941 26.6667 50.9418 25.9895 50.9418H10.2291C4.98668 50.9418 0.658262 54.9908 0.312557 60.219L0 65.0305L37.8239 64.7558L30.5405 91.9623L39.543 87.525C43.3458 85.6497 46.012 82.06 46.7128 77.8784L50.7713 53.6696C50.8755 52.9971 51.7753 52.8361 52.1068 53.4328L59.9728 67.0763C62.5869 71.6131 68.2792 73.3416 72.9722 71.0259L77.2912 68.8901L58.1448 36.2659L85.3513 28.9729L77.007 23.399V23.3848L77.0118 23.3754ZM49.4264 50.9371H30.0858C29.527 50.9371 29.1766 50.3167 29.4655 49.8384L39.1452 33.1025C39.4199 32.6242 40.1255 32.6242 40.3954 33.1025L50.0562 49.8526C50.3309 50.3309 49.9899 50.9371 49.4264 50.9371Z" fill="#FAFAFA"/>
<path d="M27.5333 71.1066H23.4701L21.2396 75.0135H21.1307L18.9286 71.1066H14.8369L18.8244 77.8265L14.7043 84.5417H18.8528L21.1354 80.5543H21.2443L23.5269 84.5417H27.7038L23.5269 77.8265L27.5428 71.1066H27.5333Z" fill="#FAFAFA"/>
<path d="M5.83907 74.5397C6.26528 74.2414 6.78147 74.0898 7.39237 74.0898C7.74281 74.0898 8.05537 74.1419 8.33004 74.2414C8.60471 74.3361 8.84149 74.4734 9.03566 74.6629C9.22982 74.8428 9.3861 75.0559 9.49502 75.3022C9.60868 75.5532 9.67971 75.8279 9.70339 76.1357H13.402C13.3309 75.3022 13.132 74.5587 12.8053 73.9146C12.4738 73.2706 12.0428 72.7212 11.5077 72.2808C10.9678 71.8309 10.3427 71.4947 9.62762 71.2674C8.91726 71.0353 8.13588 70.9169 7.28345 70.9169C6.07585 70.9169 4.9819 71.1821 4.00162 71.7125C3.02133 72.2382 2.24468 73.0149 1.66692 74.0425C1.08917 75.0654 0.800293 76.3251 0.800293 77.8216C0.800293 79.3181 1.08443 80.5683 1.64798 81.5959C2.21626 82.6235 2.98818 83.4002 3.96847 83.9306C4.94876 84.461 6.05691 84.7215 7.28819 84.7215C8.26847 84.7215 9.13511 84.5699 9.87861 84.2716C10.6221 83.9732 11.2472 83.5754 11.7492 83.0829C12.2559 82.5857 12.649 82.0411 12.9237 81.4538C13.1983 80.8619 13.3593 80.2794 13.4067 79.7158L9.70812 79.6874C9.66077 79.9763 9.58026 80.2415 9.4524 80.4688C9.32927 80.6962 9.16825 80.8903 8.97409 81.0513C8.77519 81.2171 8.54788 81.3354 8.27794 81.4254C8.00801 81.5059 7.70967 81.5486 7.37343 81.5486C6.78147 81.5486 6.27475 81.4065 5.85801 81.1366C5.43653 80.8572 5.11924 80.4404 4.89193 79.8911C4.67409 79.337 4.56043 78.6456 4.56043 77.8263C4.56043 77.0497 4.66935 76.3819 4.88245 75.8231C5.1003 75.2691 5.42233 74.8428 5.83907 74.5445V74.5397Z" fill="#FAFAFA"/>
<path d="M182.438 33.543C183.887 33.543 185.123 33.0647 186.136 32.1176C187.164 31.161 187.675 30.0197 187.675 28.6842C187.675 27.3488 187.164 26.2075 186.136 25.2556C185.123 24.3037 183.887 23.8301 182.438 23.8301C180.989 23.8301 179.767 24.3084 178.739 25.2556C177.711 26.2075 177.195 27.3535 177.195 28.6842C177.195 30.0149 177.711 31.161 178.739 32.1176C179.767 33.0695 180.998 33.543 182.438 33.543Z" fill="#FAFAFA"/>
<path d="M139.016 26.7567H126.533L114.665 42.7112H114.125V26.7567H103.413V66.2191H114.125V56.0516L117.672 51.4249L126.533 66.2191H139.324L125.685 44.3355L139.021 26.7614L139.016 26.7567Z" fill="#FAFAFA"/>
<path d="M187.756 36.6211H177.124V66.2192H187.756V36.6211Z" fill="#FAFAFA"/>
<path d="M286.253 37.6867C284.714 36.7207 282.891 36.2424 280.793 36.2424C278.695 36.2424 276.73 36.7775 275.091 37.843C273.472 38.9086 272.349 40.3814 271.71 42.252H271.388V36.626H261.301V66.224H271.928V49.5781C271.947 48.5978 272.127 47.769 272.468 47.0729C272.828 46.3673 273.306 45.8274 273.95 45.4486C274.608 45.0602 275.39 44.8708 276.252 44.8708C277.592 44.8708 278.634 45.2923 279.372 46.1258C280.135 46.9592 280.514 48.11 280.495 49.5733V66.2193H291.136V47.3381C291.136 45.1928 290.714 43.2891 289.857 41.6174C289.019 39.9504 287.816 38.6386 286.258 37.6867H286.253Z" fill="#FAFAFA"/>
<path d="M208.825 57.9696L220.617 43.0995V36.6211H195.57V44.7144H208.058V44.8707L195.106 60.3611V66.2144H221.081V58.1211H208.825V57.9648V57.9696Z" fill="#FAFAFA"/>
<path d="M166.767 39.0507C165.588 38.1604 164.153 37.4785 162.477 36.9907C160.791 36.4887 158.887 36.2377 156.77 36.2377C153.829 36.2377 151.381 36.7018 149.411 37.6253C147.446 38.5393 145.949 39.7563 144.922 41.286C143.913 42.7966 143.34 44.4589 143.207 46.2537H152.996C153.129 45.3397 153.503 44.672 154.133 44.2316C154.777 43.7817 155.605 43.5591 156.614 43.5591C157.542 43.5591 158.3 43.7675 158.887 44.17C159.479 44.5868 159.773 45.174 159.773 45.9412V46.0169C159.773 46.5805 159.55 47.0351 159.1 47.3855C158.65 47.717 157.916 47.9822 156.908 48.1717C155.904 48.3516 154.573 48.5079 152.915 48.6358C151.391 48.7494 149.965 48.9957 148.644 49.384C147.337 49.7723 146.186 50.3311 145.196 51.0604C144.207 51.7945 143.435 52.7369 142.885 53.8971C142.336 55.0384 142.061 56.4212 142.061 58.0408C142.061 60.0061 142.473 61.6258 143.297 62.8949C144.112 64.1688 145.248 65.116 146.688 65.7506C148.137 66.3662 149.809 66.674 151.694 66.674C152.982 66.674 154.156 66.5177 155.222 66.2099C156.297 65.9021 157.258 65.4096 158.096 64.7276C158.944 64.0457 159.664 63.1554 160.256 62.052H160.488V66.2146H170.433V45.9412C170.433 44.5678 170.116 43.2939 169.486 42.1242C168.865 40.9403 167.97 39.9126 166.786 39.0365H166.777L166.767 39.0507ZM159.853 55.7393C159.853 56.6391 159.626 57.4063 159.176 58.0314C158.726 58.6612 158.144 59.1443 157.424 59.4758C156.718 59.8073 155.961 59.9777 155.151 59.9777C154.251 59.9777 153.512 59.7599 152.934 59.3195C152.361 58.8838 152.068 58.254 152.068 57.4299C152.068 56.9185 152.186 56.4544 152.428 56.0471C152.688 55.6209 153.072 55.2705 153.588 54.9863C154.114 54.6927 154.786 54.4843 155.61 54.3517C156.036 54.2902 156.434 54.2144 156.822 54.1386C157.22 54.0629 157.59 53.9776 157.94 53.8877C158.3 53.8024 158.636 53.7029 158.944 53.5988C159.266 53.4993 159.569 53.3857 159.853 53.2767V55.7393Z" fill="#FAFAFA"/>
<path d="M251.863 40.3056C250.579 38.9796 249.031 37.9756 247.222 37.2795C245.408 36.5833 243.381 36.2424 241.151 36.2424C238.091 36.2424 235.439 36.8769 233.195 38.1508C230.945 39.42 229.207 41.1959 227.976 43.488C226.745 45.7706 226.12 48.4462 226.12 51.5055C226.12 54.5647 226.726 57.4251 227.952 59.7077C229.184 61.9808 230.941 63.7283 233.209 64.9501C235.501 66.1577 238.219 66.7592 241.383 66.7592C244.115 66.7592 246.507 66.3472 248.553 65.5231C250.603 64.6944 252.256 63.5247 253.501 62.0187C254.747 60.508 255.538 58.7227 255.874 56.6627H246.161C245.953 57.212 245.635 57.6903 245.2 58.0881C244.759 58.4764 244.234 58.77 243.623 58.9737C243.017 59.182 242.349 59.2815 241.62 59.2815C240.568 59.2815 239.668 59.0684 238.925 58.6422C238.181 58.216 237.608 57.6382 237.211 56.89C236.808 56.1465 236.614 55.2988 236.614 54.3516V53.8876H255.879V51.4202C255.879 49.0713 255.533 46.9592 254.837 45.0839C254.141 43.2038 253.156 41.6126 251.872 40.3103L251.863 40.3056ZM236.604 48.0295C236.628 47.1676 236.855 46.4146 237.277 45.7753C237.717 45.1313 238.295 44.6293 239.01 44.2694C239.73 43.8952 240.521 43.7153 241.383 43.7153C242.245 43.7153 243.059 43.9 243.755 44.2694C244.466 44.6293 245.02 45.1407 245.432 45.7895C245.853 46.4336 246.071 47.1818 246.09 48.0248H236.604V48.0295Z" fill="#FAFAFA"/>
<path d="M372.737 27.9313L362.432 45.3918L361.911 46.2631L362.451 47.125L373.134 64.5619H364.79L358.567 53.5372L358.089 52.699H355.868L355.409 53.5372L349.167 64.5619H340.884L351.445 47.1156L351.966 46.2584L351.464 45.3918L341.221 27.9313H349.385L355.385 38.7145L355.863 39.5669H358.084L358.563 38.7287L364.643 27.936H372.727M375.63 26.2738H363.687L357.123 37.9047H356.825L350.342 26.2738H338.318L350.039 46.2537L337.934 66.2336H350.119L356.82 54.3706H357.118L363.838 66.2336H376.08L363.838 46.2537L375.621 26.2738H375.63Z" fill="#FAFAFA"/>
<path d="M316.178 27.382C318.48 27.382 320.639 27.704 322.538 28.3386C324.437 28.959 326.1 29.8729 327.52 31.0663C328.922 32.2266 330.063 33.6805 330.92 35.39C331.541 36.6403 331.981 38.0468 332.261 39.5858H324.66C324.541 39.0602 324.362 38.5677 324.139 38.0894C323.736 37.147 323.159 36.3229 322.42 35.6363C321.7 34.9401 320.8 34.4003 319.777 34.0356C318.797 33.6757 317.698 33.491 316.477 33.491C314.336 33.491 312.475 34.0404 310.955 35.1201C309.472 36.1904 308.336 37.7247 307.555 39.6853C306.854 41.5227 306.513 43.7201 306.513 46.2347C306.513 48.8773 306.873 51.1504 307.592 53.0068C308.374 54.9531 309.534 56.4591 311.054 57.482C312.555 58.4812 314.355 58.9832 316.396 58.9832C317.556 58.9832 318.617 58.8317 319.536 58.5381H319.555L319.574 58.5286C320.535 58.2018 321.416 57.7283 322.155 57.1221C322.893 56.5065 323.495 55.7535 323.954 54.9011C324.196 54.4464 324.395 53.9634 324.556 53.4567L332.218 53.5088C332 54.4322 331.678 55.3746 331.238 56.3218C330.518 57.8798 329.457 59.3431 328.117 60.6786C326.815 61.9904 325.138 63.0654 323.178 63.8752C321.198 64.6897 318.835 65.1017 316.173 65.1017C312.854 65.1017 309.832 64.3725 307.209 62.9423C304.628 61.531 302.568 59.4142 301.067 56.658C299.546 53.8639 298.784 50.3595 298.784 46.2395C298.784 42.1194 299.565 38.5913 301.105 35.8162C302.644 33.0553 304.727 30.9432 307.327 29.5367C309.946 28.1065 312.911 27.3772 316.169 27.3772M316.169 25.715C312.626 25.715 309.406 26.5011 306.546 28.0734C303.667 29.6362 301.365 31.9424 299.684 34.997C297.984 38.042 297.122 41.7927 297.122 46.2347C297.122 50.6768 297.96 54.3991 299.622 57.4536C301.284 60.5081 303.562 62.8286 306.423 64.4008C309.302 65.9731 312.546 66.7592 316.164 66.7592C319.067 66.7592 321.586 66.3093 323.784 65.4143C325.962 64.5145 327.785 63.3353 329.263 61.8625C330.764 60.3803 331.905 58.7654 332.725 57.0227C333.525 55.2657 334.003 53.5419 334.126 51.8513L323.263 51.7755C323.121 52.6327 322.884 53.4046 322.5 54.096C322.14 54.7685 321.681 55.351 321.099 55.8293C320.516 56.3123 319.839 56.6817 319.058 56.9421C318.257 57.1884 317.376 57.3115 316.396 57.3115C314.653 57.3115 313.176 56.9042 311.935 56.085C310.713 55.2515 309.757 54.0155 309.113 52.377C308.473 50.7242 308.151 48.6736 308.151 46.23C308.151 43.9143 308.45 41.93 309.094 40.2772C309.733 38.6245 310.675 37.3553 311.916 36.4745C313.157 35.5937 314.677 35.1485 316.477 35.1485C317.495 35.1485 318.418 35.3001 319.219 35.5984C320.038 35.8825 320.72 36.2993 321.298 36.8486C321.88 37.379 322.316 38.0183 322.638 38.7571C322.979 39.4959 323.178 40.3246 323.258 41.2339H334.122C333.923 38.7476 333.34 36.5408 332.36 34.6181C331.399 32.6907 330.139 31.0711 328.557 29.7593C326.976 28.4333 325.138 27.4246 323.036 26.7332C320.933 26.0418 318.655 25.7008 316.155 25.7008V25.7103L316.169 25.715Z" fill="#FAFAFA"/>
</svg>
