<svg width="1058" height="461" viewBox="0 0 1058 461" fill="none" xmlns="http://www.w3.org/2000/svg">
<path d="M198.48 304.55C194.64 304.55 190.867 305.658 187.627 307.728L167.338 287.397V242.225C178.258 239.785 185.135 228.93 182.7 217.986C180.266 207.043 169.442 200.153 158.522 202.592C147.601 205.032 140.725 215.887 143.159 226.831C144.866 234.508 150.85 240.505 158.522 242.225V289.224C158.522 290.4 158.987 291.518 159.812 292.344L181.391 313.968C175.398 323.433 178.2 335.98 187.647 341.987C197.093 347.992 209.614 345.184 215.598 335.718C221.592 326.252 218.789 313.705 209.343 307.699C206.103 305.639 202.331 304.55 198.48 304.55ZM151.442 222.428C151.442 216.082 156.572 210.941 162.906 210.941C169.239 210.941 174.369 216.082 174.369 222.428C174.369 228.774 169.239 233.915 162.906 233.915H162.877C156.563 233.887 151.452 228.726 151.471 222.399L151.442 222.428ZM198.48 336.34C192.147 336.34 187.016 331.199 187.016 324.852C187.016 318.506 192.147 313.365 198.48 313.365C204.813 313.365 209.944 318.506 209.944 324.852C209.944 331.199 204.813 336.34 198.48 336.34Z" fill="black"/>
<path d="M226.985 255.94C225.278 248.243 219.275 242.227 211.593 240.516V198.677C222.514 196.238 229.391 185.382 226.956 174.439C224.522 163.496 213.698 156.606 202.777 159.045C191.857 161.484 184.981 172.34 187.415 183.283C189.122 190.961 195.106 196.958 202.777 198.677V240.516C191.847 242.955 184.951 253.821 187.385 264.783C189.82 275.746 200.663 282.646 211.593 280.207C222.534 277.768 229.42 266.902 226.985 255.94ZM195.688 178.881C195.688 172.534 200.818 167.394 207.151 167.394C213.485 167.394 218.616 172.534 218.616 178.881C218.616 185.227 213.485 190.368 207.151 190.368H207.123C200.809 190.348 195.688 185.208 195.688 178.881ZM207.161 271.83L207.132 271.839C200.799 271.839 195.668 266.698 195.668 260.352C195.668 254.006 200.799 248.855 207.132 248.855C213.465 248.855 218.596 253.996 218.596 260.342C218.596 266.679 213.485 271.82 207.161 271.83Z" fill="black"/>
<path d="M287.865 224.197C284.015 224.197 280.252 225.305 277.012 227.375L249.265 199.57V155.166C260.185 152.727 267.062 141.871 264.627 130.928C262.193 119.984 251.36 113.094 240.439 115.543C229.518 117.982 222.642 128.838 225.076 139.781C226.783 147.459 232.777 153.455 240.439 155.176V281.877C229.499 284.317 222.612 295.182 225.047 306.145C227.481 317.108 238.324 324.007 249.255 321.568C260.185 319.129 267.081 308.263 264.647 297.301C262.94 289.604 256.936 283.588 249.255 281.877V212.049L270.747 233.586C264.724 243.032 267.479 255.588 276.906 261.624C286.333 267.659 298.854 264.899 304.886 255.453C310.909 246.006 308.155 233.45 298.728 227.414C295.479 225.315 291.715 224.207 287.865 224.197ZM233.417 135.34C233.417 128.994 238.547 123.852 244.881 123.852C251.214 123.852 256.345 128.994 256.345 135.34C256.345 141.686 251.214 146.827 244.881 146.827H244.852C238.528 146.808 233.417 141.667 233.417 135.34ZM256.315 301.606C256.315 307.952 251.185 313.093 244.852 313.093C238.519 313.093 233.388 307.943 233.388 301.597C233.388 295.25 238.519 290.109 244.852 290.109C251.185 290.109 256.315 295.26 256.315 301.606ZM287.865 255.938C281.532 255.938 276.401 250.797 276.401 244.451C276.401 238.105 281.532 232.963 287.865 232.963C294.198 232.963 299.329 238.105 299.329 244.451C299.329 250.797 294.198 255.938 287.865 255.938Z" fill="black"/>
<path d="M368.536 178.319H381.27V236.544L432.936 178.319H448.45L410.981 221.584L451.378 280.983H436.156L401.615 231.264L381.27 254.29V280.983H368.536V178.319H368.536Z" fill="black"/>
<path d="M451.903 223.499C454.879 217.731 459.049 213.258 464.417 210.079C469.782 206.903 475.929 205.312 482.858 205.312C489.687 205.312 495.738 206.731 501.007 209.566C506.276 212.403 510.423 216.509 513.448 221.886C516.472 227.264 518.082 233.571 518.278 240.805C518.278 241.882 518.18 243.592 517.985 245.938H460.026V246.965C460.22 254.298 462.464 260.165 466.759 264.564C471.051 268.964 476.661 271.164 483.59 271.164C488.956 271.164 493.518 269.822 497.275 267.131C501.03 264.443 503.544 260.703 504.813 255.912H516.961C515.497 263.538 511.838 269.771 505.984 274.611C500.129 279.451 492.958 281.871 484.469 281.871C477.052 281.871 470.564 280.282 465.002 277.104C459.441 273.928 455.123 269.429 452.049 263.611C448.976 257.795 447.439 251.122 447.439 243.592C447.439 235.965 448.926 229.269 451.903 223.499ZM505.837 235.965C505.252 229.61 502.885 224.672 498.739 221.152C494.59 217.632 489.346 215.873 483.005 215.873C477.345 215.873 472.369 217.731 468.076 221.446C463.781 225.163 461.343 230.003 460.758 235.965H505.837V235.965Z" fill="black"/>
<path d="M566.012 206.182V217.915H560.011C552.887 217.915 547.79 220.313 544.716 225.102C541.642 229.894 540.105 235.808 540.105 242.848V280.98H528.104V206.182H538.496L540.105 217.475C542.251 214.054 545.032 211.316 548.448 209.262C551.863 207.209 556.594 206.182 562.645 206.182H566.012Z" fill="black"/>
<path d="M635.959 213.526C641.47 219.003 644.229 227.605 644.229 239.338V280.991H632.227V240.072C632.227 232.349 630.494 226.457 627.031 222.399C623.566 218.343 618.565 216.312 612.029 216.312C605.004 216.312 599.49 218.758 595.49 223.645C591.488 228.536 589.489 235.184 589.489 243.592V280.991H577.488V206.192H587.88L589.489 216.313C595.147 208.979 603.343 205.313 614.078 205.313C623.153 205.312 630.445 208.051 635.959 213.526Z" fill="black"/>
<path d="M671.747 277.031C666.134 273.804 661.769 269.308 658.647 263.538C655.523 257.77 653.964 251.122 653.964 243.592C653.964 236.064 655.524 229.416 658.647 223.645C661.769 217.877 666.134 213.379 671.747 210.153C677.356 206.926 683.771 205.312 690.993 205.312C698.212 205.312 704.627 206.926 710.239 210.153C715.849 213.379 720.215 217.877 723.339 223.645C726.461 229.416 728.022 236.064 728.022 243.592C728.022 251.122 726.461 257.77 723.339 263.538C720.215 269.308 715.849 273.804 710.239 277.031C704.627 280.258 698.212 281.871 690.993 281.871C683.771 281.871 677.356 280.258 671.747 277.031ZM703.946 267.645C707.702 265.298 710.605 262.023 712.654 257.818C714.704 253.615 715.728 248.872 715.728 243.592C715.728 238.312 714.704 233.571 712.654 229.365C710.605 225.163 707.701 221.886 703.946 219.539C700.189 217.193 695.871 216.019 690.993 216.019C686.113 216.019 681.795 217.193 678.04 219.539C674.283 221.886 671.381 225.163 669.332 229.365C667.282 233.571 666.258 238.312 666.258 243.592C666.258 248.872 667.282 253.615 669.332 257.818C671.381 262.023 674.283 265.298 678.04 267.645C681.795 269.991 686.113 271.164 690.993 271.164C695.871 271.164 700.189 269.991 703.946 267.645Z" fill="black"/>
<path d="M738.401 178.319H750.403V280.983H738.401V178.319Z" fill="black"/>
<path d="M833.376 269.991V280.991H826.79C822.008 280.991 818.594 280.015 816.544 278.057C814.495 276.102 813.42 273.217 813.324 269.404C807.566 277.716 799.223 281.871 788.297 281.871C780.002 281.871 773.342 279.916 768.318 276.004C763.291 272.095 760.78 266.765 760.78 260.018C760.78 252.49 763.342 246.722 768.465 242.712C773.587 238.704 781.026 236.699 790.784 236.699H812.739V231.566C812.739 226.677 811.103 222.864 807.836 220.126C804.566 217.389 800.005 216.019 794.151 216.019C788.978 216.019 784.711 217.17 781.345 219.466C777.978 221.764 775.904 224.819 775.124 228.632H763.122C764 221.299 767.243 215.579 772.855 211.472C778.465 207.366 785.758 205.312 794.736 205.312C804.298 205.312 811.689 207.636 816.91 212.279C822.128 216.924 824.74 223.597 824.74 232.299V264.564C824.74 268.183 826.398 269.991 829.717 269.991H833.376V269.991ZM812.739 246.818H789.614C778.49 246.818 772.929 250.975 772.929 259.285C772.929 263.001 774.392 265.983 777.319 268.231C780.247 270.481 784.198 271.604 789.175 271.604C796.493 271.604 802.249 269.674 806.445 265.811C810.639 261.95 812.739 256.842 812.739 250.485V246.818V246.818Z" fill="black"/>
<path d="M897.98 209.851C903.396 212.883 907.641 217.283 910.714 223.051C913.788 228.821 915.324 235.664 915.324 243.584C915.324 251.114 913.788 257.762 910.714 263.53C907.641 269.3 903.371 273.796 897.907 277.023C892.442 280.25 886.294 281.863 879.466 281.863C873.414 281.863 868.244 280.762 863.951 278.563C859.657 276.363 856.29 273.357 853.852 269.543L852.243 280.983H841.851V178.319H853.852V218.211C860.096 209.608 868.635 205.304 879.466 205.304C886.393 205.304 892.565 206.822 897.98 209.851ZM896.225 263.457C900.762 258.323 903.03 251.701 903.03 243.584C903.03 235.469 900.762 228.844 896.225 223.711C891.687 218.578 885.709 216.011 878.295 216.011C873.513 216.011 869.244 217.161 865.488 219.458C861.731 221.756 858.829 224.983 856.78 229.138C854.731 233.294 853.706 238.01 853.706 243.291C853.706 248.669 854.731 253.484 856.78 257.737C858.829 261.99 861.731 265.29 865.488 267.637C869.244 269.983 873.513 271.156 878.295 271.156C885.709 271.156 891.687 268.59 896.225 263.457Z" fill="black"/>
</svg>
