<svg width="15" height="16" viewBox="0 0 15 16" fill="none" xmlns="http://www.w3.org/2000/svg">
<g clip-path="url(#clip0_3430_46093)">
<path d="M12.1907 8.89655C12.1907 8.57919 12.4483 8.32152 12.7657 8.32152C13.083 8.32152 13.3407 8.57919 13.3407 8.89655V12.1985C13.3407 12.6671 13.1497 13.0929 12.8413 13.4013C12.5329 13.7097 12.1071 13.9007 11.6385 13.9007H2.88971C2.42113 13.9007 1.99533 13.7097 1.68692 13.4013C1.37851 13.0929 1.1875 12.6671 1.1875 12.1985V3.38602C1.1875 2.91744 1.37851 2.49164 1.68692 2.18324C1.99533 1.87483 2.42113 1.68382 2.88971 1.68382H6.17075C6.48811 1.68382 6.74578 1.94149 6.74578 2.25885C6.74578 2.57621 6.48811 2.83388 6.17075 2.83388H2.88971C2.73849 2.83388 2.6012 2.89655 2.50072 2.99604C2.40023 3.09652 2.33855 3.23381 2.33855 3.38503V12.1975C2.33855 12.3487 2.40123 12.486 2.50072 12.5865C2.6012 12.687 2.73849 12.7487 2.88971 12.7487H11.6395C11.7907 12.7487 11.928 12.686 12.0285 12.5865C12.129 12.487 12.1907 12.3487 12.1907 12.1975V8.89655ZM12.3717 3.41289L6.56074 9.29649C6.33888 9.52232 5.97477 9.5253 5.74893 9.30345C5.5231 9.0816 5.52012 8.71748 5.74197 8.49165L11.3291 2.83388H9.00312C8.68576 2.83388 8.42809 2.57621 8.42809 2.25885C8.42809 1.94149 8.68576 1.68382 9.00312 1.68382H11.6395C12.1489 1.68382 12.8055 1.59727 13.1965 1.99223C13.4432 2.24193 13.3885 4.23265 13.3566 5.38569C13.3487 5.68415 13.3417 5.91197 13.3417 6.07513C13.3417 6.39249 13.084 6.65016 12.7667 6.65016C12.4493 6.65016 12.1916 6.39249 12.1916 6.07513C12.1916 6.04429 12.1996 5.74484 12.2105 5.35485C12.2265 4.75396 12.323 3.95807 12.3717 3.41289Z" fill="#1A1A1A" fill-opacity="0.5"/>
</g>
<defs>
<clipPath id="clip0_3430_46093">
<rect width="12.197" height="12.2248" fill="white" transform="translate(1.19141 1.67578)"/>
</clipPath>
</defs>
</svg>
