<svg width="20" height="20" viewBox="0 0 20 20" fill="none" xmlns="http://www.w3.org/2000/svg">
<g clip-path="url(#clip0_8383_47934)">
<path d="M16.7292 11.5206C16.7292 11.0852 17.0827 10.7317 17.5181 10.7317C17.9535 10.7317 18.307 11.0852 18.307 11.5206V16.0506C18.307 16.6934 18.0449 17.2776 17.6218 17.7007C17.1987 18.1238 16.6146 18.3858 15.9717 18.3858H3.96908C3.32622 18.3858 2.74206 18.1238 2.31895 17.7007C1.89584 17.2776 1.63379 16.6934 1.63379 16.0506V3.96057C1.63379 3.31772 1.89584 2.73356 2.31895 2.31045C2.74206 1.88734 3.32622 1.62528 3.96908 1.62528H8.47041C8.9058 1.62528 9.2593 1.97878 9.2593 2.41418C9.2593 2.84957 8.9058 3.20307 8.47041 3.20307H3.96908C3.76162 3.20307 3.57326 3.28906 3.43541 3.42554C3.29756 3.5634 3.21294 3.75175 3.21294 3.95921V16.0492C3.21294 16.2567 3.29893 16.445 3.43541 16.5829C3.57326 16.7207 3.76162 16.8053 3.96908 16.8053H15.9731C16.1805 16.8053 16.3689 16.7193 16.5067 16.5829C16.6446 16.4464 16.7292 16.2567 16.7292 16.0492V11.5206ZM16.9776 3.99742L9.00543 12.0692C8.70107 12.3791 8.20153 12.3832 7.8917 12.0788C7.58188 11.7744 7.57778 11.2749 7.88215 10.9651L15.5472 3.20307H12.3562C11.9208 3.20307 11.5673 2.84957 11.5673 2.41418C11.5673 1.97878 11.9208 1.62528 12.3562 1.62528H15.9731C16.6719 1.62528 17.5727 1.50654 18.1091 2.04839C18.4476 2.39097 18.3725 5.12207 18.3288 6.70395C18.3179 7.11341 18.3084 7.42597 18.3084 7.64981C18.3084 8.0852 17.9549 8.4387 17.5195 8.4387C17.0841 8.4387 16.7306 8.0852 16.7306 7.64981C16.7306 7.6075 16.7415 7.19667 16.7565 6.66164C16.7784 5.83726 16.9107 4.74537 16.9776 3.99742Z" fill="#1A1A1A"/>
</g>
<defs>
<clipPath id="clip0_8383_47934">
<rect width="16.7333" height="16.7715" fill="white" transform="translate(1.63379 1.61426)"/>
</clipPath>
</defs>
</svg>
