<svg width="30" height="30" viewBox="0 0 30 30" fill="none" xmlns="http://www.w3.org/2000/svg">
    <rect width="30" height="30" rx="15" fill="white"/>
    <rect x="0.5" y="0.5" width="29" height="29" rx="14.5" stroke="#989898" stroke-opacity="0.2"/>
    <path fill-rule="evenodd" clip-rule="evenodd" d="M19.1993 15.2507C19.2056 15.2452 19.2118 15.2395 19.2178 15.2335C19.2765 15.1748 19.3082 15.0994 19.3129 15.0227C19.3189 14.932 19.2872 14.8393 19.2179 14.77C19.2115 14.7636 19.2049 14.7575 19.1981 14.7518L12.7842 8.33787C12.6566 8.21029 12.4498 8.21029 12.3222 8.33787C12.1947 8.46544 12.1947 8.67227 12.3222 8.79984L18.5242 15.0018L12.3223 21.2036C12.1948 21.3312 12.1948 21.5381 12.3223 21.6656C12.4499 21.7932 12.6567 21.7932 12.7843 21.6656L19.1993 15.2507Z" fill="#1F1D3A"/>
</svg>
