<svg width="14" height="15" viewBox="0 0 14 15" fill="none" xmlns="http://www.w3.org/2000/svg">
<path d="M7.88002 10.5913L7.87931 8.06279L10.4042 8.06563C10.6379 8.0661 10.8622 7.97372 11.0278 7.80882C11.1933 7.64392 11.2866 7.42 11.2871 7.18632C11.2876 6.95264 11.1952 6.72834 11.0303 6.56278C10.8654 6.39721 10.6415 6.30393 10.4078 6.30345L7.87931 6.30274L7.88002 3.77286C7.88002 3.53946 7.78731 3.31563 7.62227 3.15059C7.45723 2.98555 7.2334 2.89284 7 2.89284C6.7666 2.89284 6.54277 2.98555 6.37773 3.15059C6.21269 3.31563 6.11998 3.53946 6.11998 3.77286L6.11998 6.30345L3.59578 6.30274C3.3622 6.30293 3.13825 6.3959 2.97322 6.56121C2.80818 6.72651 2.71557 6.9506 2.71576 7.18419C2.71595 7.41777 2.80892 7.64172 2.97422 7.80675C3.13952 7.97179 3.36362 8.0644 3.5972 8.06421L6.11998 8.06208L6.12069 10.592C6.12078 10.8253 6.21355 11.049 6.37859 11.2139C6.54362 11.3788 6.76741 11.4714 7.00071 11.4713C7.23401 11.4712 7.45772 11.3784 7.62262 11.2134C7.78753 11.0483 7.88012 10.8246 7.88002 10.5913Z" fill="#1A1A1A"/>
</svg>
