<svg width="22" height="20" viewBox="0 0 22 20" fill="none" xmlns="http://www.w3.org/2000/svg">
<path d="M10.5578 0.90966C10.7454 0.554085 11.2546 0.554087 11.4422 0.909659L13.9961 5.75017C14.2131 6.16153 14.6087 6.44895 15.067 6.52825L20.4598 7.46133C20.856 7.52988 21.0133 8.01419 20.7331 8.30249L16.9187 12.2272C16.5946 12.5607 16.4435 13.0258 16.5097 13.4861L17.2887 18.9033C17.3459 19.3013 16.934 19.6006 16.5732 19.4232L11.6619 17.0083C11.2445 16.803 10.7555 16.803 10.3381 17.0083L5.42681 19.4232C5.06604 19.6006 4.65405 19.3013 4.71128 18.9033L5.49032 13.4861C5.55653 13.0258 5.40543 12.5607 5.08126 12.2272L1.26686 8.30249C0.986663 8.01419 1.14403 7.52988 1.54017 7.46133L6.93296 6.52825C7.39126 6.44895 7.78685 6.16153 8.00389 5.75017L10.5578 0.90966Z" fill="white" stroke="#E1E1E1"/>
</svg>
