<svg width="60" height="61" viewBox="0 0 60 61" fill="none" xmlns="http://www.w3.org/2000/svg">
<path d="M60 30.5C60 47.0685 46.5685 60.5 30 60.5C13.4315 60.5 0 47.0685 0 30.5C0 13.9315 13.4315 0.5 30 0.5C46.5685 0.5 60 13.9315 60 30.5ZM2.8051 30.5C2.8051 45.5193 14.9807 57.6949 30 57.6949C45.0193 57.6949 57.1949 45.5193 57.1949 30.5C57.1949 15.4807 45.0193 3.3051 30 3.3051C14.9807 3.3051 2.8051 15.4807 2.8051 30.5Z" fill="#53BA69"/>
<path d="M44.3928 20.5939L25.7946 39.1922L17.3408 30.7384" stroke="#53BA69" stroke-width="3.46821" stroke-linecap="round" stroke-linejoin="round"/>
</svg>
