<svg width="42" height="42" viewBox="0 0 42 42" fill="none" xmlns="http://www.w3.org/2000/svg">
<g opacity="0.6">
<rect x="0.35" y="0.35" width="41.3" height="41.3" rx="20.65" stroke="#2C2C2C" stroke-width="0.7"/>
<path d="M21.8755 20.1237V12.832C21.8755 12.6 21.7833 12.3774 21.6192 12.2133C21.4552 12.0492 21.2326 11.957 21.0005 11.957C20.7685 11.957 20.5459 12.0492 20.3818 12.2133C20.2177 12.3774 20.1255 12.6 20.1255 12.832V20.1237H12.8339C12.6018 20.1237 12.3792 20.2159 12.2151 20.38C12.051 20.5441 11.9589 20.7666 11.9589 20.9987C11.9589 21.2308 12.051 21.4533 12.2151 21.6174C12.3792 21.7815 12.6018 21.8737 12.8339 21.8737H20.1255V29.1654C20.1286 29.3965 20.2217 29.6173 20.3852 29.7807C20.5486 29.9442 20.7694 30.0373 21.0005 30.0404C21.2326 30.0404 21.4552 29.9482 21.6192 29.7841C21.7833 29.62 21.8755 29.3974 21.8755 29.1654V21.8737H29.1672C29.3993 21.8737 29.6218 21.7815 29.7859 21.6174C29.95 21.4533 30.0422 21.2308 30.0422 20.9987C30.0392 20.7676 29.946 20.5468 29.7826 20.3833C29.6191 20.2199 29.3983 20.1267 29.1672 20.1237H21.8755Z" fill="#2C2C2C"/>
</g>
</svg>
