<svg width="126" height="24" viewBox="0 0 126 24" fill="none" xmlns="http://www.w3.org/2000/svg">
<g clip-path="url(#clip0_4036_1407)">
<rect y="0.311523" width="23.7385" height="23.7385" rx="5" fill="#021147"/>
<g clip-path="url(#clip1_4036_1407)">
<path d="M11.8764 12.2764V13.568C11.8764 11.8612 8.39813 11.266 7.73176 9.57548C7.21194 11.6231 7.68923 14.0589 9.22034 15.6491C7.14223 14.6141 6.67577 12.021 6.47585 10.5419C7.30009 9.31167 7.58015 7.96301 7.61715 7.38379C7.61715 10.1881 11.9643 10.4792 11.8764 12.2764Z" fill="white"/>
<path d="M11.8764 12.2764V13.568C11.8764 11.8612 15.3554 11.266 16.0218 9.57548C16.5416 11.6231 15.787 15.7639 11.8772 17.7056C12.6196 17.4957 13.2445 17.191 13.8034 16.7985C13.8034 16.7985 13.9216 18.0622 14.4161 18.9717C13.9389 19.9261 12.781 20.6621 11.8751 20.9456C11.5162 20.8436 10.6001 20.4126 10.1149 19.9469C10.5893 20.4135 11.4665 21.0875 11.8751 21.2747C12.1034 21.2686 13.981 20.6661 14.8178 19.0305C14.2058 18.0622 14.0793 16.5935 14.0793 16.5935C16.3842 14.8006 17.12 11.7092 17.2777 10.5419C16.4535 9.31167 16.1734 7.96301 16.1364 7.38379C16.1364 10.1881 11.7884 10.4792 11.8764 12.2764Z" fill="white"/>
<path d="M11.1727 6.66759C11.7709 6.98036 11.885 7.32583 11.8763 7.48693V8.602C11.8763 7.48939 10.5355 7.47432 9.24374 6.59778C8.16632 5.86668 7.77315 5.24125 7.60107 4.63877C7.60115 3.89738 7.59276 4.54388 7.59276 3.09375C7.59276 3.63162 8.20638 4.94878 8.77043 5.42643C9.56506 6.09936 10.2933 6.20784 11.1727 6.66759Z" fill="white"/>
<path d="M12.5807 6.66759C11.9825 6.98036 11.8675 7.32583 11.8762 7.48693V8.602C11.8762 7.48939 13.2179 7.47432 14.5096 6.59778C15.587 5.86668 15.9802 5.24125 16.1523 4.63877C16.1522 3.89738 16.1606 4.54388 16.1606 3.09375C16.1606 3.63162 15.547 4.94878 14.9829 5.42643C14.1883 6.09936 13.46 6.20784 12.5807 6.66759Z" fill="white"/>
</g>
<g clip-path="url(#clip2_4036_1407)">
<path d="M64.3904 16.9632V7.47461H66.2883V11.6832L71.0331 7.47461H73.88L68.72 12.1853L73.9986 16.9632H71.0924L66.2883 12.6915V16.9632H64.3904Z" fill="#021147"/>
<path fill-rule="evenodd" clip-rule="evenodd" d="M79.8346 7.48535V16.975H81.7325V13.1158H82.6221L87.0111 16.975H90.0953L85.7656 13.1158C85.7656 13.1158 89.4429 13.2384 89.4429 10.2136C89.4429 7.48534 85.7656 7.48535 85.7656 7.48535H79.8346ZM81.7325 9.32398V11.2219H86.2994C86.2994 11.2219 87.4263 11.1389 87.4263 10.2492C87.4263 9.35958 86.2994 9.32398 86.2994 9.32398H81.7325Z" fill="#021147"/>
<path d="M115.1 9.31807V16.915C116.137 16.915 116.976 16.0752 116.976 15.0391V9.31807H120.806V7.42578H113.149C112.104 7.42578 111.257 8.27299 111.257 9.31807H115.1Z" fill="#021147"/>
<path d="M33.7384 16.9523L41.3308 16.9522C42.3788 16.9522 43.2284 16.1027 43.2284 15.0546H36.7632L43.2284 9.35733V7.46191L35.6354 7.46192C34.5877 7.46193 33.7384 8.31124 33.7384 9.35891H40.1633L33.7384 15.0546L33.7384 16.9523Z" fill="#021147"/>
<path d="M49.0645 7.4375H56.6562C57.7044 7.4375 58.5542 8.28723 58.5542 9.33542H49.0645V7.4375Z" fill="#021147"/>
<path d="M49.0645 11.2334H58.5542V13.1313H49.0645V11.2334Z" fill="#021147"/>
<path d="M49.0645 15.0293H58.5542C58.5542 16.0775 57.7044 16.9272 56.6562 16.9272H49.0645V15.0293Z" fill="#021147"/>
<path d="M95.9315 7.4502H103.523C104.571 7.4502 105.421 8.29993 105.421 9.34812H95.9315V7.4502Z" fill="#021147"/>
<path d="M95.9315 11.2461H105.421V13.144H95.9315V11.2461Z" fill="#021147"/>
<path d="M95.9315 15.042H105.421C105.421 16.0902 104.571 16.94 103.523 16.94H95.9315V15.042Z" fill="#021147"/>
</g>
</g>
<defs>
<clipPath id="clip0_4036_1407">
<rect width="126" height="23.3779" fill="white" transform="translate(0 0.311523)"/>
</clipPath>
<clipPath id="clip1_4036_1407">
<rect width="10.8376" height="18.2019" fill="white" transform="translate(6.45045 3.08008)"/>
</clipPath>
<clipPath id="clip2_4036_1407">
<rect width="87.1141" height="9.60007" fill="white" transform="translate(33.7385 7.38086)"/>
</clipPath>
</defs>
</svg>
