<svg width="50" height="30" viewBox="0 0 50 30" fill="none" xmlns="http://www.w3.org/2000/svg">
<g clip-path="url(#clip0_4140_5680)">
<path d="M9.16332 14.5408H1.52588e-05V14.1317L6.25648 1.70063H2.9213C2.54912 1.70063 2.25074 1.8017 2.02614 2.00383C1.79835 2.20917 1.60103 2.49472 1.43419 2.86048L0.678599 4.46791H0.197333L0.322461 1.08943H9.05744V1.4985L2.79617 13.9296H6.61742C6.9864 13.9296 7.27836 13.8285 7.49333 13.6264C7.70829 13.4082 7.9008 13.1099 8.07085 12.7313L8.80237 11.1623H9.28845L9.16332 14.5408ZM13.7402 4.46791C14.4941 4.46791 15.1407 4.64438 15.6797 4.99731C16.2155 5.35024 16.6278 5.83952 16.9165 6.46517C17.2149 7.07477 17.3641 7.77902 17.3641 8.57793C17.3641 8.75439 17.3577 8.92444 17.3448 9.08807C17.332 9.23887 17.308 9.38164 17.2727 9.51639H11.8728C11.8857 10.9121 12.1135 11.9163 12.5563 12.5291C13.0118 13.1387 13.6696 13.4435 14.5294 13.4435C15.1262 13.4435 15.6107 13.3344 15.9829 13.1163C16.3518 12.8853 16.6919 12.566 17.0032 12.1585L17.2919 12.4666C16.9326 13.2109 16.4417 13.7932 15.8192 14.2136C15.2096 14.621 14.4813 14.8248 13.6343 14.8248C12.7841 14.8248 12.0365 14.621 11.3916 14.2136C10.7467 13.8093 10.2382 13.227 9.86597 12.4666C9.50663 11.6933 9.32696 10.7709 9.32696 9.69928C9.32696 8.58595 9.53711 7.64267 9.95741 6.86943C10.3873 6.0962 10.9376 5.50584 11.6082 5.09837C12.2883 4.67807 12.999 4.46791 13.7402 4.46791ZM13.6487 5.05987C13.3022 5.05987 12.9974 5.17538 12.7343 5.40638C12.4841 5.62135 12.2819 6.01438 12.1279 6.58549C11.9835 7.14055 11.8985 7.92661 11.8728 8.94369H15.0877C15.2193 7.57369 15.1711 6.58388 14.9433 5.97428C14.7155 5.36467 14.284 5.05987 13.6487 5.05987ZM21.9217 14.5408H17.7635V14.1558L18.0331 14.0547C18.4373 13.9168 18.6395 13.5831 18.6395 13.0537V2.51397C18.6395 2.24446 18.5929 2.04073 18.4999 1.90277C18.4036 1.75518 18.2352 1.6477 17.9946 1.58032L17.7635 1.4985V1.11349L20.9014 0.256836L21.1324 0.439716L21.065 3.30806V13.0537C21.065 13.5991 21.2672 13.9392 21.6714 14.074L21.9217 14.1558V14.5408ZM27.3744 14.5408H24.328L21.0795 9.45383L24.2558 6.11385C24.4098 5.96626 24.4997 5.80423 24.5253 5.62777C24.5478 5.43847 24.4451 5.31013 24.2173 5.24275L23.9334 5.16094V4.77111H26.7295V5.16094L26.2098 5.3005C25.9467 5.38392 25.7317 5.49943 25.5649 5.64702C25.398 5.78177 25.2007 5.96465 24.9729 6.19566L22.9997 8.29398L26.051 13.0345C26.2403 13.32 26.4135 13.543 26.5707 13.7034C26.7247 13.8542 26.9333 13.9842 27.1964 14.0932L27.3744 14.151V14.5408ZM32.2208 14.5408H27.7354V14.1558L28.0049 14.0547C28.2455 13.9874 28.4076 13.8719 28.491 13.7082C28.5872 13.5446 28.6354 13.328 28.6354 13.0585V7.09563C28.6225 6.79724 28.5744 6.57265 28.491 6.42185C28.4076 6.26143 28.2455 6.15395 28.0049 6.09941L27.7354 6.01759V5.65183L30.6615 4.47273L30.8781 4.69411L31.0369 6.48442V6.6288C31.2165 6.24699 31.4443 5.89406 31.7203 5.57001C31.993 5.24275 32.2914 4.97806 32.6154 4.77592C32.9395 4.57379 33.2619 4.47273 33.5828 4.47273C34.0384 4.47273 34.3801 4.60748 34.6079 4.87699C34.8325 5.14971 34.9448 5.49622 34.9448 5.91652C34.9448 6.37533 34.8325 6.72826 34.6079 6.97531C34.3801 7.20311 34.1041 7.31701 33.7801 7.31701C33.302 7.31701 32.8897 7.07317 32.5432 6.58549L32.5095 6.54699C32.3876 6.38335 32.2497 6.29512 32.0956 6.28229C31.9513 6.25341 31.8069 6.33523 31.6625 6.52773C31.5438 6.66249 31.4315 6.82451 31.3256 7.01381C31.2294 7.19028 31.1395 7.40043 31.0561 7.64427V12.9767C31.0561 13.2334 31.1042 13.4499 31.2005 13.6264C31.2935 13.79 31.454 13.9055 31.6818 13.9729L32.2208 14.1558V14.5408ZM39.4879 4.46791C40.2419 4.46791 40.8884 4.64438 41.4274 4.99731C41.9632 5.35024 42.3755 5.83952 42.6643 6.46517C42.9626 7.07477 43.1118 7.77902 43.1118 8.57793C43.1118 8.75439 43.1054 8.92444 43.0926 9.08807C43.0798 9.23887 43.0557 9.38164 43.0204 9.51639H37.6206C37.6334 10.9121 37.8612 11.9163 38.304 12.5291C38.7596 13.1387 39.4173 13.4435 40.2772 13.4435C40.8739 13.4435 41.3584 13.3344 41.7306 13.1163C42.0996 12.8853 42.4397 12.566 42.7509 12.1585L43.0396 12.4666C42.6803 13.2109 42.1894 13.7932 41.567 14.2136C40.9574 14.621 40.2291 14.8248 39.382 14.8248C38.5318 14.8248 37.7842 14.621 37.1393 14.2136C36.4944 13.8093 35.9859 13.227 35.6137 12.4666C35.2544 11.6933 35.0747 10.7709 35.0747 9.69928C35.0747 8.58595 35.2848 7.64267 35.7051 6.86943C36.1351 6.0962 36.6853 5.50584 37.3559 5.09837C38.0361 4.67807 38.7468 4.46791 39.4879 4.46791ZM39.3965 5.05987C39.05 5.05987 38.7452 5.17538 38.4821 5.40638C38.2318 5.62135 38.0297 6.01438 37.8757 6.58549C37.7313 7.14055 37.6463 7.92661 37.6206 8.94369H40.8354C40.967 7.57369 40.9189 6.58388 40.6911 5.97428C40.4633 5.36467 40.0317 5.05987 39.3965 5.05987ZM47.1352 14.8248C46.3941 14.8248 45.8085 14.621 45.3786 14.2136C44.9583 13.7932 44.7481 13.1163 44.7481 12.1826C44.7481 11.8553 44.7481 11.5489 44.7481 11.2634C44.761 10.965 44.7674 10.6201 44.7674 10.2287V5.40638H43.492V4.95881L43.9781 4.87699C44.3246 4.80961 44.6182 4.68769 44.8588 4.51123C45.1091 4.33476 45.3353 4.08932 45.5374 3.77489L46.7069 1.94608H47.2411L47.1882 4.77592H49.2335V5.40638H47.1689V12.3414C47.1689 12.8323 47.2587 13.1997 47.4384 13.4435C47.6309 13.6874 47.8651 13.8093 48.1411 13.8093C48.3785 13.8093 48.5935 13.7483 48.786 13.6264C48.9753 13.4917 49.1662 13.3152 49.3587 13.097L49.5945 13.4002C49.3667 13.8494 49.0491 14.2023 48.6416 14.459C48.2341 14.7028 47.732 14.8248 47.1352 14.8248ZM10.1547 29.4601H0.120332V28.9644L0.53422 28.8248C0.826188 28.7125 1.01389 28.5697 1.0973 28.3965C1.18072 28.2072 1.22243 27.9473 1.22243 27.6168V15.667C1.22243 15.3526 1.18072 15.1087 1.0973 14.9355C1.01389 14.7462 0.832606 14.597 0.553471 14.4879L0.120332 14.3435V13.8478H5.2795V14.3435L4.88487 14.4879C4.62177 14.597 4.4421 14.7462 4.34585 14.9355C4.26243 15.1248 4.22072 15.3846 4.22072 15.7151V28.7526H7.28157C7.75322 28.7526 8.10614 28.6179 8.34036 28.3483C8.57778 28.082 8.80077 27.697 9.00932 27.1933L9.77934 25.2345H10.3617L10.1547 29.4601ZM12.5322 29.744C11.852 29.744 11.2713 29.5274 10.79 29.0943C10.3248 28.6451 10.0922 28.0066 10.0922 27.1789C10.0922 26.5275 10.3681 25.9308 10.9199 25.3886C11.4814 24.8335 12.3589 24.426 13.5525 24.1661C13.7578 24.1116 13.992 24.0651 14.2551 24.0266C14.5278 23.972 14.7957 23.9175 15.0588 23.8629V22.4191C15.0588 21.4951 14.9578 20.8566 14.7556 20.5037C14.5535 20.1508 14.2311 19.9743 13.7883 19.9743H13.7354C13.4594 19.9743 13.238 20.077 13.0712 20.2823C12.914 20.4716 12.8113 20.7909 12.7632 21.24L12.7103 21.4999C12.675 22.0454 12.5498 22.4464 12.3349 22.7031C12.1199 22.9469 11.8504 23.0688 11.5263 23.0688C11.228 23.0688 10.9777 22.9678 10.7756 22.7657C10.5831 22.5475 10.4868 22.2683 10.4868 21.9283C10.4868 21.3732 10.6536 20.9064 10.9873 20.5278C11.3242 20.146 11.767 19.8604 12.3156 19.6711C12.8771 19.4818 13.4819 19.3872 14.13 19.3872C15.192 19.3872 16.0037 19.6791 16.5652 20.2631C17.1299 20.8438 17.4122 21.7919 17.4122 23.1074V27.6457C17.4122 28.2296 17.6561 28.5216 18.1437 28.5216H18.5576L18.7357 28.7478C18.5207 29.059 18.2817 29.3029 18.0186 29.4793C17.7555 29.6429 17.3978 29.7248 16.9454 29.7248C16.432 29.7248 16.0198 29.5884 15.7085 29.3157C15.4069 29.0301 15.2096 28.658 15.1166 28.1992C14.7316 28.658 14.3546 29.0301 13.9856 29.3157C13.6134 29.6012 13.129 29.744 12.5322 29.744ZM13.5717 28.4398C13.8124 28.4398 14.0402 28.3788 14.2551 28.2569C14.4701 28.135 14.738 27.9312 15.0588 27.6457V24.3923C14.7508 24.4469 14.4348 24.5143 14.1107 24.5945C13.5974 24.7292 13.1787 24.9811 12.8546 25.3501C12.5434 25.7158 12.3878 26.2099 12.3878 26.8324C12.3878 27.3746 12.4953 27.7821 12.7103 28.0548C12.9381 28.3114 13.2252 28.4398 13.5717 28.4398ZM21.118 28.9114L20.8485 29.7248L17.9079 29.4601V29.0702L18.086 29.0317C18.5544 28.9098 18.7886 28.5697 18.7886 28.0115V17.4332C18.7886 17.1605 18.7405 16.9504 18.6443 16.8028C18.5608 16.652 18.3988 16.5429 18.1582 16.4755L17.9272 16.4129V16.0472L20.9928 15.1761L21.2287 15.359L21.1565 18.2273V20.3641C22.0035 19.7128 22.9179 19.3872 23.8997 19.3872C24.9039 19.3872 25.7349 19.8075 26.3926 20.6481C27.0504 21.4759 27.3792 22.7576 27.3792 24.4934C27.3792 25.6452 27.2108 26.6158 26.8739 27.4051C26.5402 28.1783 26.0927 28.7606 25.5312 29.1521C24.9697 29.5467 24.3473 29.744 23.6639 29.744C23.2115 29.744 22.7575 29.6766 22.3019 29.5419C21.8591 29.4039 21.4645 29.1938 21.118 28.9114ZM22.8217 28.8489C23.2163 28.8489 23.5628 28.7189 23.8612 28.459C24.1596 28.2024 24.3938 27.7628 24.5638 27.1404C24.7307 26.5147 24.8141 25.6597 24.8141 24.5752C24.8141 23.4908 24.7355 22.6421 24.5783 22.0293C24.4243 21.4197 24.1981 20.993 23.8997 20.7491C23.6109 20.5053 23.2644 20.3834 22.8602 20.3834C22.3211 20.3834 21.7709 20.5599 21.2094 20.9128V28.3387C21.7003 28.6788 22.2377 28.8489 22.8217 28.8489ZM30.0695 29.744C29.4952 29.744 28.9754 29.6766 28.5102 29.5419C28.0546 29.3911 27.6183 29.1873 27.2012 28.9307V26.5292H27.6873L28.2215 27.689C28.4493 28.1895 28.7075 28.5617 28.9963 28.8055C29.2947 29.0494 29.6717 29.1713 30.1273 29.1713C30.6888 29.1713 31.1363 29.0366 31.47 28.767C31.8037 28.4815 31.9705 28.1013 31.9705 27.6264C31.9705 27.1933 31.8454 26.8404 31.5951 26.5677C31.3449 26.2981 30.8973 26.0479 30.2524 25.8169L29.4631 25.5329C28.7573 25.2891 28.1942 24.9217 27.7739 24.4308C27.3696 23.9303 27.1675 23.3063 27.1675 22.5587C27.1675 21.978 27.3038 21.4502 27.5766 20.9753C27.8525 20.4844 28.2535 20.0978 28.7797 19.8155C29.3059 19.5299 29.946 19.3872 30.7 19.3872C31.1909 19.3872 31.6385 19.4545 32.0427 19.5893C32.463 19.7112 32.8705 19.8877 33.2651 20.1187L33.1544 22.294H32.6876L32.1342 21.1342C31.9416 20.701 31.7443 20.4026 31.5422 20.239C31.3497 20.0625 31.0513 19.9743 30.647 19.9743C30.2139 19.9743 29.8305 20.1043 29.4968 20.3641C29.1728 20.608 29.0107 20.9529 29.0107 21.3989C29.0107 21.8192 29.1487 22.1657 29.4246 22.4384C29.7006 22.6951 30.1433 22.9389 30.7529 23.1699L31.5229 23.4346C32.3956 23.7458 33.0181 24.1597 33.3903 24.6763C33.7592 25.1928 33.9437 25.8105 33.9437 26.5292C33.9437 27.4917 33.6036 28.2713 32.9234 28.8681C32.2529 29.452 31.3016 29.744 30.0695 29.744Z" fill="#021147"/>
</g>
<defs>
<clipPath id="clip0_4140_5680">
<rect width="50" height="29.4872" fill="white" transform="translate(0 0.256836)"/>
</clipPath>
</defs>
</svg>
