<svg width="65" height="16" viewBox="0 0 65 16" fill="none" xmlns="http://www.w3.org/2000/svg">
<rect x="0.5" width="64" height="16" rx="8" fill="white"/>
<rect x="0.5" width="64" height="16" rx="8" fill="#0058CC" fill-opacity="0.2"/>
<path d="M11.604 11.096C11.0707 11.096 10.5987 10.9733 10.188 10.728C9.77733 10.4773 9.45467 10.136 9.22 9.704C8.98533 9.26667 8.868 8.76533 8.868 8.2C8.868 7.63467 8.98267 7.136 9.212 6.704C9.44667 6.26667 9.76667 5.92533 10.172 5.68C10.5827 5.42933 11.052 5.304 11.58 5.304C11.916 5.304 12.2387 5.36533 12.548 5.488C12.8573 5.60533 13.1347 5.77333 13.38 5.992C13.6253 6.20533 13.8147 6.45333 13.948 6.736L13.364 7.032C13.2573 6.808 13.1107 6.61333 12.924 6.448C12.7373 6.28267 12.5293 6.15467 12.3 6.064C12.0707 5.968 11.8307 5.92 11.58 5.92C11.1907 5.92 10.8413 6.01867 10.532 6.216C10.2227 6.408 9.98 6.67467 9.804 7.016C9.63333 7.35733 9.548 7.752 9.548 8.2C9.548 8.648 9.636 9.04533 9.812 9.392C9.988 9.73867 10.2307 10.0107 10.54 10.208C10.8547 10.4 11.2093 10.496 11.604 10.496C11.86 10.496 12.1027 10.4453 12.332 10.344C12.5613 10.2373 12.7667 10.0933 12.948 9.912C13.1347 9.73067 13.2813 9.52267 13.388 9.288L13.98 9.584C13.8413 9.87733 13.6493 10.1387 13.404 10.368C13.164 10.5973 12.8867 10.776 12.572 10.904C12.2627 11.032 11.94 11.096 11.604 11.096ZM16.5936 11.096C16.2043 11.096 15.8576 11.008 15.5536 10.832C15.255 10.6507 15.0203 10.4027 14.8496 10.088C14.679 9.77333 14.5936 9.41067 14.5936 9C14.5936 8.58933 14.6763 8.22667 14.8416 7.912C15.0123 7.59733 15.247 7.352 15.5456 7.176C15.8496 6.99467 16.1936 6.904 16.5776 6.904C16.9723 6.904 17.319 6.99467 17.6176 7.176C17.9216 7.352 18.1563 7.59733 18.3216 7.912C18.4923 8.22667 18.5776 8.58933 18.5776 9C18.5776 9.41067 18.4923 9.77333 18.3216 10.088C18.1563 10.4027 17.9243 10.6507 17.6256 10.832C17.327 11.008 16.983 11.096 16.5936 11.096ZM16.5936 10.504C16.8603 10.504 17.0923 10.44 17.2896 10.312C17.487 10.184 17.6416 10.008 17.7536 9.784C17.871 9.56 17.9296 9.29867 17.9296 9C17.9296 8.70133 17.871 8.44 17.7536 8.216C17.6416 7.992 17.4843 7.816 17.2816 7.688C17.079 7.56 16.8443 7.496 16.5776 7.496C16.3163 7.496 16.0843 7.56 15.8816 7.688C15.6843 7.816 15.527 7.992 15.4096 8.216C15.2976 8.44 15.2416 8.70133 15.2416 9C15.2416 9.29333 15.2976 9.55467 15.4096 9.784C15.527 10.008 15.687 10.184 15.8896 10.312C16.0976 10.44 16.3323 10.504 16.5936 10.504ZM19.4663 11V7H20.0663L20.0983 7.56C20.2209 7.34667 20.3783 7.184 20.5703 7.072C20.7623 6.96 20.9863 6.904 21.2423 6.904C21.5623 6.904 21.8343 6.97867 22.0583 7.128C22.2876 7.27733 22.4529 7.504 22.5543 7.808C22.6663 7.51467 22.8289 7.29067 23.0423 7.136C23.2609 6.98133 23.5196 6.904 23.8183 6.904C24.2663 6.904 24.6183 7.05333 24.8743 7.352C25.1356 7.65067 25.2636 8.104 25.2583 8.712V11H24.6183V8.952C24.6183 8.55733 24.5756 8.256 24.4903 8.048C24.4103 7.84 24.3009 7.69867 24.1623 7.624C24.0236 7.544 23.8636 7.504 23.6823 7.504C23.3676 7.504 23.1223 7.62933 22.9462 7.88C22.7703 8.12533 22.6823 8.47467 22.6823 8.928V11H22.0423V8.952C22.0423 8.55733 21.9996 8.256 21.9143 8.048C21.8343 7.84 21.7223 7.69867 21.5783 7.624C21.4396 7.544 21.2796 7.504 21.0983 7.504C20.7889 7.504 20.5463 7.62933 20.3703 7.88C20.1943 8.12533 20.1063 8.47467 20.1063 8.928V11H19.4663ZM26.3109 11V7H26.9509V11H26.3109ZM26.6389 6.072C26.5323 6.072 26.4389 6.032 26.3589 5.952C26.2789 5.872 26.2389 5.77867 26.2389 5.672C26.2389 5.56 26.2789 5.46667 26.3589 5.392C26.4389 5.312 26.5323 5.272 26.6389 5.272C26.7509 5.272 26.8443 5.312 26.9189 5.392C26.9989 5.46667 27.0389 5.56 27.0389 5.672C27.0389 5.77867 26.9989 5.872 26.9189 5.952C26.8443 6.032 26.7509 6.072 26.6389 6.072ZM28.1303 11V7H28.7303L28.7703 7.736V11H28.1303ZM30.9383 11V8.952H31.5783V11H30.9383ZM30.9383 8.952C30.9383 8.55733 30.893 8.256 30.8023 8.048C30.7116 7.84 30.5863 7.69867 30.4263 7.624C30.2663 7.544 30.085 7.504 29.8823 7.504C29.5303 7.504 29.2556 7.62933 29.0583 7.88C28.8663 8.12533 28.7703 8.47467 28.7703 8.928H28.4583C28.4583 8.50667 28.5196 8.144 28.6423 7.84C28.765 7.536 28.9436 7.304 29.1783 7.144C29.413 6.984 29.6956 6.904 30.0263 6.904C30.341 6.904 30.613 6.968 30.8423 7.096C31.077 7.21867 31.2583 7.416 31.3863 7.688C31.5196 7.96 31.5836 8.31733 31.5783 8.76V8.952H30.9383ZM34.1913 12.696C33.9353 12.696 33.7006 12.6693 33.4873 12.616C33.2793 12.568 33.1006 12.512 32.9513 12.448C32.8073 12.3893 32.7033 12.3387 32.6393 12.296L32.8793 11.776C32.9486 11.8133 33.0473 11.8587 33.1753 11.912C33.3033 11.9707 33.4526 12.0187 33.6233 12.056C33.7993 12.0987 33.9859 12.12 34.1833 12.12C34.4393 12.12 34.6686 12.0667 34.8713 11.96C35.0793 11.8587 35.2393 11.696 35.3513 11.472C35.4686 11.2533 35.5273 10.9707 35.5273 10.624V7H36.1673V10.616C36.1673 11.0747 36.0819 11.4587 35.9113 11.768C35.7406 12.0773 35.5059 12.3093 35.2073 12.464C34.9086 12.6187 34.5699 12.696 34.1913 12.696ZM34.1673 10.968C33.8099 10.968 33.4953 10.8827 33.2233 10.712C32.9513 10.5413 32.7379 10.304 32.5833 10C32.4339 9.69067 32.3593 9.33867 32.3593 8.944C32.3593 8.53867 32.4339 8.184 32.5833 7.88C32.7379 7.57067 32.9513 7.33067 33.2233 7.16C33.4953 6.98933 33.8099 6.904 34.1673 6.904C34.5033 6.904 34.7966 6.98933 35.0473 7.16C35.2979 7.33067 35.4926 7.57067 35.6313 7.88C35.7753 8.184 35.8473 8.53867 35.8473 8.944C35.8473 9.344 35.7753 9.696 35.6313 10C35.4926 10.304 35.2979 10.5413 35.0473 10.712C34.7966 10.8827 34.5033 10.968 34.1673 10.968ZM34.3193 10.416C34.5539 10.416 34.7619 10.352 34.9433 10.224C35.1246 10.096 35.2659 9.92267 35.3673 9.704C35.4686 9.48 35.5193 9.22133 35.5193 8.928C35.5193 8.64533 35.4659 8.39467 35.3593 8.176C35.2579 7.952 35.1166 7.77867 34.9353 7.656C34.7593 7.528 34.5513 7.464 34.3113 7.464C34.0606 7.464 33.8366 7.528 33.6393 7.656C33.4473 7.77867 33.2953 7.952 33.1833 8.176C33.0766 8.39467 33.0233 8.64533 33.0233 8.928C33.0233 9.22133 33.0793 9.48 33.1913 9.704C33.3033 9.92267 33.4553 10.096 33.6473 10.224C33.8446 10.352 34.0686 10.416 34.3193 10.416ZM40.6631 11.096C40.3698 11.096 40.1138 11.0533 39.8951 10.968C39.6765 10.8773 39.4925 10.76 39.3431 10.616C39.1991 10.472 39.0951 10.3147 39.0311 10.144L39.5911 9.912C39.6818 10.0933 39.8178 10.24 39.9991 10.352C40.1805 10.464 40.3805 10.52 40.5991 10.52C40.8498 10.52 41.0605 10.472 41.2311 10.376C41.4018 10.2747 41.4871 10.1333 41.4871 9.952C41.4871 9.78667 41.4231 9.65333 41.2951 9.552C41.1725 9.45067 40.9885 9.368 40.7431 9.304L40.3591 9.2C39.9965 9.104 39.7138 8.96 39.5111 8.768C39.3085 8.57067 39.2071 8.34933 39.2071 8.104C39.2071 7.72533 39.3298 7.432 39.5751 7.224C39.8258 7.01067 40.1965 6.904 40.6871 6.904C40.9218 6.904 41.1351 6.93867 41.3271 7.008C41.5191 7.07733 41.6845 7.176 41.8231 7.304C41.9618 7.42667 42.0631 7.57333 42.1271 7.744L41.5671 7.992C41.4978 7.81067 41.3831 7.68 41.2231 7.6C41.0631 7.52 40.8685 7.48 40.6391 7.48C40.3938 7.48 40.2018 7.53333 40.0631 7.64C39.9245 7.74133 39.8551 7.88533 39.8551 8.072C39.8551 8.17867 39.9111 8.28 40.0231 8.376C40.1405 8.46667 40.3111 8.54133 40.5351 8.6L40.9351 8.704C41.1965 8.768 41.4151 8.864 41.5911 8.992C41.7671 9.11467 41.9005 9.256 41.9911 9.416C42.0818 9.576 42.1271 9.74667 42.1271 9.928C42.1271 10.168 42.0631 10.376 41.9351 10.552C41.8071 10.728 41.6338 10.864 41.4151 10.96C41.1965 11.0507 40.9458 11.096 40.6631 11.096ZM44.7577 11.096C44.3684 11.096 44.0217 11.008 43.7177 10.832C43.419 10.6507 43.1844 10.4027 43.0137 10.088C42.843 9.77333 42.7577 9.41067 42.7577 9C42.7577 8.58933 42.8404 8.22667 43.0057 7.912C43.1764 7.59733 43.411 7.352 43.7097 7.176C44.0137 6.99467 44.3577 6.904 44.7417 6.904C45.1364 6.904 45.483 6.99467 45.7817 7.176C46.0857 7.352 46.3204 7.59733 46.4857 7.912C46.6564 8.22667 46.7417 8.58933 46.7417 9C46.7417 9.41067 46.6564 9.77333 46.4857 10.088C46.3204 10.4027 46.0884 10.6507 45.7897 10.832C45.491 11.008 45.147 11.096 44.7577 11.096ZM44.7577 10.504C45.0244 10.504 45.2564 10.44 45.4537 10.312C45.651 10.184 45.8057 10.008 45.9177 9.784C46.035 9.56 46.0937 9.29867 46.0937 9C46.0937 8.70133 46.035 8.44 45.9177 8.216C45.8057 7.992 45.6484 7.816 45.4457 7.688C45.243 7.56 45.0084 7.496 44.7417 7.496C44.4804 7.496 44.2484 7.56 44.0457 7.688C43.8484 7.816 43.691 7.992 43.5737 8.216C43.4617 8.44 43.4057 8.70133 43.4057 9C43.4057 9.29333 43.4617 9.55467 43.5737 9.784C43.691 10.008 43.851 10.184 44.0537 10.312C44.2617 10.44 44.4964 10.504 44.7577 10.504ZM49.3983 11.096C49.009 11.096 48.6623 11.008 48.3583 10.832C48.0596 10.6507 47.825 10.4027 47.6543 10.088C47.4836 9.77333 47.3983 9.41067 47.3983 9C47.3983 8.58933 47.481 8.22667 47.6463 7.912C47.817 7.59733 48.0516 7.352 48.3503 7.176C48.6543 6.99467 48.9983 6.904 49.3823 6.904C49.777 6.904 50.1236 6.99467 50.4223 7.176C50.7263 7.352 50.961 7.59733 51.1263 7.912C51.297 8.22667 51.3823 8.58933 51.3823 9C51.3823 9.41067 51.297 9.77333 51.1263 10.088C50.961 10.4027 50.729 10.6507 50.4303 10.832C50.1316 11.008 49.7876 11.096 49.3983 11.096ZM49.3983 10.504C49.665 10.504 49.897 10.44 50.0943 10.312C50.2916 10.184 50.4463 10.008 50.5583 9.784C50.6756 9.56 50.7343 9.29867 50.7343 9C50.7343 8.70133 50.6756 8.44 50.5583 8.216C50.4463 7.992 50.289 7.816 50.0863 7.688C49.8836 7.56 49.649 7.496 49.3823 7.496C49.121 7.496 48.889 7.56 48.6863 7.688C48.489 7.816 48.3316 7.992 48.2143 8.216C48.1023 8.44 48.0463 8.70133 48.0463 9C48.0463 9.29333 48.1023 9.55467 48.2143 9.784C48.3316 10.008 48.4916 10.184 48.6943 10.312C48.9023 10.44 49.137 10.504 49.3983 10.504ZM52.2709 11V7H52.8709L52.9109 7.736V11H52.2709ZM55.0789 11V8.952H55.7189V11H55.0789ZM55.0789 8.952C55.0789 8.55733 55.0336 8.256 54.9429 8.048C54.8523 7.84 54.7269 7.69867 54.5669 7.624C54.4069 7.544 54.2256 7.504 54.0229 7.504C53.6709 7.504 53.3963 7.62933 53.1989 7.88C53.0069 8.12533 52.9109 8.47467 52.9109 8.928H52.5989C52.5989 8.50667 52.6603 8.144 52.7829 7.84C52.9056 7.536 53.0843 7.304 53.3189 7.144C53.5536 6.984 53.8363 6.904 54.1669 6.904C54.4816 6.904 54.7536 6.968 54.9829 7.096C55.2176 7.21867 55.3989 7.416 55.5269 7.688C55.6603 7.96 55.7243 8.31733 55.7189 8.76V8.952H55.0789Z" fill="#0058CC"/>
</svg>
