<svg width="42" height="42" viewBox="0 0 42 42" fill="none" xmlns="http://www.w3.org/2000/svg">
<circle cx="21" cy="21" r="21" transform="rotate(-180 21 21)" fill="#DEE2DA"/>
<path d="M12.8954 16.5423C13.0679 16.3697 13.3041 16.2607 13.5766 16.2607C14.1034 16.2607 14.5393 16.6967 14.5393 17.2235L14.5393 27.2872L24.6031 27.2872C25.1299 27.2872 25.5658 27.7232 25.5658 28.25C25.5658 28.7768 25.1299 29.2128 24.6031 29.2128L13.5766 29.2128C13.0498 29.2128 12.6138 28.7768 12.6138 28.25L12.6138 17.2235C12.6138 16.951 12.7228 16.7149 12.8954 16.5423Z" fill="#1A1A1A"/>
<path d="M13.0489 27.4176L28.3353 12.1313C28.7077 11.7589 29.3253 11.7589 29.6977 12.1313C30.0701 12.5037 30.0701 13.1213 29.6977 13.4937L14.4114 28.7801C14.039 29.1524 13.4213 29.1524 13.0489 28.7801C12.6765 28.4077 12.6765 27.79 13.0489 27.4176Z" fill="#1A1A1A"/>
</svg>
