<svg width="13" height="14" viewBox="0 0 13 14" fill="none" xmlns="http://www.w3.org/2000/svg">
<path d="M1 13.1367H11.5201" stroke="white" stroke-width="1.31501" stroke-linecap="round"/>
<path d="M6.91922 0.863281C6.91922 0.500151 6.62485 0.205776 6.26172 0.205776C5.89859 0.205776 5.60421 0.500151 5.60421 0.863281L6.91922 0.863281ZM5.79679 10.0949C6.05356 10.3517 6.46987 10.3517 6.72665 10.0949L10.911 5.91061C11.1678 5.65384 11.1678 5.23753 10.911 4.98076C10.6542 4.72398 10.2379 4.72398 9.98113 4.98076L6.26172 8.70017L2.54231 4.98076C2.28553 4.72398 1.86922 4.72398 1.61245 4.98076C1.35568 5.23753 1.35568 5.65384 1.61245 5.91061L5.79679 10.0949ZM5.60421 0.863281L5.60421 9.63002L6.91922 9.63002L6.91922 0.863281L5.60421 0.863281Z" fill="white"/>
</svg>