<svg width="42" height="42" viewBox="0 0 42 42" fill="none" xmlns="http://www.w3.org/2000/svg">
<ellipse cx="21" cy="21" rx="21" ry="21" transform="rotate(-180 21 21)" fill="#DEE2DA"/>
<path d="M12.5412 23.6438C12.5412 23.3997 12.6312 23.1556 12.8238 22.963C13.1963 22.5905 13.8129 22.5905 14.1854 22.963L21.3015 30.0791L28.4176 22.963C28.7901 22.5905 29.4067 22.5905 29.7792 22.963C30.1517 23.3355 30.1517 23.952 29.7792 24.3245L21.9823 32.1215C21.6098 32.494 20.9933 32.494 20.6207 32.1215L12.8238 24.3245C12.6312 24.1319 12.5412 23.8878 12.5412 23.6438Z" fill="#1A1A1A"/>
<path d="M20.3399 31.2261L20.3399 9.60791C20.3399 9.08126 20.7766 8.64453 21.3032 8.64453C21.8299 8.64453 22.2666 9.08126 22.2666 9.60791L22.2666 31.2261C22.2666 31.7527 21.8299 32.1894 21.3032 32.1894C20.7766 32.1894 20.3399 31.7527 20.3399 31.2261Z" fill="#1A1A1A"/>
</svg>
