<svg width="42" height="42" viewBox="0 0 42 42" fill="none" xmlns="http://www.w3.org/2000/svg">
<circle cx="21" cy="21" r="21" transform="rotate(-180 21 21)" fill="#DEE2DA"/>
<path d="M8.29289 20.2929C7.90237 20.6834 7.90237 21.3166 8.29289 21.7071L14.6569 28.0711C15.0474 28.4616 15.6805 28.4616 16.0711 28.0711C16.4616 27.6805 16.4616 27.0474 16.0711 26.6569L10.4142 21L16.0711 15.3431C16.4616 14.9526 16.4616 14.3195 16.0711 13.9289C15.6805 13.5384 15.0474 13.5384 14.6569 13.9289L8.29289 20.2929ZM34.7071 21.7071C35.0976 21.3166 35.0976 20.6834 34.7071 20.2929L28.3431 13.9289C27.9526 13.5384 27.3195 13.5384 26.9289 13.9289C26.5384 14.3195 26.5384 14.9526 26.9289 15.3431L32.5858 21L26.9289 26.6569C26.5384 27.0474 26.5384 27.6805 26.9289 28.0711C27.3195 28.4616 27.9526 28.4616 28.3431 28.0711L34.7071 21.7071ZM9 22H34V20H9V22Z" fill="#1A1A1A"/>
</svg>
