<svg width="14" height="14" viewBox="0 0 14 14" fill="none" xmlns="http://www.w3.org/2000/svg">
<path fill-rule="evenodd" clip-rule="evenodd" d="M14 7C14 10.866 10.866 14 7 14C3.13401 14 0 10.866 0 7C0 3.13401 3.13401 0 7 0C10.866 0 14 3.13401 14 7ZM4.21119 9.47217C3.93262 9.19359 3.93262 8.74194 4.21119 8.46337L5.83728 6.83728L4.5044 5.5044C4.22583 5.22583 4.22583 4.77417 4.5044 4.4956C4.78297 4.21703 5.23462 4.21703 5.51319 4.4956L6.84607 5.82848L8.17895 4.4956C8.45753 4.21703 8.90918 4.21703 9.18775 4.4956C9.46632 4.77417 9.46632 5.22583 9.18775 5.5044L7.85487 6.83728L9.48096 8.46337C9.75953 8.74194 9.75953 9.19359 9.48096 9.47217C9.20239 9.75074 8.75074 9.75074 8.47217 9.47217L6.84607 7.84607L5.21998 9.47217C4.94141 9.75074 4.48976 9.75074 4.21119 9.47217Z" fill="#1A1A1A"/>
</svg>
