<svg width="16" height="16" viewBox="0 0 16 16" fill="none" xmlns="http://www.w3.org/2000/svg">
<path d="M14.9148 14.2868L14.9147 14.2867L12.8587 12.2349C13.922 11.0264 14.5679 9.44144 14.5679 7.70859C14.5679 3.92631 11.4916 0.85 7.70928 0.85C3.92702 0.85 0.85 3.92629 0.85 7.70859C0.85 11.4909 3.927 14.5679 7.70928 14.5679C9.27874 14.5679 10.7269 14.0379 11.8838 13.1477L13.9726 15.2307L13.9728 15.2309C14.1032 15.3604 14.2739 15.4253 14.4436 15.4253C14.6136 15.4253 14.7856 15.3607 14.9159 15.2288C15.1762 14.9681 15.1749 14.5468 14.9148 14.2868ZM2.18336 7.70859C2.18336 4.66174 4.66239 2.18336 7.70928 2.18336C10.7555 2.18336 13.2345 4.66173 13.2345 7.70859C13.2345 10.7555 10.7554 13.2345 7.70928 13.2345C4.66241 13.2345 2.18336 10.7555 2.18336 7.70859Z" fill="#445374" stroke="#445374" stroke-width="0.3"/>
</svg>