<svg width="42" height="42" viewBox="0 0 42 42" fill="none" xmlns="http://www.w3.org/2000/svg">
<circle cx="21" cy="21" r="21" transform="rotate(-180 21 21)" fill="#DEE2DA"/>
<path d="M29.6984 24.5202C29.5258 24.6928 29.2897 24.8018 29.0172 24.8018C28.4904 24.8018 28.0544 24.3658 28.0544 23.839L28.0544 13.7753L17.9907 13.7753C17.4639 13.7753 17.0279 13.3393 17.0279 12.8125C17.0279 12.2857 17.4639 11.8497 17.9907 11.8497L29.0172 11.8497C29.544 11.8497 29.98 12.2857 29.98 12.8125L29.98 23.839C29.98 24.1115 29.871 24.3476 29.6984 24.5202Z" fill="#1A1A1A"/>
<path d="M29.5448 13.6449L14.2585 28.9312C13.8861 29.3036 13.2684 29.3036 12.8961 28.9312C12.5237 28.5588 12.5237 27.9412 12.8961 27.5688L28.1824 12.2824C28.5548 11.91 29.1724 11.91 29.5448 12.2824C29.9172 12.6548 29.9172 13.2725 29.5448 13.6449Z" fill="#1A1A1A"/>
</svg>
