<svg width="40" height="40" viewBox="0 0 40 40" fill="none" xmlns="http://www.w3.org/2000/svg">
<circle cx="20" cy="20" r="20" fill="#DEE2DA"/>
<path d="M16.8545 19.4585V22.5835M15.292 21.021H18.417" stroke="#1A1A1A" stroke-width="1.5625" stroke-linecap="round"/>
<path d="M30.8327 26.1005L29.7027 21.396C29.0638 18.7367 28.7445 17.407 27.8385 16.535C27.6092 16.3143 27.3558 16.1186 27.0828 15.9516C26.0039 15.2915 24.6008 15.2915 21.7947 15.2915H19.2047C16.3985 15.2915 14.9954 15.2915 13.9166 15.9516C13.6436 16.1186 13.3902 16.3143 13.1609 16.535C12.2549 17.407 11.9355 18.7367 11.2967 21.396L10.1666 26.1005C9.7694 27.7543 10.8254 29.4082 12.5248 29.7941C13.958 30.1195 15.4322 29.4388 16.0795 28.1525L16.2128 27.8876C16.8072 26.7067 18.0405 25.9581 19.3918 25.9581H21.6076C22.9588 25.9581 24.1922 26.7067 24.7865 27.8876L24.9199 28.1525C25.5672 29.4388 27.0413 30.1195 28.4746 29.7941C30.1739 29.4082 31.23 27.7543 30.8327 26.1005Z" stroke="#1A1A1A" stroke-width="1.5625"/>
<path d="M20.5 15.2917V14.25C20.5 13.6747 20.9664 13.2083 21.5417 13.2083H22.5833C23.1586 13.2083 23.625 12.742 23.625 12.1667V11.125" stroke="#1A1A1A" stroke-width="1.5625" stroke-linecap="round"/>
<path d="M24.6663 19.4582C24.6663 20.0335 24.2 20.4998 23.6247 20.4998C23.0494 20.4998 22.583 20.0335 22.583 19.4582C22.583 18.8829 23.0494 18.4165 23.6247 18.4165C24.2 18.4165 24.6663 18.8829 24.6663 19.4582Z" fill="#1A1A1A"/>
<path d="M26.7503 22.5832C26.7503 23.1585 26.284 23.6248 25.7087 23.6248C25.1333 23.6248 24.667 23.1585 24.667 22.5832C24.667 22.0079 25.1333 21.5415 25.7087 21.5415C26.284 21.5415 26.7503 22.0079 26.7503 22.5832Z" fill="#1A1A1A"/>
</svg>
