<svg width="40" height="40" viewBox="0 0 40 40" fill="none" xmlns="http://www.w3.org/2000/svg">
<circle cx="20" cy="20" r="20" fill="#DEE2DA"/>
<path d="M22.2455 13.0002C20.9386 13.5384 19.3242 12.4621 19.3242 12.4621C19.3242 12.4621 19.8624 10.6171 21.1692 10.1558C22.4761 9.69454 24.0905 10.6939 24.0905 10.6939C24.0905 10.6939 23.5524 12.4621 22.2455 13.0002Z" stroke="#1A1A1A" stroke-width="1.57502" stroke-miterlimit="10" stroke-linecap="round" stroke-linejoin="round"/>
<path d="M24.4749 14.6899C23.3217 14.4592 22.0917 14.7667 21.1692 15.3817C20.3236 15.9199 19.2473 15.9199 18.4785 15.3817C17.4792 14.7667 16.2491 14.4592 15.096 14.6899C12.2516 15.1511 10.2528 18.1493 10.6372 21.3781C11.0216 24.6069 14.1735 30.3726 17.0179 29.9113C17.4023 29.8345 17.7867 29.6807 18.0942 29.4501C19.0936 28.7582 20.4773 28.7582 21.4767 29.4501C21.7842 29.6807 22.1686 29.8345 22.553 29.9113C25.3974 30.3726 28.5493 24.6069 28.9337 21.3781C29.395 18.1493 27.3962 15.1511 24.4749 14.6899Z" stroke="#1A1A1A" stroke-width="1.57502" stroke-miterlimit="10" stroke-linecap="round" stroke-linejoin="round"/>
<path d="M16.7139 10L17.0214 10.2306C18.7895 11.5375 19.7889 13.6132 19.7889 15.7657" stroke="#1A1A1A" stroke-width="1.57502" stroke-miterlimit="10" stroke-linecap="round" stroke-linejoin="round"/>
</svg>
