<svg width="40" height="40" viewBox="0 0 40 40" fill="none" xmlns="http://www.w3.org/2000/svg">
<circle cx="20" cy="20" r="20" fill="#DEE2DA"/>
<path d="M10.1562 21.875L10.1562 18.125L8.59375 18.125L8.59375 21.875L10.1562 21.875ZM15.625 22.3437L10.625 22.3437L10.625 23.9062L15.625 23.9062L15.625 22.3437ZM17.6562 29.375L17.6562 24.375L16.0937 24.375L16.0937 29.375L17.6562 29.375ZM21.875 29.8437L18.125 29.8437L18.125 31.4062L21.875 31.4062L21.875 29.8437ZM22.3438 24.375L22.3438 29.375L23.9063 29.375L23.9063 24.375L22.3438 24.375ZM29.375 22.3437L24.375 22.3437L24.375 23.9062L29.375 23.9062L29.375 22.3437ZM29.8437 18.125L29.8437 21.875L31.4062 21.875L31.4062 18.125L29.8437 18.125ZM24.375 17.6562L29.375 17.6562L29.375 16.0937L24.375 16.0937L24.375 17.6562ZM22.3438 10.625L22.3438 15.625L23.9063 15.625L23.9063 10.625L22.3438 10.625ZM18.125 10.1562L21.875 10.1562L21.875 8.59375L18.125 8.59375L18.125 10.1562ZM17.6562 15.625L17.6562 10.625L16.0937 10.625L16.0937 15.625L17.6562 15.625ZM10.625 17.6562L15.625 17.6562L15.625 16.0937L10.625 16.0937L10.625 17.6562ZM16.0937 15.625C16.0937 15.8839 15.8839 16.0937 15.625 16.0937L15.625 17.6562C16.7468 17.6562 17.6562 16.7468 17.6562 15.625L16.0937 15.625ZM18.125 8.59375C17.0032 8.59375 16.0937 9.50317 16.0937 10.625L17.6562 10.625C17.6562 10.3661 17.8661 10.1562 18.125 10.1562L18.125 8.59375ZM23.9063 10.625C23.9063 9.50317 22.9968 8.59375 21.875 8.59375L21.875 10.1562C22.1339 10.1562 22.3438 10.3661 22.3438 10.625L23.9063 10.625ZM24.375 16.0937C24.1161 16.0937 23.9063 15.8839 23.9063 15.625L22.3438 15.625C22.3438 16.7468 23.2532 17.6562 24.375 17.6562L24.375 16.0937ZM31.4062 18.125C31.4062 17.0032 30.4968 16.0937 29.375 16.0937L29.375 17.6562C29.6339 17.6562 29.8437 17.8661 29.8437 18.125L31.4062 18.125ZM29.375 23.9062C30.4968 23.9062 31.4062 22.9968 31.4062 21.875L29.8437 21.875C29.8437 22.1339 29.6339 22.3437 29.375 22.3437L29.375 23.9062ZM23.9063 24.375C23.9063 24.1161 24.1161 23.9062 24.375 23.9062L24.375 22.3437C23.2532 22.3437 22.3438 23.2532 22.3438 24.375L23.9063 24.375ZM21.875 31.4062C22.9968 31.4062 23.9063 30.4968 23.9063 29.375L22.3438 29.375C22.3438 29.6339 22.1339 29.8437 21.875 29.8437L21.875 31.4062ZM16.0937 29.375C16.0937 30.4968 17.0032 31.4062 18.125 31.4062L18.125 29.8437C17.8661 29.8437 17.6562 29.6339 17.6562 29.375L16.0937 29.375ZM15.625 23.9062C15.8839 23.9062 16.0937 24.1161 16.0937 24.375L17.6562 24.375C17.6562 23.2532 16.7468 22.3437 15.625 22.3437L15.625 23.9062ZM10.1562 18.125C10.1562 17.8661 10.3661 17.6562 10.625 17.6562L10.625 16.0937C9.50317 16.0937 8.59375 17.0032 8.59375 18.125L10.1562 18.125ZM8.59375 21.875C8.59375 22.9968 9.50317 23.9062 10.625 23.9062L10.625 22.3437C10.3661 22.3437 10.1562 22.1339 10.1562 21.875L8.59375 21.875Z" fill="#1A1A1A"/>
</svg>
