<svg width="40" height="40" viewBox="0 0 40 40" fill="none" xmlns="http://www.w3.org/2000/svg">
<circle cx="20" cy="20" r="20" fill="#DEE2DA"/>
<path d="M17.4798 10.8973C17.3072 11.0699 17.1982 11.306 17.1982 11.5785C17.1982 12.1053 17.6342 12.5413 18.161 12.5413L28.2247 12.5413L28.2247 22.605C28.2247 23.1318 28.6607 23.5678 29.1875 23.5678C29.7143 23.5678 30.1503 23.1318 30.1503 22.605L30.1503 11.5785C30.1503 11.0517 29.7143 10.6157 29.1875 10.6157L18.161 10.6157C17.8885 10.6157 17.6524 10.7247 17.4798 10.8973Z" fill="#1A1A1A"/>
<path d="M28.3551 11.0509L13.0688 26.3372C12.6964 26.7096 12.6964 27.3273 13.0688 27.6996C13.4412 28.072 14.0588 28.072 14.4312 27.6996L29.7176 12.4133C30.09 12.0409 30.09 11.4233 29.7176 11.0509C29.3452 10.6785 28.7275 10.6785 28.3551 11.0509Z" fill="#1A1A1A"/>
</svg>
