<svg width="40" height="40" viewBox="0 0 40 40" fill="none" xmlns="http://www.w3.org/2000/svg">
<circle cx="20" cy="20" r="20" fill="#DEE2DA"/>
<path d="M10.3522 17.0454V17.0314C10.3522 15.6424 10.7635 14.2845 11.5344 13.1291C12.3052 11.9736 13.401 11.0724 14.6835 10.539C15.966 10.0057 17.3777 9.86413 18.7405 10.1322C20.1034 10.4003 21.3563 11.066 22.3412 12.0454C23.1162 11.6629 23.9817 11.5021 24.8423 11.5807C25.7029 11.6594 26.5251 11.9744 27.2179 12.4909C27.9107 13.0075 28.4472 13.7055 28.7681 14.5079C29.0891 15.3103 29.182 16.1857 29.0365 17.0376C29.2504 17.0574 29.4578 17.1211 29.6459 17.2247C29.834 17.3283 29.9987 17.4695 30.1298 17.6396C30.2608 17.8097 30.3554 18.005 30.4077 18.2132C30.4599 18.4215 30.4687 18.6383 30.4334 18.8501C29.7272 23.0985 27.9803 25.7876 25.1959 26.9189L25.1959 27.9689C25.1959 28.5905 24.949 29.1866 24.5095 29.6261C24.0699 30.0657 23.4738 30.3126 22.8522 30.3126L16.6022 30.3126C15.9806 30.3126 15.3844 30.0657 14.9449 29.6261C14.5054 29.1866 14.2584 28.5905 14.2584 27.9689L14.2584 26.9189C11.474 25.7876 9.72717 23.0985 9.02092 18.8501C8.98684 18.6439 8.99446 18.433 9.04334 18.2298C9.09221 18.0266 9.18135 17.8353 9.30548 17.6672C9.4296 17.4991 9.58619 17.3576 9.76598 17.251C9.94577 17.1445 10.1451 17.0751 10.3522 17.047V17.0454ZM11.9147 17.0314H13.4772C13.4772 15.9954 13.8887 15.0018 14.6213 14.2692C15.3539 13.5367 16.3474 13.1251 17.3834 13.1251C18.4194 13.1251 19.413 13.5367 20.1456 14.2692C20.8781 15.0018 21.2897 15.9954 21.2897 17.0314L22.8522 17.0314C22.8522 15.581 22.276 14.19 21.2504 13.1644C20.2248 12.1388 18.8338 11.5626 17.3834 11.5626C15.933 11.5626 14.542 12.1388 13.5164 13.1644C12.4908 14.19 11.9147 15.581 11.9147 17.0314ZM15.0397 17.0314H19.7272C19.7272 16.4098 19.4802 15.8136 19.0407 15.3741C18.6012 14.9345 18.005 14.6876 17.3834 14.6876C16.7618 14.6876 16.1657 14.9345 15.7261 15.3741C15.2866 15.8136 15.0397 16.4098 15.0397 17.0314ZM25.7678 17.0314H27.4412C27.5592 16.5696 27.5702 16.087 27.4734 15.6203C27.3766 15.1537 27.1745 14.7153 26.8826 14.3385C26.5907 13.9618 26.2167 13.6567 25.789 13.4464C25.3613 13.2361 24.8913 13.1262 24.4147 13.1251C24.0397 13.1251 23.6834 13.1907 23.3522 13.311C25.25 17.0314 24.4147 17.0314 25.7678 17.0314ZM23.6334 27.1876L15.8209 27.1876L15.8209 27.9689C15.8209 28.1761 15.9032 28.3748 16.0497 28.5213C16.1963 28.6678 16.395 28.7501 16.6022 28.7501L22.8522 28.7501C23.0594 28.7501 23.2581 28.6678 23.4046 28.5213C23.5511 28.3748 23.6334 28.1761 23.6334 27.9689L23.6334 27.1876ZM15.2709 25.6251L15.8209 27.1876L23.6334 27.1876L24.1834 25.6251C26.6615 24.8282 28.2303 22.5751 28.8928 18.5939L10.5615 18.5939C11.224 22.5751 12.7928 24.8282 15.2709 25.6251Z" fill="#1A1A1A"/>
</svg>
