<svg width="40" height="40" viewBox="0 0 40 40" fill="none" xmlns="http://www.w3.org/2000/svg">
<circle cx="20" cy="20" r="20" transform="rotate(90 20 20)" fill="#DEE2DA"/>
<mask id="path-2-inside-1_2251_11762" fill="white">
<path d="M19.9489 11.1786L19.4446 11.7273C19.7297 11.9894 20.1681 11.9894 20.4532 11.7273L19.9489 11.1786ZM18.5493 16.2364C17.8635 15.7364 17.132 15.1284 16.5792 14.4877C16.0086 13.8261 15.7258 13.2417 15.7258 12.7771H14.2354C14.2354 13.7881 14.8101 14.7188 15.4506 15.4612C16.1091 16.2245 16.9424 16.9094 17.6714 17.4408L18.5493 16.2364ZM15.7258 12.7771C15.7258 11.7251 16.2426 11.1251 16.8641 10.916C17.512 10.6979 18.4782 10.839 19.4446 11.7273L20.4532 10.63C19.184 9.46332 17.666 9.07349 16.3887 9.50335C15.085 9.94209 14.2354 11.1688 14.2354 12.7771H15.7258ZM22.2265 17.4408C22.9554 16.9094 23.7887 16.2245 24.4472 15.4613C25.0877 14.7188 25.6625 13.7881 25.6625 12.7771H24.172C24.172 13.2417 23.8893 13.8262 23.3186 14.4877C22.7658 15.1284 22.0343 15.7364 21.3485 16.2364L22.2265 17.4408ZM25.6625 12.7771C25.6625 11.1688 24.8129 9.94209 23.5091 9.50335C22.2318 9.07349 20.7138 9.46332 19.4446 10.63L20.4532 11.7273C21.4196 10.839 22.3859 10.6979 23.0337 10.916C23.6553 11.1251 24.172 11.7251 24.172 12.7771H25.6625ZM17.6714 17.4408C18.4216 17.9878 19.0167 18.4521 19.9489 18.4521V16.9616C19.5862 16.9616 19.3872 16.8471 18.5493 16.2364L17.6714 17.4408ZM21.3485 16.2364C20.5106 16.8471 20.3116 16.9616 19.9489 16.9616V18.4521C20.8812 18.4521 21.4762 17.9878 22.2265 17.4408L21.3485 16.2364Z"/>
</mask>
<path d="M19.9489 11.1786L19.4446 11.7273C19.7297 11.9894 20.1681 11.9894 20.4532 11.7273L19.9489 11.1786ZM18.5493 16.2364C17.8635 15.7364 17.132 15.1284 16.5792 14.4877C16.0086 13.8261 15.7258 13.2417 15.7258 12.7771H14.2354C14.2354 13.7881 14.8101 14.7188 15.4506 15.4612C16.1091 16.2245 16.9424 16.9094 17.6714 17.4408L18.5493 16.2364ZM15.7258 12.7771C15.7258 11.7251 16.2426 11.1251 16.8641 10.916C17.512 10.6979 18.4782 10.839 19.4446 11.7273L20.4532 10.63C19.184 9.46332 17.666 9.07349 16.3887 9.50335C15.085 9.94209 14.2354 11.1688 14.2354 12.7771H15.7258ZM22.2265 17.4408C22.9554 16.9094 23.7887 16.2245 24.4472 15.4613C25.0877 14.7188 25.6625 13.7881 25.6625 12.7771H24.172C24.172 13.2417 23.8893 13.8262 23.3186 14.4877C22.7658 15.1284 22.0343 15.7364 21.3485 16.2364L22.2265 17.4408ZM25.6625 12.7771C25.6625 11.1688 24.8129 9.94209 23.5091 9.50335C22.2318 9.07349 20.7138 9.46332 19.4446 10.63L20.4532 11.7273C21.4196 10.839 22.3859 10.6979 23.0337 10.916C23.6553 11.1251 24.172 11.7251 24.172 12.7771H25.6625ZM17.6714 17.4408C18.4216 17.9878 19.0167 18.4521 19.9489 18.4521V16.9616C19.5862 16.9616 19.3872 16.8471 18.5493 16.2364L17.6714 17.4408ZM21.3485 16.2364C20.5106 16.8471 20.3116 16.9616 19.9489 16.9616V18.4521C20.8812 18.4521 21.4762 17.9878 22.2265 17.4408L21.3485 16.2364Z" fill="#1C274C"/>
<path d="M17.6714 17.4408L17.2699 17.1481L18.0729 17.7335L17.6714 17.4408ZM17.7088 16.5459L17.2699 17.1481L18.0729 17.7334L18.5118 17.1312L17.7088 16.5459ZM21.386 17.1313L21.825 17.7335L22.628 17.1481L22.189 16.5459L21.386 17.1313ZM19.4521 17.7068V18.4521H20.4457V17.7068H19.4521ZM15.7258 12.2802H14.2354V13.2739H15.7258V12.2802ZM18.0729 17.7335L18.9508 16.529L18.1478 15.9437L17.2699 17.1481L18.0729 17.7335ZM25.6625 12.2802H24.172V13.2739H25.6625V12.2802ZM20.947 16.529L21.825 17.7335L22.628 17.1481L21.75 15.9437L20.947 16.529ZM20.4457 18.4521V16.9616H19.4521V18.4521H20.4457ZM17.6714 17.4408L18.2567 16.6379L18.2567 16.6378L17.6714 17.4408ZM19.9489 11.1786L20.6805 10.5062L19.9489 9.71024L19.2173 10.5062L19.9489 11.1786ZM22.2265 17.4408L21.6411 16.6378L21.6411 16.6378L22.2265 17.4408ZM18.5493 16.2364L17.964 17.0393L17.964 17.0393L18.5493 16.2364ZM16.5792 14.4877L15.8268 15.1367L15.8268 15.1367L16.5792 14.4877ZM15.4506 15.4612L14.6983 16.1103L14.6983 16.1103L15.4506 15.4612ZM16.8641 10.916L17.181 11.8578L17.181 11.8578L16.8641 10.916ZM20.4532 10.63L21.1848 11.3024L21.8571 10.5708L21.1256 9.89842L20.4532 10.63ZM16.3887 9.50335L16.7056 10.4451L16.7056 10.4451L16.3887 9.50335ZM24.4472 15.4613L25.1996 16.1104L25.1996 16.1103L24.4472 15.4613ZM23.3186 14.4877L24.071 15.1367L24.071 15.1367L23.3186 14.4877ZM21.3485 16.2364L21.9338 17.0394L21.9338 17.0393L21.3485 16.2364ZM23.5091 9.50335L23.1921 10.4451L23.1922 10.4451L23.5091 9.50335ZM19.4446 10.63L18.7722 9.89842L18.0407 10.5708L18.713 11.3024L19.4446 10.63ZM23.0337 10.916L22.7168 11.8577L22.7168 11.8578L23.0337 10.916ZM19.2173 10.5062L18.713 11.0549L20.1762 12.3997L20.6805 11.851L19.2173 10.5062ZM18.7721 12.4588C19.4374 13.0705 20.4604 13.0705 21.1257 12.4588L19.7807 10.9958C19.8758 10.9084 20.022 10.9084 20.1171 10.9958L18.7721 12.4588ZM21.1848 11.0549L20.6805 10.5062L19.2173 11.851L19.7216 12.3997L21.1848 11.0549ZM19.1347 15.4334C18.4775 14.9544 17.8139 14.3977 17.3316 13.8386L15.8268 15.1367C16.4501 15.8592 17.2495 16.5185 17.964 17.0393L19.1347 15.4334ZM17.3316 13.8386C16.8076 13.2312 16.7195 12.8774 16.7195 12.7771H14.7322C14.7322 13.6059 15.2095 14.4211 15.8268 15.1367L17.3316 13.8386ZM13.2417 12.7771C13.2417 14.1525 14.0113 15.3139 14.6983 16.1103L16.203 14.8122C15.609 14.1236 15.229 13.4238 15.229 12.7771H13.2417ZM14.6983 16.1103C15.4271 16.9552 16.3283 17.6914 17.086 18.2438L18.2567 16.6378C17.5565 16.1274 16.791 15.4938 16.203 14.8122L14.6983 16.1103ZM16.7195 12.7771C16.7195 12.416 16.8067 12.2036 16.8865 12.085C16.9658 11.967 17.0678 11.8958 17.181 11.8578L16.5472 9.97423C15.4743 10.3353 14.7322 11.3503 14.7322 12.7771H16.7195ZM17.181 11.8578C17.4117 11.7801 18.0098 11.7582 18.7722 12.4589L20.1171 10.9958C18.9466 9.91988 17.6123 9.61576 16.5471 9.97423L17.181 11.8578ZM20.1762 12.3997L21.1848 11.3024L19.7216 9.95757L18.713 11.0549L20.1762 12.3997ZM21.1256 9.89842C19.6559 8.54747 17.7702 7.99001 16.0718 8.56158L16.7056 10.4451C17.5618 10.157 18.712 10.3792 19.7807 11.3615L21.1256 9.89842ZM16.0718 8.56158C14.3113 9.15401 13.2417 10.8001 13.2417 12.7771H15.229C15.229 11.5375 15.8586 10.7302 16.7056 10.4451L16.0718 8.56158ZM22.8118 18.2438C23.5696 17.6914 24.4707 16.9552 25.1996 16.1104L23.6948 14.8122C23.1067 15.4938 22.3413 16.1275 21.6411 16.6378L22.8118 18.2438ZM25.1996 16.1103C25.8866 15.3139 26.6561 14.1525 26.6561 12.7771H24.6688C24.6688 13.4238 24.2888 14.1236 23.6948 14.8122L25.1996 16.1103ZM23.1783 12.7771C23.1783 12.8775 23.0902 13.2312 22.5662 13.8386L24.071 15.1367C24.6883 14.4211 25.1656 13.6059 25.1656 12.7771H23.1783ZM22.5662 13.8386C22.0839 14.3977 21.4203 14.9544 20.7631 15.4334L21.9338 17.0393C22.6483 16.5185 23.4477 15.8592 24.071 15.1367L22.5662 13.8386ZM26.6561 12.7771C26.6561 10.8001 25.5865 9.154 23.826 8.56158L23.1922 10.4451C24.0393 10.7302 24.6688 11.5375 24.6688 12.7771H26.6561ZM23.826 8.56159C22.1277 7.99 20.2419 8.54748 18.7722 9.89842L20.1171 11.3615C21.1858 10.3792 22.336 10.157 23.1921 10.4451L23.826 8.56159ZM18.713 11.3024L19.7216 12.3997L21.1848 11.0549L20.1762 9.95757L18.713 11.3024ZM21.1256 12.4589C21.888 11.7582 22.4862 11.7801 22.7168 11.8577L23.3507 9.97423C22.2855 9.61575 20.9512 9.91988 19.7808 10.9958L21.1256 12.4589ZM22.7168 11.8578C22.83 11.8958 22.932 11.967 23.0114 12.085C23.0911 12.2036 23.1783 12.416 23.1783 12.7771H25.1656C25.1656 11.3503 24.4236 10.3353 23.3506 9.97422L22.7168 11.8578ZM17.086 18.2437C17.7834 18.7522 18.6392 19.4458 19.9489 19.4458V17.4584C19.3941 17.4584 19.0598 17.2233 18.2567 16.6379L17.086 18.2437ZM19.9489 15.9679C19.9136 15.9679 19.9163 15.9653 19.9315 15.969C19.9451 15.9724 19.9363 15.9729 19.8894 15.9483C19.7667 15.8839 19.5694 15.7503 19.1346 15.4334L17.964 17.0393C18.3671 17.3332 18.6882 17.5622 18.9652 17.7077C19.3094 17.8885 19.6087 17.9552 19.9489 17.9552V15.9679ZM20.7632 15.4334C20.3284 15.7503 20.1311 15.8839 20.0084 15.9483C19.9615 15.9729 19.9527 15.9724 19.9663 15.969C19.9815 15.9653 19.9842 15.9679 19.9489 15.9679V17.9552C20.2891 17.9552 20.5884 17.8885 20.9326 17.7077C21.2096 17.5622 21.5307 17.3332 21.9338 17.0394L20.7632 15.4334ZM19.9489 19.4458C21.2586 19.4458 22.1143 18.7522 22.8118 18.2438L21.6411 16.6378C20.838 17.2233 20.5037 17.4584 19.9489 17.4584V19.4458Z" fill="#1A1A1A" mask="url(#path-2-inside-1_2251_11762)"/>
<path d="M12 29.3445H14.2456C15.2501 29.3445 16.2653 29.4491 17.2429 29.6506C18.9721 30.0068 20.7927 30.0499 22.5397 29.7672M21.6151 26.4915C21.7341 26.4777 21.8482 26.4619 21.9571 26.4445C22.8627 26.3 23.6229 25.8161 24.3188 25.2904L26.1146 23.9339C26.7476 23.4557 27.6872 23.4556 28.3204 23.9336C28.8905 24.3641 29.0647 25.0728 28.7043 25.6504C28.2841 26.3241 27.692 27.1859 27.1234 27.7124M21.6151 26.4915C21.5792 26.4957 21.5429 26.4997 21.5062 26.5034M21.6151 26.4915C21.7599 26.4605 21.9037 26.3711 22.0388 26.2533C22.6779 25.6955 22.7182 24.7554 22.1637 24.1325C22.0351 23.988 21.8844 23.8674 21.7171 23.7676C18.9374 22.1097 14.6128 23.3724 12 25.2253M21.6151 26.4915C21.5788 26.4993 21.5424 26.5034 21.5062 26.5034M21.5062 26.5034C20.9861 26.5568 20.3778 26.5706 19.7027 26.5068" stroke="#1A1A1A" stroke-width="1.49049" stroke-linecap="round"/>
</svg>
