<svg width="40" height="40" viewBox="0 0 40 40" fill="none" xmlns="http://www.w3.org/2000/svg">
<circle cx="20" cy="20" r="20" transform="rotate(90 20 20)" fill="#DEE2DA"/>
<path fill-rule="evenodd" clip-rule="evenodd" d="M23.7496 13.879C23.7326 13.8056 23.715 13.7321 23.6965 13.6585C23.4565 12.6984 23.0786 11.6552 22.4623 10.8335C21.8269 9.98624 20.8991 9.3335 19.6328 9.3335C18.3665 9.3335 17.4387 9.98624 16.8032 10.8335C16.187 11.6552 15.809 12.6984 15.569 13.6585C15.5506 13.7321 15.5329 13.8056 15.5159 13.879H14.0611C12.6252 13.879 11.4353 14.9922 11.3398 16.4248L10.6732 26.4248C10.5682 27.999 11.8168 29.3335 13.3944 29.3335H25.8711C27.4488 29.3335 28.6973 27.999 28.5924 26.4248L27.9257 16.4248C27.8302 14.9922 26.6403 13.879 25.2045 13.879H23.7496ZM15.9964 18.4244C16.5173 18.4244 16.9037 18.032 16.9055 17.5137C16.9057 17.492 16.9059 17.4704 16.9063 17.4488C16.9071 17.4009 16.9087 17.3285 16.912 17.2353C16.9187 17.0485 16.9321 16.7789 16.9592 16.4544C16.9784 16.2242 17.0042 15.9686 17.0389 15.6971H22.2267C22.2613 15.9686 22.2871 16.2242 22.3064 16.4545C22.3334 16.7789 22.3469 17.0485 22.3535 17.2353C22.3569 17.3285 22.3585 17.4009 22.3593 17.4488C22.3597 17.4711 22.36 17.4934 22.3601 17.5157C22.3601 17.5157 22.3601 18.4244 23.2691 18.4244C24.1782 18.4244 24.1782 17.5141 24.1782 17.5141C24.1781 17.4822 24.1778 17.4504 24.1772 17.4185C24.1762 17.3599 24.1743 17.276 24.1705 17.1704C24.1631 16.9594 24.1481 16.6608 24.1182 16.3035C24.1028 16.1172 24.0831 15.9136 24.0581 15.6971H25.2045C25.6831 15.6971 26.0798 16.0682 26.1116 16.5458L26.7782 26.5458C26.8132 27.0705 26.3971 27.5153 25.8711 27.5153H13.3944C12.8685 27.5153 12.4523 27.0705 12.4873 26.5458L13.154 16.5458C13.1858 16.0682 13.5825 15.6971 14.0611 15.6971H15.2074C15.1825 15.9136 15.1628 16.1172 15.1473 16.3035C15.1175 16.6608 15.1025 16.9594 15.095 17.1704C15.0912 17.276 15.0893 17.3599 15.0883 17.4185C15.0878 17.4497 15.0874 17.481 15.0873 17.5122C15.0866 18.031 15.4767 18.4244 15.9964 18.4244ZM17.3905 13.879H21.8751C21.6649 13.1092 21.3791 12.4196 21.0078 11.9244C20.6205 11.408 20.1847 11.1517 19.6328 11.1517C19.0809 11.1517 18.6451 11.408 18.2578 11.9244C17.8864 12.4196 17.6007 13.1092 17.3905 13.879Z" fill="#1A1A1A"/>
</svg>
