<svg width="40" height="40" viewBox="0 0 40 40" fill="none" xmlns="http://www.w3.org/2000/svg">
<circle cx="20" cy="20" r="20" fill="#DEE2DA"/>
<path d="M10.1377 15.6576L12.973 18.0203C13.1602 18.1763 13.3961 18.2617 13.6398 18.2617L25.3855 18.2617C25.6293 18.2617 25.8652 18.1763 26.0524 18.0203L28.8877 15.6576M13.7835 21.9076H13.7939M25.2419 21.9076H25.2523M15.5134 12.0117L23.5121 12.0117C24.2597 12.0117 24.95 12.4123 25.3208 13.0614L28.3387 18.3427C28.6984 18.9722 28.8877 19.6847 28.8877 20.4099L28.8877 26.595C28.8877 27.1704 28.4213 27.6367 27.846 27.6367H26.8044C26.229 27.6367 25.7627 27.1704 25.7627 26.595L25.7627 25.5534H13.2627L13.2627 26.595C13.2627 27.1704 12.7963 27.6367 12.221 27.6367H11.1794C10.6041 27.6367 10.1377 27.1704 10.1377 26.595L10.1377 20.4099C10.1377 19.6847 10.3269 18.9722 10.6867 18.3427L13.7045 13.0614C14.0754 12.4123 14.7657 12.0117 15.5134 12.0117ZM14.3044 21.9076C14.3044 22.1952 14.0712 22.4284 13.7835 22.4284C13.4959 22.4284 13.2627 22.1952 13.2627 21.9076C13.2627 21.6199 13.4959 21.3867 13.7835 21.3867C14.0712 21.3867 14.3044 21.6199 14.3044 21.9076ZM25.7627 21.9076C25.7627 22.1952 25.5295 22.4284 25.2419 22.4284C24.9543 22.4284 24.721 22.1952 24.721 21.9076C24.721 21.6199 24.9543 21.3867 25.2419 21.3867C25.5295 21.3867 25.7627 21.6199 25.7627 21.9076Z" stroke="#1A1A1A" stroke-width="1.5625" stroke-linecap="round" stroke-linejoin="round"/>
</svg>
