<svg width="40" height="40" viewBox="0 0 40 40" fill="none" xmlns="http://www.w3.org/2000/svg">
<circle cx="20" cy="20" r="20" fill="#DEE2DA"/>
<path fill-rule="evenodd" clip-rule="evenodd" d="M28.9447 10.0748C29.7207 10.8483 29.5388 12.2078 28.7591 12.9856L25.035 16.7185C24.8978 16.8561 24.8534 17.0611 24.9214 17.2431L27.5536 24.2869C27.7355 24.9902 27.9707 25.6985 27.0961 26.5707C26.6503 27.0158 25.7229 27.9407 24.3504 26.5707L20.5763 21.9611C20.3901 21.7337 20.0482 21.7168 19.8405 21.9249L17.1578 24.6132C17.0347 24.7366 16.9853 24.9154 17.0275 25.0845L17.7236 27.8687C17.8403 28.3219 17.749 28.6273 17.492 28.8601C17.3455 28.9774 16.7148 29.8285 16.1201 29.235L13.3933 25.7301C13.368 25.6976 13.3388 25.6683 13.3063 25.643L9.80128 22.9162C9.37047 22.4866 9.63925 22.0875 10.1576 21.5418C10.504 21.196 10.6822 21.2705 11.1869 21.3748L13.9556 22.0044C14.1217 22.0422 14.2956 21.9922 14.4163 21.8719L17.0975 19.1999C17.3059 18.9921 17.2891 18.6498 17.0612 18.4636L12.4514 14.6959C11.0788 13.3265 12.0069 12.4009 12.4514 11.9558C13.3267 11.083 14.0356 11.3176 14.7402 11.4995L21.7972 14.1102C21.9788 14.1774 22.1829 14.1329 22.3201 13.9962L26.0513 10.2778C26.8304 9.49999 28.1694 9.30073 28.9447 10.0748Z" stroke="#1A1A1A" stroke-width="1.5625"/>
</svg>
