<svg width="40" height="40" viewBox="0 0 40 40" fill="none" xmlns="http://www.w3.org/2000/svg">
<circle cx="20" cy="20" r="20" fill="#DEE2DA"/>
<path d="M9.375 27.1216H12.2428M12.2428 27.1216L28.0157 27.1216M12.2428 27.1216L12.2428 19.0461C12.2428 18.2928 12.2428 17.9159 12.3331 17.5646C12.4132 17.2532 12.545 16.9578 12.7231 16.6902C12.924 16.3884 13.2051 16.1356 13.7649 15.6327L17.0651 12.6678C18.1474 11.6956 18.6889 11.2091 19.3012 11.0245C19.8409 10.8618 20.417 10.8618 20.9567 11.0245C21.5696 11.2092 22.1119 11.696 23.1959 12.6698L26.4939 15.6327C27.0543 16.1362 27.3339 16.3882 27.5349 16.6902C27.713 16.9578 27.8446 17.2532 27.9246 17.5646C28.015 17.9159 28.0157 18.2928 28.0157 19.0461L28.0157 27.1216M28.0157 27.1216H31.028M27.2462 15.9138V11.6828L24.8449 10.625V14.1509" stroke="#1A1A1A" stroke-width="1.5625" stroke-linecap="round" stroke-linejoin="round"/>
<path fill-rule="evenodd" clip-rule="evenodd" d="M20.3274 17.5495L17.8703 20.0066C17.6305 20.2464 17.6305 20.6354 17.8703 20.8752C18.1102 21.1151 18.4991 21.1151 18.739 20.8752L21.196 18.4182C21.4359 18.1783 21.4359 17.7894 21.196 17.5495C20.9562 17.3097 20.5672 17.3097 20.3274 17.5495Z" fill="#1A1A1A"/>
<path fill-rule="evenodd" clip-rule="evenodd" d="M20.9445 20.0046L18.4875 22.4616C18.2476 22.7015 18.2476 23.0904 18.4875 23.3303C18.7274 23.5702 19.1163 23.5702 19.3562 23.3303L21.8132 20.8733C22.0531 20.6334 22.0531 20.2445 21.8132 20.0046C21.5733 19.7647 21.1844 19.7647 20.9445 20.0046Z" fill="#1A1A1A"/>
<path fill-rule="evenodd" clip-rule="evenodd" d="M21.376 19.8247H18.3047C17.9654 19.8247 17.6904 20.0997 17.6904 20.439C17.6904 20.7782 17.9654 21.0532 18.3047 21.0532H21.376C21.7152 21.0532 21.9902 20.7782 21.9902 20.439C21.9902 20.0997 21.7152 19.8247 21.376 19.8247Z" fill="#1A1A1A"/>
</svg>
