<svg width="20" height="20" viewBox="0 0 20 20" fill="none" xmlns="http://www.w3.org/2000/svg">
<g clip-path="url(#clip0_9678_10934)">
<path opacity="0.4" d="M16.8571 2.71429C16.8571 2.25963 16.6765 1.82359 16.355 1.5021C16.0335 1.18061 15.5975 1 15.1429 1H3.71429C3.25963 1 2.82359 1.18061 2.5021 1.5021C2.18061 1.82359 2 2.25963 2 2.71429V17.5714C2 18.0261 2.18061 18.4621 2.5021 18.7836C2.82359 19.1051 3.25963 19.2857 3.71429 19.2857H15.1429C15.5975 19.2857 16.0335 19.1051 16.355 18.7836C16.6765 18.4621 16.8571 18.0261 16.8571 17.5714V2.71429ZM9.42857 5.57143C9.88064 5.57143 10.3226 5.70548 10.6984 5.95664C11.0743 6.2078 11.3673 6.56478 11.5403 6.98244C11.7133 7.4001 11.7586 7.85968 11.6704 8.30306C11.5822 8.74645 11.3645 9.15372 11.0448 9.47339C10.7252 9.79305 10.3179 10.0107 9.87449 10.0989C9.43111 10.1871 8.97153 10.1419 8.55387 9.96887C8.13621 9.79587 7.77923 9.5029 7.52807 9.12702C7.27691 8.75113 7.14286 8.30921 7.14286 7.85714C7.14342 7.25111 7.38442 6.67006 7.81295 6.24153C8.24149 5.81299 8.82254 5.572 9.42857 5.57143ZM13.4286 14.0286C13.4286 14.4071 13.0714 14.7143 12.6286 14.7143H6.22857C5.78571 14.7143 5.42857 14.4071 5.42857 14.0286V13.3429C5.42857 12.2071 6.50357 11.2857 7.82857 11.2857H8.00714C8.45731 11.4743 8.9405 11.5714 9.42857 11.5714C9.91664 11.5714 10.3998 11.4743 10.85 11.2857H11.0286C12.3536 11.2857 13.4286 12.2071 13.4286 13.3429V14.0286Z" fill="#1A1A1A"/>
<path d="M11.0297 11.2868H10.8511C10.401 11.4754 9.91776 11.5726 9.42969 11.5726C8.94161 11.5726 8.45842 11.4754 8.00826 11.2868H7.82969C6.50469 11.2868 5.42969 12.2083 5.42969 13.344V14.0297C5.42969 14.4083 5.78683 14.7154 6.22969 14.7154H12.6297C13.0725 14.7154 13.4297 14.4083 13.4297 14.0297V13.344C13.4297 12.2083 12.3547 11.2868 11.0297 11.2868ZM9.42969 10.144C9.88176 10.144 10.3237 10.0099 10.6996 9.75876C11.0754 9.5076 11.3684 9.15062 11.5414 8.73296C11.7144 8.3153 11.7597 7.85572 11.6715 7.41234C11.5833 6.96895 11.3656 6.56168 11.0459 6.24202C10.7263 5.92235 10.319 5.70466 9.87561 5.61646C9.43222 5.52827 8.97264 5.57353 8.55498 5.74653C8.13732 5.91953 7.78034 6.2125 7.52919 6.58838C7.27803 6.96427 7.14397 7.40619 7.14397 7.85826C7.14454 8.46429 7.38554 9.04535 7.81407 9.47388C8.2426 9.90241 8.82365 10.1434 9.42969 10.144ZM17.5725 9.00112H16.8583V11.2868H17.5725C17.6862 11.2868 17.7952 11.2417 17.8756 11.1613C17.956 11.0809 18.0011 10.9719 18.0011 10.8583V9.42969C18.0011 9.31602 17.956 9.20702 17.8756 9.12664C17.7952 9.04627 17.6862 9.00112 17.5725 9.00112ZM17.5725 13.5725H16.8583V15.8583H17.5725C17.6862 15.8583 17.7952 15.8131 17.8756 15.7327C17.956 15.6524 18.0011 15.5434 18.0011 15.4297V14.0011C18.0011 13.8875 17.956 13.7784 17.8756 13.6981C17.7952 13.6177 17.6862 13.5725 17.5725 13.5725ZM17.5725 4.42969H16.8583V6.7154H17.5725C17.6862 6.7154 17.7952 6.67025 17.8756 6.58988C17.956 6.5095 18.0011 6.40049 18.0011 6.28683V4.85826C18.0011 4.74459 17.956 4.63559 17.8756 4.55521C17.7952 4.47484 17.6862 4.42969 17.5725 4.42969Z" fill="#1A1A1A"/>
</g>
<defs>
<clipPath id="clip0_9678_10934">
<rect width="16" height="18.2857" fill="white" transform="translate(2 1)"/>
</clipPath>
</defs>
</svg>
