<svg width="181" height="161" viewBox="0 0 181 161" fill="none" xmlns="http://www.w3.org/2000/svg">
<path d="M126.874 32.3164C91.4799 44.4255 112.593 95.1179 112.593 95.1179L143.734 81.6925C148.473 67.9255 157.102 51.9733 152.532 42.954C147.962 33.9348 137.137 28.8052 126.874 32.3164Z" fill="url(#paint0_linear_4712_739)"/>
<path d="M53.8511 128.272C89.2456 116.163 68.1323 65.4704 68.1323 65.4704L36.9918 78.8959C32.2529 92.6629 23.6238 108.615 28.1937 117.634C32.7637 126.654 43.5882 131.783 53.8511 128.272Z" fill="url(#paint1_linear_4712_739)"/>
<path d="M53.8571 72.5333C28.9506 85.3252 26.1386 108.2 28.3695 117.64C28.3695 117.64 11.4379 95.2306 13.6478 78.003C15.8577 60.7754 17.9438 55.7961 26.1078 44.0775C40.4711 23.4604 69.1449 15.1973 81.9811 15.7347C81.9811 15.7347 107.568 16.2902 108.721 38.7265C109.412 52.1619 93.4192 61.2254 88.5578 62.663C75.0471 66.6583 67.5663 65.4924 53.8571 72.5333Z" fill="#DEE2DA"/>
<path d="M126.868 88.0551C151.775 75.2632 154.587 52.3883 152.356 42.9479C152.356 42.9479 169.288 65.3578 167.078 82.5854C164.868 99.813 162.782 104.792 154.618 116.511C140.254 137.128 111.581 145.391 98.7443 144.854C98.7443 144.854 73.1575 144.298 72.004 121.862C71.3132 108.427 87.3063 99.363 92.1677 97.9254C105.678 93.9301 113.159 95.096 126.868 88.0551Z" fill="#DEE2DA"/>
<defs>
<linearGradient id="paint0_linear_4712_739" x1="123.254" y1="32.9135" x2="138.795" y2="110.34" gradientUnits="userSpaceOnUse">
<stop stop-color="#DEE2DA"/>
<stop offset="0.39" stop-color="#DEE2DA"/>
<stop offset="0.565" stop-color="#D0D5CA"/>
<stop offset="1" stop-color="#1A1A1A"/>
</linearGradient>
<linearGradient id="paint1_linear_4712_739" x1="57.4712" y1="127.675" x2="41.9307" y2="50.2484" gradientUnits="userSpaceOnUse">
<stop stop-color="#DEE2DA"/>
<stop offset="0.39" stop-color="#DEE2DA"/>
<stop offset="0.565" stop-color="#D0D5CA"/>
<stop offset="1" stop-color="#1A1A1A"/>
</linearGradient>
</defs>
</svg>
