<svg width="375" height="844" viewBox="0 0 375 844" fill="none" xmlns="http://www.w3.org/2000/svg">
<g clip-path="url(#clip0_8226_46351)">
<rect width="375" height="844" fill="#1A1A1A"/>
<g filter="url(#filter0_f_8226_46351)">
<path d="M69.2799 -297.808C-98.673 -313.301 -105.35 -65.7991 -105.35 -65.7991L47.5311 -63.5712C92.4288 -111.464 157.362 -161.167 155.204 -206.704C153.046 -252.241 117.979 -293.316 69.2799 -297.808Z" fill="url(#paint0_radial_8226_46351)"/>
<path d="M-33.5909 -68.5148C92.4753 -75.1831 146.251 -164.1 154.492 -207.053C154.492 -207.053 182.798 -83.6193 141.919 -16.8242C101.04 49.9709 83.2705 66.6062 28.0621 99.7516C-69.0693 158.066 -202.277 139.152 -254.093 113.257C-254.093 113.257 -358.33 63.7598 -321.677 -30.6698C-299.728 -87.2162 -217.211 -94.9932 -194.559 -91.9372C-131.605 -83.4442 -102.981 -64.8445 -33.5909 -68.5148Z" fill="url(#paint1_radial_8226_46351)"/>
</g>
<g filter="url(#filter1_f_8226_46351)">
<path d="M69.2799 -297.808C-98.673 -313.301 -105.35 -65.7991 -105.35 -65.7991L47.5311 -63.5712C92.4288 -111.464 157.362 -161.167 155.204 -206.704C153.046 -252.241 117.979 -293.316 69.2799 -297.808Z" fill="url(#paint2_radial_8226_46351)"/>
<path d="M-33.5909 -68.5148C92.4753 -75.1831 146.251 -164.1 154.492 -207.053C154.492 -207.053 182.798 -83.6193 141.919 -16.8242C101.04 49.9709 83.2705 66.6062 28.0621 99.7516C-69.0693 158.066 -202.277 139.152 -254.093 113.257C-254.093 113.257 -358.33 63.7598 -321.677 -30.6698C-299.728 -87.2162 -217.211 -94.9932 -194.559 -91.9372C-131.605 -83.4442 -102.981 -64.8445 -33.5909 -68.5148Z" fill="url(#paint3_radial_8226_46351)"/>
</g>
<g filter="url(#filter2_f_8226_46351)">
<path d="M654.28 119.192C486.327 103.699 479.65 351.201 479.65 351.201L632.531 353.429C677.429 305.536 742.362 255.833 740.204 210.296C738.046 164.759 702.979 123.684 654.28 119.192Z" fill="url(#paint4_radial_8226_46351)"/>
<path d="M551.409 348.485C677.475 341.817 731.251 252.9 739.492 209.947C739.492 209.947 767.798 333.381 726.919 400.176C686.04 466.971 668.27 483.606 613.062 516.752C515.931 575.066 382.723 556.152 330.907 530.257C330.907 530.257 226.67 480.76 263.323 386.33C285.272 329.784 367.789 322.007 390.441 325.063C453.395 333.556 482.019 352.155 551.409 348.485Z" fill="url(#paint5_radial_8226_46351)"/>
</g>
<g filter="url(#filter3_f_8226_46351)">
<path d="M654.28 119.192C486.327 103.699 479.65 351.201 479.65 351.201L632.531 353.429C677.429 305.536 742.362 255.833 740.204 210.296C738.046 164.759 702.979 123.684 654.28 119.192Z" fill="url(#paint6_radial_8226_46351)"/>
<path d="M551.409 348.485C677.475 341.817 731.251 252.9 739.492 209.947C739.492 209.947 767.798 333.381 726.919 400.176C686.04 466.971 668.27 483.606 613.062 516.752C515.931 575.066 382.723 556.152 330.907 530.257C330.907 530.257 226.67 480.76 263.323 386.33C285.272 329.784 367.789 322.007 390.441 325.063C453.395 333.556 482.019 352.155 551.409 348.485Z" fill="url(#paint7_radial_8226_46351)"/>
</g>
<g filter="url(#filter4_f_8226_46351)">
<path d="M336.333 1056.46C289.882 939.074 188.473 916.4 145.131 922.26C145.131 922.26 253.134 856.135 329.467 873.626C405.8 891.116 427.227 902.666 476.222 944.452C562.422 1017.97 586.894 1150.27 578.839 1207.63C578.839 1207.63 565.097 1322.2 463.913 1317.51C403.321 1314.71 369.681 1238.96 365.368 1216.51C353.38 1154.13 361.9 1121.07 336.333 1056.46Z" fill="url(#paint8_radial_8226_46351)"/>
</g>
<g filter="url(#filter5_f_8226_46351)">
<path d="M336.333 1056.46C289.882 939.074 188.473 916.4 145.131 922.26C145.131 922.26 253.134 856.135 329.467 873.626C405.8 891.116 427.227 902.666 476.222 944.452C562.422 1017.97 586.894 1150.27 578.839 1207.63C578.839 1207.63 565.097 1322.2 463.913 1317.51C403.321 1314.71 369.681 1238.96 365.368 1216.51C353.38 1154.13 361.9 1121.07 336.333 1056.46Z" fill="url(#paint9_radial_8226_46351)"/>
</g>
</g>
<defs>
<filter id="filter0_f_8226_46351" x="-581.488" y="-550.506" width="997.525" height="940.622" filterUnits="userSpaceOnUse" color-interpolation-filters="sRGB">
<feFlood flood-opacity="0" result="BackgroundImageFix"/>
<feBlend mode="normal" in="SourceGraphic" in2="BackgroundImageFix" result="shape"/>
<feGaussianBlur stdDeviation="126" result="effect1_foregroundBlur_8226_46351"/>
</filter>
<filter id="filter1_f_8226_46351" x="-581.488" y="-550.506" width="997.525" height="940.622" filterUnits="userSpaceOnUse" color-interpolation-filters="sRGB">
<feFlood flood-opacity="0" result="BackgroundImageFix"/>
<feBlend mode="normal" in="SourceGraphic" in2="BackgroundImageFix" result="shape"/>
<feGaussianBlur stdDeviation="126" result="effect1_foregroundBlur_8226_46351"/>
</filter>
<filter id="filter2_f_8226_46351" x="3.51196" y="-133.506" width="997.525" height="940.622" filterUnits="userSpaceOnUse" color-interpolation-filters="sRGB">
<feFlood flood-opacity="0" result="BackgroundImageFix"/>
<feBlend mode="normal" in="SourceGraphic" in2="BackgroundImageFix" result="shape"/>
<feGaussianBlur stdDeviation="126" result="effect1_foregroundBlur_8226_46351"/>
</filter>
<filter id="filter3_f_8226_46351" x="3.51196" y="-133.506" width="997.525" height="940.622" filterUnits="userSpaceOnUse" color-interpolation-filters="sRGB">
<feFlood flood-opacity="0" result="BackgroundImageFix"/>
<feBlend mode="normal" in="SourceGraphic" in2="BackgroundImageFix" result="shape"/>
<feGaussianBlur stdDeviation="126" result="effect1_foregroundBlur_8226_46351"/>
</filter>
<filter id="filter4_f_8226_46351" x="-168.287" y="618.681" width="1000.57" height="950.974" filterUnits="userSpaceOnUse" color-interpolation-filters="sRGB">
<feFlood flood-opacity="0" result="BackgroundImageFix"/>
<feBlend mode="normal" in="SourceGraphic" in2="BackgroundImageFix" result="shape"/>
<feGaussianBlur stdDeviation="126" result="effect1_foregroundBlur_8226_46351"/>
</filter>
<filter id="filter5_f_8226_46351" x="-168.287" y="618.681" width="1000.57" height="950.974" filterUnits="userSpaceOnUse" color-interpolation-filters="sRGB">
<feFlood flood-opacity="0" result="BackgroundImageFix"/>
<feBlend mode="normal" in="SourceGraphic" in2="BackgroundImageFix" result="shape"/>
<feGaussianBlur stdDeviation="126" result="effect1_foregroundBlur_8226_46351"/>
</filter>
<radialGradient id="paint0_radial_8226_46351" cx="0" cy="0" r="1" gradientUnits="userSpaceOnUse" gradientTransform="translate(-7.69587 7.97359) rotate(-175.736) scale(274.193 407.609)">
<stop stop-color="#00A848"/>
<stop offset="0.31" stop-color="#86DF99" stop-opacity="0.933333"/>
<stop offset="0.605" stop-color="#86DF99" stop-opacity="0.933333"/>
<stop offset="0.71" stop-color="#DEE2DA"/>
<stop offset="0.94" stop-color="#F55C47"/>
</radialGradient>
<radialGradient id="paint1_radial_8226_46351" cx="0" cy="0" r="1" gradientUnits="userSpaceOnUse" gradientTransform="translate(-82.3107 250.789) rotate(-172.997) scale(491.445 707.468)">
<stop stop-color="#00A848"/>
<stop offset="0.31" stop-color="#86DF99" stop-opacity="0.933333"/>
<stop offset="0.605" stop-color="#86DF99" stop-opacity="0.933333"/>
<stop offset="0.71" stop-color="#DEE2DA"/>
<stop offset="0.94" stop-color="#F55C47"/>
</radialGradient>
<radialGradient id="paint2_radial_8226_46351" cx="0" cy="0" r="1" gradientUnits="userSpaceOnUse" gradientTransform="translate(-7.69587 7.97359) rotate(-175.736) scale(274.193 407.609)">
<stop stop-color="#00A848"/>
<stop offset="0.31" stop-color="#86DF99" stop-opacity="0.933333"/>
<stop offset="0.605" stop-color="#86DF99" stop-opacity="0.933333"/>
<stop offset="0.71" stop-color="#DEE2DA"/>
<stop offset="0.94" stop-color="#F55C47"/>
</radialGradient>
<radialGradient id="paint3_radial_8226_46351" cx="0" cy="0" r="1" gradientUnits="userSpaceOnUse" gradientTransform="translate(-82.3107 250.789) rotate(-172.997) scale(491.445 707.468)">
<stop stop-color="#00A848"/>
<stop offset="0.31" stop-color="#86DF99" stop-opacity="0.933333"/>
<stop offset="0.605" stop-color="#86DF99" stop-opacity="0.933333"/>
<stop offset="0.71" stop-color="#DEE2DA"/>
<stop offset="0.94" stop-color="#F55C47"/>
</radialGradient>
<radialGradient id="paint4_radial_8226_46351" cx="0" cy="0" r="1" gradientUnits="userSpaceOnUse" gradientTransform="translate(577.304 424.974) rotate(-175.736) scale(274.193 407.609)">
<stop stop-color="#00A848"/>
<stop offset="0.31" stop-color="#86DF99" stop-opacity="0.933333"/>
<stop offset="0.605" stop-color="#86DF99" stop-opacity="0.933333"/>
<stop offset="0.71" stop-color="#DEE2DA"/>
<stop offset="0.94" stop-color="#F55C47"/>
</radialGradient>
<radialGradient id="paint5_radial_8226_46351" cx="0" cy="0" r="1" gradientUnits="userSpaceOnUse" gradientTransform="translate(502.689 667.789) rotate(-172.997) scale(491.445 707.468)">
<stop stop-color="#00A848"/>
<stop offset="0.31" stop-color="#86DF99" stop-opacity="0.933333"/>
<stop offset="0.605" stop-color="#86DF99" stop-opacity="0.933333"/>
<stop offset="0.71" stop-color="#DEE2DA"/>
<stop offset="0.94" stop-color="#F55C47"/>
</radialGradient>
<radialGradient id="paint6_radial_8226_46351" cx="0" cy="0" r="1" gradientUnits="userSpaceOnUse" gradientTransform="translate(577.304 424.974) rotate(-175.736) scale(274.193 407.609)">
<stop stop-color="#00A848"/>
<stop offset="0.31" stop-color="#86DF99" stop-opacity="0.933333"/>
<stop offset="0.605" stop-color="#86DF99" stop-opacity="0.933333"/>
<stop offset="0.71" stop-color="#DEE2DA"/>
<stop offset="0.94" stop-color="#F55C47"/>
</radialGradient>
<radialGradient id="paint7_radial_8226_46351" cx="0" cy="0" r="1" gradientUnits="userSpaceOnUse" gradientTransform="translate(502.689 667.789) rotate(-172.997) scale(491.445 707.468)">
<stop stop-color="#00A848"/>
<stop offset="0.31" stop-color="#86DF99" stop-opacity="0.933333"/>
<stop offset="0.605" stop-color="#86DF99" stop-opacity="0.933333"/>
<stop offset="0.71" stop-color="#DEE2DA"/>
<stop offset="0.94" stop-color="#F55C47"/>
</radialGradient>
<radialGradient id="paint8_radial_8226_46351" cx="0" cy="0" r="1" gradientUnits="userSpaceOnUse" gradientTransform="translate(654.536 1001.01) rotate(78.4416) scale(491.445 707.468)">
<stop stop-color="#00A848"/>
<stop offset="0.31" stop-color="#86DF99" stop-opacity="0.933333"/>
<stop offset="0.605" stop-color="#86DF99" stop-opacity="0.933333"/>
<stop offset="0.71" stop-color="#DEE2DA"/>
<stop offset="0.94" stop-color="#F55C47"/>
</radialGradient>
<radialGradient id="paint9_radial_8226_46351" cx="0" cy="0" r="1" gradientUnits="userSpaceOnUse" gradientTransform="translate(654.536 1001.01) rotate(78.4416) scale(491.445 707.468)">
<stop stop-color="#00A848"/>
<stop offset="0.31" stop-color="#86DF99" stop-opacity="0.933333"/>
<stop offset="0.605" stop-color="#86DF99" stop-opacity="0.933333"/>
<stop offset="0.71" stop-color="#DEE2DA"/>
<stop offset="0.94" stop-color="#F55C47"/>
</radialGradient>
<clipPath id="clip0_8226_46351">
<rect width="375" height="844" fill="white"/>
</clipPath>
</defs>
</svg>
