<svg width="109" height="108" viewBox="0 0 109 108" fill="none" xmlns="http://www.w3.org/2000/svg">
<g clip-path="url(#clip0_8226_46192)">
<rect x="0.88505" y="0.38505" width="107.23" height="107.23" rx="9.31847" fill="#1A1A1A" stroke="#1A1A1A" stroke-width="0.270101"/>
<g clip-path="url(#clip1_8226_46192)">
<rect width="318.736" height="121.275" transform="translate(-104.859 -6.77261)" fill="#1A1A1A"/>
<g opacity="0.1">
<path d="M-4.56573 32.1367C18.4319 63.6973 62.4698 26.9997 62.4698 26.9997L39.4722 0.0876386C24.2808 -0.390081 5.70979 -4.07307 -1.87453 3.26742C-9.45885 10.6079 -11.2341 22.9855 -4.56573 32.1367Z" fill="url(#paint0_linear_8226_46192)"/>
<path d="M113.659 75.3498C90.6616 43.7892 46.6236 80.4868 46.6236 80.4868L69.6212 107.399C84.8127 107.877 103.384 111.56 110.968 104.219C118.552 96.8786 120.327 84.501 113.659 75.3498Z" fill="url(#paint1_linear_8226_46192)"/>
<path d="M58.0718 92.5432C78.514 113.434 102.194 109.18 110.92 104.042C110.92 104.042 93.7961 127.842 75.934 130.954C58.0718 134.066 52.4625 133.522 38.257 128.997C13.2644 121.035 -3.82383 94.9899 -7.2489 82.0231C-7.2489 82.0231 -14.5903 56.3353 7.42832 48.2617C20.6136 43.427 34.5872 56.5793 37.5209 60.9838C45.6743 73.2244 46.82 81.0444 58.0718 92.5432Z" fill="#DEE2DA"/>
<path d="M51.0216 14.9431C30.5794 -5.94766 6.89977 -1.69324 -1.82627 3.44452C-1.82627 3.44452 15.2973 -20.3556 33.1595 -23.4678C51.0216 -26.5799 56.6309 -26.0361 70.8364 -21.5106C95.829 -13.5486 112.917 12.4965 116.342 25.4632C116.342 25.4632 123.684 51.1511 101.665 59.2247C88.4799 64.0593 74.5062 50.9071 71.5725 46.5026C63.4192 34.262 62.2734 26.4419 51.0216 14.9431Z" fill="#DEE2DA"/>
</g>
<path d="M72.5795 29.6475C54.828 35.7206 65.417 61.1445 65.417 61.1445L81.0349 54.4112C83.4117 47.5066 87.7394 39.5061 85.4475 34.9827C83.1555 30.4592 77.7266 27.8866 72.5795 29.6475Z" fill="url(#paint2_linear_8226_46192)"/>
<path d="M35.956 77.7725C53.7074 71.6994 43.1184 46.2755 43.1184 46.2755L27.5005 53.0088C25.1238 59.9134 20.796 67.9139 23.088 72.4374C25.3799 76.9608 30.8088 79.5334 35.956 77.7725Z" fill="url(#paint3_linear_8226_46192)"/>
<path d="M35.959 49.8177C23.4676 56.2332 22.0573 67.7057 23.1761 72.4403C23.1761 72.4403 14.6844 61.2011 15.7928 52.5609C16.9011 43.9207 17.9473 41.4234 22.0418 35.5462C29.2455 25.2061 43.6263 21.0619 50.0641 21.3314C50.0641 21.3314 62.8967 21.61 63.4752 32.8625C63.8216 39.6008 55.8006 44.1464 53.3625 44.8674C46.5864 46.8712 42.8346 46.2864 35.959 49.8177Z" fill="#DEE2DA"/>
<path d="M72.5765 57.6023C85.0679 51.1868 86.4782 39.7143 85.3593 34.9797C85.3593 34.9797 93.8511 46.2189 92.7427 54.8591C91.6344 63.4993 90.5881 65.9966 86.4936 71.8738C79.29 82.2139 64.9092 86.3581 58.4714 86.0886C58.4714 86.0886 45.6388 85.81 45.0603 74.5575C44.7138 67.8192 52.7348 63.2736 55.173 62.5526C61.949 60.5488 65.7009 61.1336 72.5765 57.6023Z" fill="#DEE2DA"/>
</g>
</g>
<defs>
<linearGradient id="paint0_linear_8226_46192" x1="-2.85315" y1="35.5626" x2="69.5649" y2="-3.82687" gradientUnits="userSpaceOnUse">
<stop stop-color="#DEE2DA"/>
<stop offset="0.39" stop-color="#DEE2DA"/>
<stop offset="0.565" stop-color="#D0D5CA"/>
<stop offset="1" stop-color="#1A1A1A"/>
</linearGradient>
<linearGradient id="paint1_linear_8226_46192" x1="111.947" y1="71.9239" x2="39.5286" y2="111.313" gradientUnits="userSpaceOnUse">
<stop stop-color="#DEE2DA"/>
<stop offset="0.39" stop-color="#DEE2DA"/>
<stop offset="0.565" stop-color="#D0D5CA"/>
<stop offset="1" stop-color="#1A1A1A"/>
</linearGradient>
<linearGradient id="paint2_linear_8226_46192" x1="70.7639" y1="29.947" x2="78.5579" y2="68.7788" gradientUnits="userSpaceOnUse">
<stop stop-color="#DEE2DA"/>
<stop offset="0.39" stop-color="#DEE2DA"/>
<stop offset="0.565" stop-color="#D0D5CA"/>
<stop offset="1" stop-color="#1A1A1A"/>
</linearGradient>
<linearGradient id="paint3_linear_8226_46192" x1="37.7716" y1="77.473" x2="29.9775" y2="38.6412" gradientUnits="userSpaceOnUse">
<stop stop-color="#DEE2DA"/>
<stop offset="0.39" stop-color="#DEE2DA"/>
<stop offset="0.565" stop-color="#D0D5CA"/>
<stop offset="1" stop-color="#1A1A1A"/>
</linearGradient>
<clipPath id="clip0_8226_46192">
<rect x="0.75" y="0.25" width="107.5" height="107.5" rx="21" fill="white"/>
</clipPath>
<clipPath id="clip1_8226_46192">
<rect width="318.736" height="121.275" fill="white" transform="translate(-104.859 -6.77261)"/>
</clipPath>
</defs>
</svg>
