<svg width="19" height="19" viewBox="0 0 19 19" fill="none" xmlns="http://www.w3.org/2000/svg">
<g clip-path="url(#clip0_8383_49725)">
<path d="M9.51781 0.907227C14.6422 0.907227 18.5215 5.10864 18.5215 9.91541C18.5215 15.4902 13.9745 18.9507 9.49977 18.9507C8.0202 18.9507 6.37824 18.5532 5.06107 17.7761C4.60096 17.496 4.21303 17.2882 3.71683 17.4508L1.89444 17.993C1.43433 18.1375 1.01933 17.7761 1.15466 17.2882L1.75911 15.2643C1.85835 14.9842 1.84031 14.686 1.69596 14.4511C0.920093 13.0236 0.478027 11.4604 0.478027 9.94252C0.478027 5.18995 4.27618 0.907227 9.51781 0.907227ZM13.6407 8.79504C13.0002 8.79504 12.486 9.31005 12.486 9.95155C12.486 10.584 13.0002 11.1081 13.6407 11.1081C14.2813 11.1081 14.7955 10.584 14.7955 9.95155C14.7955 9.31005 14.2813 8.79504 13.6407 8.79504ZM9.48172 8.79504C8.8502 8.786 8.32694 9.31005 8.32694 9.94252C8.32694 10.584 8.84118 11.099 9.48172 11.1081C10.1223 11.1081 10.6365 10.584 10.6365 9.95155C10.6365 9.31005 10.1223 8.79504 9.48172 8.79504ZM5.3227 8.79504C4.68216 8.79504 4.16792 9.31005 4.16792 9.95155C4.16792 10.584 4.69118 11.1081 5.3227 11.1081C5.96324 11.099 6.47748 10.584 6.47748 9.95155C6.47748 9.31005 5.96324 8.79504 5.3227 8.79504Z" fill="#AFB4C0"/>
</g>
<defs>
<clipPath id="clip0_8383_49725">
<rect width="18.0435" height="18.0435" fill="white" transform="translate(0.478027 0.907227)"/>
</clipPath>
</defs>
</svg>
