<svg width="20" height="20" viewBox="0 0 20 20" fill="none" xmlns="http://www.w3.org/2000/svg">
<g clip-path="url(#clip0_21_260)">
<path fill-rule="evenodd" clip-rule="evenodd" d="M15.006 0C15.691 0 16.3361 0.131422 16.9415 0.394265C17.5468 0.657109 18.0765 1.01553 18.5305 1.46953C18.9845 1.92354 19.3429 2.45321 19.6057 3.05854C19.8686 3.66388 20 4.30904 20 4.99403V14.9821C20 15.6671 19.8686 16.3162 19.6057 16.9295C19.3429 17.5428 18.9845 18.0765 18.5305 18.5305C18.0765 18.9845 17.5468 19.3429 16.9415 19.6057C16.3361 19.8686 15.691 20 15.006 20H4.99403C4.30904 20 3.66388 19.8686 3.05854 19.6057C2.45321 19.3429 1.92354 18.9845 1.46953 18.5305C1.01553 18.0765 0.657109 17.5428 0.394265 16.9295C0.131422 16.3162 0 15.6671 0 14.9821V4.99403C0 4.30904 0.131422 3.66388 0.394265 3.05854C0.657109 2.45321 1.01553 1.92354 1.46953 1.46953C1.92354 1.01553 2.45321 0.657109 3.05854 0.394265C3.66388 0.131422 4.30904 0 4.99403 0H15.006ZM8.90722 12.113V12.2507H10.6708V12.113C10.6743 11.7388 10.7185 11.4245 10.8032 11.1703C10.8915 10.9126 11.0256 10.6884 11.2057 10.4977C11.3893 10.3071 11.6241 10.1235 11.9101 9.94693C12.2349 9.75274 12.5156 9.53207 12.7522 9.28493C12.9887 9.03778 13.1705 8.75532 13.2976 8.43756C13.4283 8.11979 13.4936 7.75966 13.4936 7.35716C13.4936 6.76048 13.3488 6.24499 13.0593 5.81072C12.7733 5.37291 12.3726 5.03573 11.8571 4.79917C11.3452 4.56261 10.752 4.44434 10.0776 4.44434C9.45977 4.44434 8.89486 4.55732 8.38291 4.78328C7.87449 5.00925 7.46493 5.3482 7.15423 5.80013C6.84706 6.25205 6.68465 6.81344 6.66699 7.48427H8.55239C8.57004 7.15238 8.65125 6.87875 8.796 6.66338C8.94429 6.44448 9.12965 6.28206 9.35209 6.17614C9.57805 6.06669 9.81638 6.01197 10.0671 6.01197C10.3389 6.01197 10.5843 6.06846 10.8032 6.18144C11.0256 6.29442 11.2022 6.4533 11.3328 6.65808C11.4634 6.86287 11.5288 7.10472 11.5288 7.38364C11.5288 7.63079 11.4793 7.85499 11.3805 8.05624C11.2816 8.25396 11.1457 8.43403 10.9727 8.59644C10.8032 8.75532 10.6108 8.90184 10.3954 9.03601C10.0812 9.2302 9.81461 9.44381 9.59571 9.67683C9.3768 9.90633 9.20733 10.21 9.08729 10.5878C8.97077 10.9655 8.91075 11.474 8.90722 12.113ZM9.00785 15.2165C9.23734 15.4425 9.51097 15.5554 9.82873 15.5554C10.0406 15.5554 10.233 15.5043 10.406 15.4019C10.5825 15.2959 10.7238 15.1547 10.8297 14.9782C10.9391 14.8016 10.9939 14.6057 10.9939 14.3903C10.9939 14.0726 10.8774 13.8007 10.6443 13.5747C10.4148 13.3488 10.143 13.2358 9.82873 13.2358C9.51097 13.2358 9.23734 13.3488 9.00785 13.5747C8.77835 13.8007 8.6636 14.0726 8.6636 14.3903C8.6636 14.7151 8.77835 14.9905 9.00785 15.2165Z" fill="#AFB4C0"/>
</g>
<defs>
<clipPath id="clip0_21_260">
<rect width="20" height="20" fill="white"/>
</clipPath>
</defs>
</svg>
