<svg width="18" height="19" viewBox="0 0 18 19" fill="none" xmlns="http://www.w3.org/2000/svg">
<g clip-path="url(#clip0_8383_49718)">
<path d="M13.5054 0.928711C14.1219 0.928711 14.7025 1.04699 15.2473 1.28355C15.7921 1.52011 16.2688 1.84269 16.6774 2.25129C17.086 2.65989 17.4086 3.1366 17.6452 3.6814C17.8817 4.2262 18 4.80685 18 5.42333V14.4126C18 15.0291 17.8817 15.6133 17.6452 16.1653C17.4086 16.7172 17.086 17.1975 16.6774 17.6061C16.2688 18.0147 15.7921 18.3373 15.2473 18.5739C14.7025 18.8104 14.1219 18.9287 13.5054 18.9287H4.49462C3.87814 18.9287 3.29749 18.8104 2.75269 18.5739C2.20789 18.3373 1.73118 18.0147 1.32258 17.6061C0.913979 17.1975 0.591398 16.7172 0.354839 16.1653C0.11828 15.6133 0 15.0291 0 14.4126V5.42333C0 4.80685 0.11828 4.2262 0.354839 3.6814C0.591398 3.1366 0.913979 2.65989 1.32258 2.25129C1.73118 1.84269 2.20789 1.52011 2.75269 1.28355C3.29749 1.04699 3.87814 0.928711 4.49462 0.928711H13.5054ZM12.3656 4.86419H10.4731C10.1004 4.86419 9.75627 4.92871 9.44086 5.05774C9.12545 5.18678 8.85305 5.35523 8.62366 5.56312C8.39427 5.771 8.21147 6.01115 8.07527 6.28355C7.93907 6.55595 7.87097 6.82835 7.87097 7.10075V8.24054H6.19355V10.4771H7.87097V14.9932H10.129V10.4771H11.8065V8.24054H10.129V7.6814C10.129 7.49502 10.1971 7.35165 10.3333 7.25129C10.4695 7.15093 10.5878 7.10075 10.6882 7.10075H12.3656V4.86419Z" fill="#AFB4C0"/>
</g>
<defs>
<clipPath id="clip0_8383_49718">
<rect width="18" height="18" fill="white" transform="translate(0 0.928711)"/>
</clipPath>
</defs>
</svg>
