<svg width="18" height="19" viewBox="0 0 18 19" fill="none" xmlns="http://www.w3.org/2000/svg">
<g clip-path="url(#clip0_8383_49719)">
<path d="M13.5054 0.928711C14.1219 0.928711 14.7025 1.04699 15.2473 1.28355C15.7921 1.52011 16.2688 1.84269 16.6774 2.25129C17.086 2.65989 17.4086 3.1366 17.6452 3.6814C17.8817 4.2262 18 4.80685 18 5.42333V14.4126C18 15.0291 17.8817 15.6133 17.6452 16.1653C17.4086 16.7172 17.086 17.1975 16.6774 17.6061C16.2688 18.0147 15.7921 18.3373 15.2473 18.5739C14.7025 18.8104 14.1219 18.9287 13.5054 18.9287H4.49462C3.87814 18.9287 3.29749 18.8104 2.75269 18.5739C2.20789 18.3373 1.73118 18.0147 1.32258 17.6061C0.913979 17.1975 0.591398 16.7172 0.354839 16.1653C0.11828 15.6133 0 15.0291 0 14.4126V5.42333C0 4.80685 0.11828 4.2262 0.354839 3.6814C0.591398 3.1366 0.913979 2.65989 1.32258 2.25129C1.73118 1.84269 2.20789 1.52011 2.75269 1.28355C3.29749 1.04699 3.87814 0.928711 4.49462 0.928711H13.5054ZM6.19355 7.6814H3.93548V14.9932H6.19355V7.6814ZM5.07527 7.10075C5.37634 7.10075 5.63799 6.99323 5.86022 6.77817C6.08244 6.56312 6.19355 6.29789 6.19355 5.98247C6.19355 5.66706 6.08244 5.40183 5.86022 5.18678C5.63799 4.97172 5.37634 4.86419 5.07527 4.86419C4.75986 4.86419 4.49104 4.97172 4.26882 5.18678C4.0466 5.40183 3.93548 5.66706 3.93548 5.98247C3.93548 6.29789 4.0466 6.56312 4.26882 6.77817C4.49104 6.99323 4.75986 7.10075 5.07527 7.10075ZM14.0645 10.7567C14.0645 10.2405 13.9211 9.73516 13.6344 9.24054C13.3477 8.74592 12.9749 8.36957 12.5161 8.11151C12.1004 7.88212 11.6165 7.76025 11.0645 7.74592C10.5125 7.73158 10.0143 7.82477 9.56989 8.02549V7.6814H7.31183V14.9932H9.56989V10.5201L10.4946 10.0685C10.6093 10.0111 10.767 9.98247 10.9677 9.98247C11.1685 9.98247 11.319 10.0183 11.4194 10.09C11.5054 10.133 11.5914 10.2262 11.6774 10.3696C11.7634 10.5129 11.8065 10.642 11.8065 10.7567V14.9932H14.0645V10.7567Z" fill="#AFB4C0"/>
</g>
<defs>
<clipPath id="clip0_8383_49719">
<rect width="18" height="18" fill="white" transform="translate(0 0.928711)"/>
</clipPath>
</defs>
</svg>
