<svg width="18" height="19" viewBox="0 0 18 19" fill="none" xmlns="http://www.w3.org/2000/svg">
<g clip-path="url(#clip0_8383_49722)">
<path fill-rule="evenodd" clip-rule="evenodd" d="M13.4264 0.928711C14.0393 0.928711 14.6165 1.0463 15.1581 1.28147C15.6998 1.51665 16.1737 1.83734 16.5799 2.24356C16.9861 2.64977 17.3068 3.12368 17.542 3.6653C17.7771 4.20692 17.8947 4.78417 17.8947 5.39705V14.3337C17.8947 14.9466 17.7771 15.5274 17.542 16.0762C17.3068 16.6249 16.9861 17.1024 16.5799 17.5086C16.1737 17.9148 15.6998 18.2355 15.1581 18.4707C14.6165 18.7059 14.0393 18.8234 13.4264 18.8234H4.46834C3.85546 18.8234 3.27821 18.7059 2.73659 18.4707C2.19497 18.2355 1.72106 17.9148 1.31485 17.5086C0.908634 17.1024 0.587939 16.6249 0.352764 16.0762C0.117588 15.5274 0 14.9466 0 14.3337V5.39705C0 4.78417 0.117588 4.20692 0.352764 3.6653C0.587939 3.12368 0.908634 2.64977 1.31485 2.24356C1.72106 1.83734 2.19497 1.51665 2.73659 1.28147C3.27821 1.0463 3.85546 0.928711 4.46834 0.928711H13.4264ZM13.4147 8.1867C14.2421 8.1867 14.9129 8.85742 14.9129 9.68483C14.9129 10.2614 14.5867 10.761 14.1093 11.0115C14.1455 11.1969 14.1646 11.3864 14.1646 11.5793C14.1646 13.7319 11.829 15.477 8.94794 15.477C6.06688 15.477 3.73132 13.7319 3.73132 11.5793C3.73132 11.3863 3.7504 11.1967 3.78665 11.0112C3.30925 10.7608 2.98304 10.2613 2.98304 9.68483C2.98304 8.85742 3.65378 8.1867 4.48116 8.18667C4.89563 8.18667 5.27054 8.35514 5.54169 8.62715C6.3794 8.08706 7.44954 7.74289 8.62478 7.6892C8.6255 6.99297 8.93722 6.34391 9.48037 5.90817C10.0242 5.47191 10.7265 5.30845 11.407 5.45964L11.5268 5.48626C11.7487 5.13737 12.1377 4.90522 12.5818 4.90522C13.2725 4.90522 13.8324 5.46511 13.8324 6.15581C13.8324 6.84649 13.2725 7.40641 12.5818 7.40641C11.8912 7.40641 11.3312 6.84649 11.3312 6.15581C11.3312 6.14548 11.3319 6.13534 11.3326 6.12519C11.3331 6.11868 11.3335 6.11216 11.3338 6.10559L11.2668 6.09071C10.7788 5.98233 10.275 6.09951 9.88487 6.41242C9.49547 6.72481 9.27193 7.19008 9.2712 7.6892C10.4467 7.74292 11.5171 8.08726 12.3548 8.6276C12.626 8.35564 13.0003 8.1867 13.4147 8.1867ZM13.186 6.15584C13.186 5.82269 12.915 5.55167 12.5818 5.55167C12.2487 5.55167 11.9777 5.82269 11.9777 6.15584C11.9777 6.48897 12.2487 6.75998 12.5818 6.75998C12.915 6.75998 13.186 6.48897 13.186 6.15584ZM4.48116 8.83313C4.01153 8.83313 3.62946 9.21519 3.62946 9.68483C3.62946 9.96939 3.77008 10.2212 3.98518 10.3757C4.2042 9.87114 4.55695 9.41164 5.01259 9.02074C4.86692 8.90359 4.6823 8.83313 4.48116 8.83313ZM8.94796 14.8306C10.2028 14.8306 11.3754 14.4708 12.2497 13.8175C13.0677 13.2064 13.5181 12.4115 13.5182 11.5793C13.5182 10.747 13.0677 9.95215 12.2497 9.34101C11.3754 8.68776 10.2028 8.32799 8.94796 8.32799C7.6931 8.32799 6.52049 8.68776 5.64619 9.34101C4.82825 9.95215 4.37777 10.747 4.37777 11.5793C4.37777 12.4115 4.82825 13.2064 5.64619 13.8175C6.52049 14.4708 7.6931 14.8306 8.94796 14.8306ZM12.8832 9.02063C13.3387 9.41148 13.6914 9.87083 13.9105 10.3753C14.1256 10.2208 14.2664 9.96936 14.2664 9.68483C14.2664 9.21519 13.8844 8.83313 13.4147 8.83313C13.2136 8.83313 13.0288 8.90348 12.8832 9.02063ZM7.72456 10.6693C7.72456 11.0461 7.41916 11.3515 7.04243 11.3515C6.66571 11.3515 6.36031 11.0461 6.36031 10.6693C6.36031 10.2926 6.66571 9.98721 7.04243 9.98721C7.41916 9.98721 7.72456 10.2926 7.72456 10.6693ZM10.8534 11.3515C11.2301 11.3515 11.5355 11.0461 11.5355 10.6693C11.5355 10.2926 11.2301 9.98721 10.8534 9.98721C10.4766 9.98721 10.1712 10.2926 10.1712 10.6693C10.1712 11.0461 10.4766 11.3515 10.8534 11.3515ZM8.80929 13.0063C9.46035 13.0063 10.0837 12.765 10.5645 12.3269C10.6967 12.2066 10.901 12.2163 11.0212 12.3481C11.1414 12.4801 11.1318 12.6845 10.9999 12.8047C10.3998 13.3515 9.62181 13.6527 8.80931 13.6527C7.91022 13.6527 7.04275 13.2754 6.42934 12.6175C6.3076 12.487 6.31474 12.2824 6.4453 12.1607C6.57587 12.039 6.7804 12.0461 6.90211 12.1767C7.40092 12.7117 8.07824 13.0063 8.80929 13.0063Z" fill="#AFB4C0"/>
</g>
<defs>
<clipPath id="clip0_8383_49722">
<rect width="18" height="18" fill="white" transform="translate(0 0.928711)"/>
</clipPath>
</defs>
</svg>
