<svg width="19" height="19" viewBox="0 0 19 19" fill="none" xmlns="http://www.w3.org/2000/svg">
<g clip-path="url(#clip0_8383_49724)">
<path fill-rule="evenodd" clip-rule="evenodd" d="M9.0221 2.06348C8.06298 2.06348 6.69393 4.82739 6.55664 9.21397H11.4876C11.3503 4.82739 9.98122 2.06348 9.0221 2.06348Z" fill="#AFB4C0"/>
<path fill-rule="evenodd" clip-rule="evenodd" d="M6.55664 10.6445C6.69393 15.0311 8.063 17.795 9.02212 17.795C9.98124 17.795 11.3503 15.0311 11.4876 10.6445H6.55664Z" fill="#AFB4C0"/>
<path fill-rule="evenodd" clip-rule="evenodd" d="M12.9179 9.21305H18.0434C17.704 4.90558 14.3442 1.43901 10.0825 0.938477C11.8415 1.9672 12.8073 5.52529 12.9179 9.21305Z" fill="#AFB4C0"/>
<path fill-rule="evenodd" clip-rule="evenodd" d="M5.12549 9.21305C5.23609 5.52529 6.20188 1.9672 7.96093 0.938477C3.6992 1.43901 0.339411 4.90558 0 9.21305H5.12549Z" fill="#AFB4C0"/>
<path fill-rule="evenodd" clip-rule="evenodd" d="M12.9179 10.6445C12.8073 14.3323 11.8415 17.8904 10.0825 18.9191C14.3442 18.4186 17.704 14.952 18.0434 10.6445H12.9179Z" fill="#AFB4C0"/>
<path fill-rule="evenodd" clip-rule="evenodd" d="M5.12549 10.6445H0C0.339411 14.952 3.6992 18.4186 7.96093 18.9191C6.20188 17.8904 5.23609 14.3323 5.12549 10.6445Z" fill="#AFB4C0"/>
</g>
<defs>
<clipPath id="clip0_8383_49724">
<rect width="18.0435" height="18.0435" fill="white" transform="translate(0 0.907227)"/>
</clipPath>
</defs>
</svg>
