<svg width="19" height="19" viewBox="0 0 19 19" fill="none" xmlns="http://www.w3.org/2000/svg">
<g clip-path="url(#clip0_8383_49726)">
<path d="M13.7595 0.907227C16.5463 0.907227 18.098 2.5131 18.098 5.26473V14.5842C18.098 17.3809 16.5463 18.9507 13.7595 18.9507H6.19834C3.45573 18.9507 1.85889 17.3809 1.85889 14.5842V5.26473C1.85889 2.5131 3.45573 0.907227 6.19834 0.907227H13.7595ZM6.44193 13.3031C6.17128 13.276 5.90965 13.4023 5.7653 13.6369C5.62095 13.8624 5.62095 14.1602 5.7653 14.3947C5.90965 14.6203 6.17128 14.7556 6.44193 14.7195H13.515C13.8749 14.6834 14.1465 14.3758 14.1465 14.0158C14.1465 13.6459 13.8749 13.3392 13.515 13.3031H6.44193ZM13.515 9.18828H6.44193C6.05309 9.18828 5.73823 9.50494 5.73823 9.89288C5.73823 10.2808 6.05309 10.5966 6.44193 10.5966H13.515C13.9029 10.5966 14.2187 10.2808 14.2187 9.89288C14.2187 9.50494 13.9029 9.18828 13.515 9.18828ZM9.13853 5.10233H6.44193V5.11136C6.05309 5.11136 5.73823 5.42712 5.73823 5.81505C5.73823 6.20299 6.05309 6.51875 6.44193 6.51875H9.13853C9.52736 6.51875 9.84313 6.20299 9.84313 5.80513C9.84313 5.4181 9.52736 5.10233 9.13853 5.10233Z" fill="#AFB4C0"/>
</g>
<defs>
<clipPath id="clip0_8383_49726">
<rect width="18.0435" height="18.0435" fill="white" transform="translate(0.956543 0.907227)"/>
</clipPath>
</defs>
</svg>
