<svg width="18" height="19" viewBox="0 0 18 19" fill="none" xmlns="http://www.w3.org/2000/svg">
<g clip-path="url(#clip0_8383_49721)">
<path fill-rule="evenodd" clip-rule="evenodd" d="M0.487602 3.37139C0 4.32836 0 5.58111 0 8.08661V11.6656C0 14.1711 0 15.4238 0.487602 16.3808C0.91651 17.2226 1.6009 17.9069 2.44267 18.3358C3.39965 18.8234 4.6524 18.8234 7.1579 18.8234H10.7368C13.2423 18.8234 14.4951 18.8234 15.4521 18.3358C16.2938 17.9069 16.9782 17.2226 17.4071 16.3808C17.8947 15.4238 17.8947 14.1711 17.8947 11.6656V8.08661C17.8947 5.58111 17.8947 4.32836 17.4071 3.37139C16.9782 2.52961 16.2938 1.84522 15.4521 1.41631C14.4951 0.928711 13.2423 0.928711 10.7368 0.928711H7.15789C4.6524 0.928711 3.39965 0.928711 2.44267 1.41631C1.6009 1.84522 0.91651 2.52961 0.487602 3.37139ZM13.9414 4.52863H12.1095L9.09046 7.97947L6.48026 4.52863H2.69994L7.21684 10.4352L2.93584 15.3282H4.76907L8.07318 11.5528L10.9607 15.3282H14.6477L9.93903 9.10331L13.9414 4.52863ZM12.4816 14.2316H11.4664L4.8394 5.56769H5.9287L12.4816 14.2316Z" fill="#AFB4C0"/>
</g>
<defs>
<clipPath id="clip0_8383_49721">
<rect width="18" height="18" fill="white" transform="translate(0 0.928711)"/>
</clipPath>
</defs>
</svg>
