<svg width="18" height="19" viewBox="0 0 18 19" fill="none" xmlns="http://www.w3.org/2000/svg">
<g clip-path="url(#clip0_8383_49720)">
<path d="M13.5054 0.928711C14.1219 0.928711 14.7025 1.04699 15.2473 1.28355C15.7921 1.52011 16.2688 1.84269 16.6774 2.25129C17.086 2.65989 17.4086 3.1366 17.6452 3.6814C17.8817 4.2262 18 4.80685 18 5.42333V14.4126C18 15.0291 17.8817 15.6133 17.6452 16.1653C17.4086 16.7172 17.086 17.1975 16.6774 17.6061C16.2688 18.0147 15.7921 18.3373 15.2473 18.5739C14.7025 18.8104 14.1219 18.9287 13.5054 18.9287H4.49462C3.87814 18.9287 3.29749 18.8104 2.75269 18.5739C2.20789 18.3373 1.73118 18.0147 1.32258 17.6061C0.913979 17.1975 0.591398 16.7172 0.354839 16.1653C0.11828 15.6133 0 15.0291 0 14.4126V5.42333C0 4.80685 0.11828 4.2262 0.354839 3.6814C0.591398 3.1366 0.913979 2.65989 1.32258 2.25129C1.73118 1.84269 2.20789 1.52011 2.75269 1.28355C3.29749 1.04699 3.87814 0.928711 4.49462 0.928711H13.5054ZM7.63441 9.10075C7.63441 9.4305 7.74194 9.68857 7.95699 9.87495C8.15771 10.0613 8.44444 10.1545 8.8172 10.1545C9.2043 10.1545 9.49821 10.0613 9.69893 9.87495C9.91398 9.7029 10.0215 9.44484 10.0215 9.10075V7.12226C10.0215 6.84986 9.91398 6.6133 9.69893 6.41258C9.49821 6.2262 9.21864 6.13301 8.86022 6.13301C8.48746 6.13301 8.19355 6.21903 7.97849 6.39108C7.7491 6.56312 7.63441 6.79968 7.63441 7.10075V9.10075ZM6.47312 10.1545H3.93548V10.8427H4.7957V14.8857H5.6129V10.8427H6.47312V10.1545ZM6.49462 7.91796L7.56989 4.86419H6.62366L6.06452 6.95022H6L5.39785 4.86419H4.47312L5.56989 8.00398V10.0685H6.49462V7.91796ZM8.88172 11.4018H8.15054V14.047C8.12186 14.09 8.08602 14.1258 8.04301 14.1545L7.91398 14.2405C7.82796 14.2835 7.76344 14.3051 7.72043 14.3051C7.64875 14.3051 7.59857 14.2907 7.56989 14.262C7.54122 14.2334 7.52688 14.1689 7.52688 14.0685V11.4018H6.7957V14.3266C6.7957 14.5273 6.83871 14.6778 6.92473 14.7782C7.01075 14.8929 7.13262 14.9502 7.29032 14.9502C7.41935 14.9502 7.56272 14.9072 7.72043 14.8212C7.84946 14.7638 7.99283 14.6563 8.15054 14.4986V14.8857H8.88172V11.4018ZM11.5269 12.2405C11.5269 11.9538 11.4624 11.7316 11.3333 11.5739C11.233 11.4305 11.0609 11.3588 10.8172 11.3588C10.6882 11.3588 10.5735 11.3875 10.4731 11.4448C10.3584 11.4879 10.2581 11.5667 10.172 11.6814V10.1545H9.41935V14.8857H10.172V14.6276C10.2151 14.685 10.2616 14.7316 10.3118 14.7674C10.362 14.8033 10.4158 14.8355 10.4731 14.8642C10.5735 14.9072 10.7025 14.9287 10.8602 14.9287C11.0753 14.9287 11.2401 14.8642 11.3548 14.7352C11.4695 14.5918 11.5269 14.4054 11.5269 14.176V12.2405ZM11.2688 10.1115C11.4409 10.1115 11.5986 10.0757 11.7419 10.004C11.8853 9.93229 12.043 9.81043 12.2151 9.63839V10.0685H13.0323V6.21903H12.2151V9.14376C12.1577 9.21545 12.0717 9.28713 11.957 9.35882C11.871 9.40183 11.7993 9.42333 11.7419 9.42333C11.6416 9.42333 11.5842 9.40183 11.5699 9.35882C11.5269 9.31581 11.5054 9.25129 11.5054 9.16527V6.21903H10.6882V9.44484C10.6882 9.67423 10.7384 9.83911 10.8387 9.93946C10.9104 10.0542 11.0538 10.1115 11.2688 10.1115ZM14.0645 12.3481C14.0645 12.004 13.9713 11.7459 13.7849 11.5739C13.6129 11.4018 13.3548 11.3158 13.0108 11.3158C12.681 11.3158 12.4158 11.409 12.2151 11.5954C12.0143 11.7961 11.914 12.047 11.914 12.3481V13.8965C11.914 14.2405 12.0072 14.5058 12.1935 14.6922C12.3943 14.8929 12.6523 14.9932 12.9677 14.9932C13.3262 14.9932 13.5986 14.9 13.7849 14.7137C13.9713 14.5416 14.0645 14.2692 14.0645 13.8965V13.7244H13.3118V13.8749C13.3118 14.09 13.2903 14.2262 13.2473 14.2835C13.19 14.3409 13.1039 14.3696 12.9892 14.3696C12.8459 14.3696 12.7599 14.3337 12.7312 14.262C12.6882 14.2047 12.6667 14.0757 12.6667 13.8749V13.2298H14.0645V12.3481ZM12.9892 11.918C13.1039 11.918 13.1828 11.9538 13.2258 12.0255C13.2832 12.0828 13.3118 12.1832 13.3118 12.3266V12.6922H12.6667V12.3266C12.6667 12.1975 12.6882 12.0972 12.7312 12.0255C12.8029 11.9538 12.8889 11.918 12.9892 11.918ZM10.4731 11.918C10.5735 11.918 10.6452 11.9466 10.6882 12.004C10.7455 12.0613 10.7742 12.1473 10.7742 12.262V14.0685C10.7742 14.1832 10.7527 14.262 10.7097 14.3051C10.6667 14.3624 10.6022 14.3911 10.5161 14.3911C10.4588 14.3911 10.4014 14.3767 10.3441 14.3481C10.2724 14.3194 10.2151 14.2764 10.172 14.219V12.047C10.2294 11.9896 10.2796 11.9538 10.3226 11.9395C10.3513 11.9251 10.4014 11.918 10.4731 11.918ZM8.8172 9.48785C8.70251 9.48785 8.62366 9.45918 8.58065 9.40183C8.50896 9.35882 8.47312 9.27997 8.47312 9.16527V7.07925C8.47312 7.00756 8.50896 6.93588 8.58065 6.86419C8.63799 6.82118 8.71685 6.79968 8.8172 6.79968C8.91756 6.79968 9.01075 6.82118 9.09677 6.86419C9.15412 6.92154 9.1828 6.99323 9.1828 7.07925V9.16527C9.1828 9.27997 9.15412 9.35882 9.09677 9.40183C9.03943 9.45918 8.94624 9.48785 8.8172 9.48785Z" fill="#AFB4C0"/>
</g>
<defs>
<clipPath id="clip0_8383_49720">
<rect width="18" height="18" fill="white" transform="translate(0 0.928711)"/>
</clipPath>
</defs>
</svg>
