<svg width="20" height="20" viewBox="0 0 20 20" fill="none" xmlns="http://www.w3.org/2000/svg">
<g clip-path="url(#clip0_2080_67801)">
<path d="M19.0149 0.553025C18.5368 0.0643575 17.8291 -0.116383 17.1693 0.0748767L1.78244 4.5207C1.08625 4.71387 0.592802 5.26566 0.459876 5.96567C0.324082 6.67907 0.798406 7.58564 1.41809 7.96433L6.22922 10.9021C6.72267 11.2043 7.35956 11.1287 7.7679 10.7194L13.2771 5.21019C13.5545 4.92235 14.0135 4.92235 14.2908 5.21019C14.5681 5.48656 14.5681 5.93698 14.2908 6.22387L8.77201 11.7331C8.36272 12.1424 8.28621 12.7774 8.58745 13.2718L11.5271 18.1011C11.8714 18.6739 12.4643 19 13.1146 19C13.1911 19 13.2771 19 13.3536 18.9895C14.0995 18.8948 14.6924 18.387 14.9124 17.6698L19.4739 2.39868C19.6748 1.7484 19.4931 1.04074 19.0149 0.553025Z" fill="#1A1A1A"/>
<path opacity="0.4" d="M7.56292 16.3921C7.84216 16.6723 7.84216 17.1265 7.56292 17.4067L6.25662 18.7121C6.117 18.8526 5.93339 18.9225 5.74978 18.9225C5.56617 18.9225 5.38256 18.8526 5.24294 18.7121C4.96275 18.4319 4.96275 17.9786 5.24294 17.6984L6.54829 16.3921C6.82849 16.1129 7.28273 16.1129 7.56292 16.3921ZM6.81347 12.7696C7.09271 13.0498 7.09271 13.5041 6.81347 13.7843L5.50717 15.0896C5.36755 15.2302 5.18394 15.3 5.00033 15.3C4.81672 15.3 4.63311 15.2302 4.49349 15.0896C4.2133 14.8094 4.2133 14.3561 4.49349 14.0759L5.79884 12.7696C6.07903 12.4904 6.53328 12.4904 6.81347 12.7696ZM3.21665 11.6294C3.49589 11.9095 3.49589 12.3638 3.21665 12.644L1.91034 13.9493C1.77073 14.0899 1.58712 14.1597 1.40351 14.1597C1.2199 14.1597 1.03629 14.0899 0.89667 13.9493C0.616475 13.6691 0.616475 13.2158 0.89667 12.9357L2.20202 11.6294C2.48221 11.3501 2.93645 11.3501 3.21665 11.6294Z" fill="#1A1A1A"/>
</g>
<defs>
<clipPath id="clip0_2080_67801">
<rect width="20" height="20" fill="white"/>
</clipPath>
</defs>
</svg>
