<svg width="21" height="20" viewBox="0 0 21 20" fill="none" xmlns="http://www.w3.org/2000/svg">
<path d="M8.00045 13.4752L5.10878 10.5835C4.95297 10.4277 4.74164 10.3402 4.52128 10.3402C4.30092 10.3402 4.08959 10.4277 3.93378 10.5835C3.77797 10.7393 3.69043 10.9507 3.69043 11.171C3.69043 11.2801 3.71192 11.3882 3.75367 11.489C3.79543 11.5898 3.85663 11.6814 3.93378 11.7585L7.41711 15.2419C7.74211 15.5669 8.26711 15.5669 8.59211 15.2419L17.4088 6.42519C17.5646 6.26937 17.6521 6.05804 17.6521 5.83769C17.6521 5.61733 17.5646 5.406 17.4088 5.25019C17.253 5.09437 17.0416 5.00684 16.8213 5.00684C16.6009 5.00684 16.3896 5.09437 16.2338 5.25019L8.00045 13.4752Z" fill="#53BA69"/>
</svg>
