<svg width="20" height="20" viewBox="0 0 20 20" fill="none" xmlns="http://www.w3.org/2000/svg">
<path d="M3.33398 17.5H16.6673M4.72232 10.9892C4.367 11.3453 4.16741 11.8278 4.16732 12.3309V15H6.85315C7.35648 15 7.83898 14.8 8.19482 14.4434L16.1115 6.52254C16.4667 6.16637 16.6661 5.68388 16.6661 5.18087C16.6661 4.67786 16.4667 4.19537 16.1115 3.8392L15.3298 3.05587C15.1535 2.8795 14.9442 2.7396 14.7138 2.64418C14.4834 2.54875 14.2365 2.49968 13.9871 2.49976C13.7378 2.49983 13.4909 2.54906 13.2605 2.64463C13.0302 2.74019 12.821 2.88022 12.6448 3.0567L4.72232 10.9892Z" stroke="#2C2C2C" stroke-linecap="round" stroke-linejoin="round"/>
</svg>
