<svg width="17" height="16" viewBox="0 0 17 16" fill="none" xmlns="http://www.w3.org/2000/svg">
<path d="M3.16667 2H13.8333C14.0101 2 14.1797 2.07024 14.3047 2.19526C14.4298 2.32029 14.5 2.48986 14.5 2.66667V3.724C14.5 3.9008 14.4297 4.07034 14.3047 4.19533L10.0287 8.47133C9.90363 8.59633 9.83337 8.76587 9.83333 8.94267V13.146C9.83333 13.2473 9.81023 13.3473 9.76578 13.4384C9.72132 13.5295 9.6567 13.6092 9.57681 13.6716C9.49692 13.7339 9.40387 13.7772 9.30473 13.7982C9.20559 13.8192 9.10297 13.8173 9.00467 13.7927L7.67133 13.4593C7.52717 13.4232 7.39921 13.34 7.30777 13.2228C7.21633 13.1056 7.16667 12.9613 7.16667 12.8127V8.94267C7.16663 8.76587 7.09637 8.59633 6.97133 8.47133L2.69533 4.19533C2.5703 4.07034 2.50004 3.9008 2.5 3.724V2.66667C2.5 2.48986 2.57024 2.32029 2.69526 2.19526C2.82029 2.07024 2.98986 2 3.16667 2Z" stroke="#2C2C2C" stroke-width="0.96875" stroke-linecap="round" stroke-linejoin="round"/>
</svg>
