<svg width="880" height="156" viewBox="0 0 880 156" fill="none" xmlns="http://www.w3.org/2000/svg">
<path d="M77.5194 67.7916L1 81.4946V135.901C1 146.985 10.0145 155.956 21.0985 155.901L859.098 151.774C870.106 151.72 879 142.782 879 131.774V2L837.277 23.4419C832.501 25.896 826.94 26.327 821.843 24.6379L799.549 17.2492C793.923 15.3845 787.759 16.1115 782.721 19.2342L725.94 54.4276C720.428 57.8442 713.601 58.3759 707.626 55.8538L647.783 30.5934C642.766 28.4757 637.103 28.4952 632.1 30.6475L607.164 41.3768C602.397 43.4279 597.02 43.5458 592.168 41.7057L539.181 21.6112C533.644 19.5114 527.461 19.9733 522.297 22.8725L463.205 56.0519C458.827 58.5101 453.684 59.2317 448.799 58.0733L397.39 45.8837C393.78 45.0278 390.004 45.1927 386.483 46.36L327.779 65.8198C325.051 66.7241 322.16 67.0298 319.303 66.7162L260.533 60.2632C258.193 60.0062 255.826 60.1644 253.541 60.7305L173.684 80.5136C171.071 81.1609 168.354 81.2741 165.696 80.8463L84.2232 67.7325C82.0012 67.3749 79.7347 67.3949 77.5194 67.7916Z" fill="url(#paint0_linear_352_21183)"/>
<path d="M1 81.6552L77.5129 67.9256C79.7325 67.5274 82.0035 67.5073 84.2298 67.8664L165.688 81.0043C168.351 81.4338 171.074 81.3202 173.691 80.6703L253.534 60.8508C255.823 60.2825 258.195 60.1237 260.54 60.3816L319.294 66.8459C322.157 67.1609 325.053 66.854 327.786 65.9462L386.473 46.4528C390 45.2812 393.784 45.1156 397.4 45.9748L448.785 58.1832C453.679 59.3459 458.831 58.6219 463.215 56.1555L522.285 22.9216C527.455 20.0127 533.651 19.5493 539.196 21.6566L592.154 41.7808C597.014 43.6276 602.403 43.5093 607.177 41.4509L632.087 30.7111C637.097 28.5512 642.772 28.5316 647.796 30.6568L707.61 55.9558C713.594 58.4866 720.434 57.9533 725.953 54.5256L782.71 19.276C787.754 16.1431 793.93 15.4137 799.565 17.2852L821.829 24.6789C826.934 26.3742 832.506 25.9417 837.288 23.4792L879 2" stroke="#FDD75C" stroke-width="4"/>
<defs>
<linearGradient id="paint0_linear_352_21183" x1="440" y1="2" x2="440" y2="156" gradientUnits="userSpaceOnUse">
<stop stop-color="#DFDD75" stop-opacity="0.792157"/>
<stop offset="1" stop-color="#FDD75C" stop-opacity="0"/>
</linearGradient>
</defs>
</svg>
