<svg width="21" height="20" viewBox="0 0 21 20" fill="none" xmlns="http://www.w3.org/2000/svg">
<path d="M17.1667 7.49935L15.5042 16.9544C15.4363 17.3405 15.2346 17.6904 14.9343 17.9424C14.6341 18.1945 14.2545 18.3327 13.8625 18.3327H7.1375C6.74545 18.3327 6.36594 18.1945 6.06569 17.9424C5.76543 17.6904 5.56366 17.3405 5.49583 16.9544L3.83333 7.49935M18 4.99935H13.3125M13.3125 4.99935V3.33268C13.3125 2.89065 13.1369 2.46673 12.8243 2.15417C12.5118 1.84161 12.0879 1.66602 11.6458 1.66602H9.35417C8.91214 1.66602 8.48822 1.84161 8.17566 2.15417C7.86309 2.46673 7.6875 2.89065 7.6875 3.33268V4.99935M13.3125 4.99935H7.6875M3 4.99935H7.6875" stroke="#FD615C" stroke-width="1.25" stroke-linecap="round" stroke-linejoin="round"/>
</svg>
