<svg width="17" height="16" viewBox="0 0 17 16" fill="none" xmlns="http://www.w3.org/2000/svg">
<g opacity="0.4">
<path d="M14.5001 14.0001L11.6048 11.1048M11.6048 11.1048C12.1001 10.6095 12.4929 10.0216 12.761 9.3745C13.029 8.72742 13.1669 8.03387 13.1669 7.33347C13.1669 6.63307 13.029 5.93953 12.761 5.29244C12.4929 4.64535 12.1001 4.0574 11.6048 3.56214C11.1095 3.06688 10.5216 2.67402 9.8745 2.40599C9.22742 2.13795 8.53387 2 7.83347 2C7.13307 2 6.43953 2.13795 5.79244 2.40599C5.14535 2.67402 4.5574 3.06688 4.06214 3.56214C3.06192 4.56236 2.5 5.91895 2.5 7.33347C2.5 8.748 3.06192 10.1046 4.06214 11.1048C5.06236 12.105 6.41895 12.6669 7.83347 12.6669C9.248 12.6669 10.6046 12.105 11.6048 11.1048Z" stroke="#2C2C2C" stroke-width="1.00781" stroke-linecap="round" stroke-linejoin="round"/>
</g>
</svg>
